%TF.GenerationSoftware,KiCad,Pcbnew,6.0.2+dfsg-1*%
%TF.CreationDate,2022-09-10T17:36:13-07:00*%
%TF.ProjectId,OpenHasp-1Gang,4f70656e-4861-4737-902d-3147616e672e,rev?*%
%TF.SameCoordinates,Original*%
%TF.FileFunction,Copper,L2,Bot*%
%TF.FilePolarity,Positive*%
%FSLAX46Y46*%
G04 Gerber Fmt 4.6, Leading zero omitted, Abs format (unit mm)*
G04 Created by KiCad (PCBNEW 6.0.2+dfsg-1) date 2022-09-10 17:36:13*
%MOMM*%
%LPD*%
G01*
G04 APERTURE LIST*
%TA.AperFunction,ComponentPad*%
%ADD10C,0.800000*%
%TD*%
%TA.AperFunction,ComponentPad*%
%ADD11C,5.000000*%
%TD*%
%TA.AperFunction,ComponentPad*%
%ADD12O,1.000000X1.600000*%
%TD*%
%TA.AperFunction,ComponentPad*%
%ADD13O,1.000000X2.100000*%
%TD*%
%TA.AperFunction,ViaPad*%
%ADD14C,0.800000*%
%TD*%
%TA.AperFunction,ViaPad*%
%ADD15C,0.450000*%
%TD*%
%TA.AperFunction,Conductor*%
%ADD16C,0.500000*%
%TD*%
%TA.AperFunction,Conductor*%
%ADD17C,0.381000*%
%TD*%
%TA.AperFunction,Conductor*%
%ADD18C,0.152400*%
%TD*%
G04 APERTURE END LIST*
D10*
%TO.P,H1,1*%
%TO.N,N/C*%
X85500000Y29875000D03*
X86825825Y29325825D03*
X83625000Y28000000D03*
X84174175Y29325825D03*
D11*
X85500000Y28000000D03*
D10*
X85500000Y26125000D03*
X87375000Y28000000D03*
X84174175Y26674175D03*
X86825825Y26674175D03*
%TD*%
%TO.P,H2,1*%
%TO.N,N/C*%
X145625000Y67500000D03*
X147500000Y65625000D03*
X146174175Y66174175D03*
X148825825Y66174175D03*
X147500000Y69375000D03*
D11*
X147500000Y67500000D03*
D10*
X149375000Y67500000D03*
X146174175Y68825825D03*
X148825825Y68825825D03*
%TD*%
%TO.P,H3,1*%
%TO.N,N/C*%
X86855825Y68855825D03*
X83655000Y67530000D03*
X86855825Y66204175D03*
D11*
X85530000Y67530000D03*
D10*
X87405000Y67530000D03*
X84204175Y68855825D03*
X85530000Y65655000D03*
X84204175Y66204175D03*
X85530000Y69405000D03*
%TD*%
%TO.P,H4,1*%
%TO.N,N/C*%
X147500000Y29875000D03*
D11*
X147500000Y28000000D03*
D10*
X146174175Y26674175D03*
X149375000Y28000000D03*
X147500000Y26125000D03*
X148825825Y26674175D03*
X148825825Y29325825D03*
X145625000Y28000000D03*
X146174175Y29325825D03*
%TD*%
D12*
%TO.P,J5,S1,SHIELD*%
%TO.N,unconnected-(J5-PadS1)*%
X110995000Y28225000D03*
D13*
X110995000Y32405000D03*
X102355000Y32405000D03*
D12*
X102355000Y28225000D03*
%TD*%
D14*
%TO.N,VBUS*%
X107648600Y34670400D03*
X123347500Y33320500D03*
X125309000Y30860400D03*
D15*
%TO.N,GND*%
X90878000Y53448000D03*
X95196000Y33890000D03*
X123890000Y65580000D03*
X128612000Y28240000D03*
X142186000Y42780000D03*
X100626200Y36803700D03*
X126700000Y31190000D03*
X123520000Y28830000D03*
X142694000Y45574000D03*
X113230000Y39224000D03*
X108280000Y56760000D03*
X89637300Y57789000D03*
X100680000Y33830000D03*
X126184000Y36176000D03*
X139844000Y45204200D03*
X94980000Y62750000D03*
X85544000Y46336000D03*
X109490000Y39820000D03*
X131320000Y65620000D03*
X114283700Y30310800D03*
X86052000Y38716000D03*
X106950000Y39450000D03*
X138360000Y62880000D03*
X109928000Y35668000D03*
X123490000Y36260000D03*
X119470000Y64090000D03*
X115870000Y35030000D03*
X118470000Y38410000D03*
X102890000Y49140000D03*
X98752000Y58274000D03*
X103923000Y54203000D03*
X120855000Y43250000D03*
X136710000Y58270000D03*
X110040000Y30170000D03*
X102308000Y34144000D03*
X129410000Y29140000D03*
X130430000Y36350000D03*
X110050000Y33750000D03*
X127962000Y31350000D03*
X116786000Y47606000D03*
X87068000Y39732000D03*
X108404000Y48876000D03*
X85290000Y50146000D03*
X109837900Y36673900D03*
X115262000Y28810000D03*
X136950000Y49000000D03*
X91386000Y45828000D03*
X107388000Y46844000D03*
X121273500Y46250000D03*
X136090000Y36176000D03*
X117920000Y34930000D03*
X119750000Y39580000D03*
X142590000Y47690000D03*
X131970000Y34490000D03*
X108050000Y61450000D03*
X141130000Y62490000D03*
X99768000Y32112000D03*
X101030000Y31270000D03*
X140408000Y35922000D03*
X95196000Y35668000D03*
X116544400Y36683500D03*
X140060400Y61028000D03*
X121273500Y47250000D03*
X118420000Y36650000D03*
X92656000Y34144000D03*
X108150000Y30334000D03*
X101220600Y38800400D03*
X100276000Y50400000D03*
X120638200Y59234700D03*
X114159300Y62091000D03*
X137614000Y32112000D03*
X137770000Y39700000D03*
X120746800Y28146500D03*
X121120600Y47793900D03*
X121230000Y29720000D03*
X116140000Y39910000D03*
X102709700Y36254900D03*
X118060000Y37820000D03*
X111860000Y29950000D03*
X91386000Y48114000D03*
X92656000Y35668000D03*
X115220000Y37970000D03*
X96388200Y61854700D03*
X116870000Y34190000D03*
X122110000Y39450000D03*
X87830000Y40748000D03*
X111370000Y39220000D03*
X133042000Y39478000D03*
X105510000Y46170000D03*
X85036000Y60306000D03*
X142186000Y39224000D03*
X100540000Y54220000D03*
X124910000Y33650000D03*
X97175600Y34345600D03*
X102562000Y61322000D03*
X89686600Y55736900D03*
X115830000Y30190000D03*
X110460000Y36260000D03*
X130520000Y32910000D03*
X97510000Y29620000D03*
X97405300Y45587700D03*
X93100000Y61700000D03*
X91386000Y44304000D03*
X95380000Y31110000D03*
X106626000Y52686000D03*
X142694000Y46590000D03*
X125920000Y28770000D03*
X85036000Y55480000D03*
X113100000Y29130000D03*
X104086000Y39478000D03*
X105386400Y54118100D03*
X102054000Y36938000D03*
X122260800Y35046200D03*
X142590000Y44040000D03*
X97310000Y31220000D03*
X128530000Y34790000D03*
X89100000Y42018000D03*
X110631800Y61854700D03*
X114094200Y28146500D03*
%TO.N,+3V3*%
X120842900Y41728800D03*
X117307800Y32804100D03*
X90293700Y51953800D03*
X97356800Y35601900D03*
X92477600Y41132300D03*
X100988100Y28146500D03*
X129603900Y60582400D03*
X98161600Y39150000D03*
X137849100Y59346300D03*
%TO.N,TFT_CS*%
X120653700Y57178100D03*
X116500500Y45460900D03*
%TO.N,DC_RS*%
X119293400Y57398500D03*
X119293400Y61087500D03*
%TO.N,SCK*%
X114155200Y54118100D03*
X117216500Y56963500D03*
%TO.N,SDI*%
X113919900Y60912000D03*
X119497000Y55334900D03*
%TO.N,LED_K2*%
X120252600Y42791200D03*
X120935600Y44526300D03*
%TO.N,SDA*%
X117922000Y54752800D03*
X119823900Y58934600D03*
%TO.N,SCL*%
X117806600Y59743000D03*
X118684400Y61712000D03*
%TO.N,D+*%
X105764400Y34968100D03*
X104621600Y34414700D03*
%TO.N,Net-(J5-PadA5)*%
X103201900Y34193500D03*
X104593400Y35518400D03*
%TO.N,Net-(Q1-Pad1)*%
X93132800Y29615300D03*
X87919300Y31671700D03*
%TO.N,DTR*%
X96680600Y32490200D03*
X94508100Y27749500D03*
%TO.N,IO0*%
X110502700Y45035700D03*
X105581000Y30360300D03*
%TO.N,Net-(Q3-Pad3)*%
X117109500Y44856700D03*
X117085500Y38459600D03*
%TO.N,Net-(R3-Pad2)*%
X94071300Y31671400D03*
X113884400Y58225700D03*
%TO.N,Net-(R4-Pad2)*%
X99029300Y34193500D03*
X113884400Y56396900D03*
%TD*%
D16*
%TO.N,VBUS*%
X107648600Y34670400D02*
X114516000Y34670400D01*
X125309000Y31359000D02*
X123347500Y33320500D01*
X122205700Y32178700D02*
X123347500Y33320500D01*
X117007700Y32178700D02*
X122205700Y32178700D01*
X114516000Y34670400D02*
X117007700Y32178700D01*
X125309000Y30860400D02*
X125309000Y31359000D01*
D17*
%TO.N,GND*%
X97310000Y29820000D02*
X97510000Y29620000D01*
X97310000Y31220000D02*
X97310000Y29820000D01*
%TO.N,+3V3*%
X90293700Y51953800D02*
X90293700Y43316200D01*
X120842900Y41728800D02*
X120842900Y36339200D01*
X98161600Y36406700D02*
X98161600Y39150000D01*
X129603900Y61396900D02*
X129603900Y60582400D01*
X98077300Y34881400D02*
X97356800Y35601900D01*
X137849100Y59435800D02*
X134936200Y62348700D01*
X130555700Y62348700D02*
X129603900Y61396900D01*
X97356800Y35601900D02*
X98161600Y36406700D01*
X90293700Y43316200D02*
X92477600Y41132300D01*
X100988100Y28146500D02*
X98077300Y31057300D01*
X134936200Y62348700D02*
X130555700Y62348700D01*
X137849100Y59346300D02*
X137849100Y59435800D01*
X120842900Y36339200D02*
X117307800Y32804100D01*
X98077300Y31057300D02*
X98077300Y34881400D01*
D18*
%TO.N,TFT_CS*%
X116500500Y45460900D02*
X120653700Y49614100D01*
X120653700Y49614100D02*
X120653700Y57178100D01*
%TO.N,DC_RS*%
X119293400Y57398500D02*
X119293400Y61087500D01*
%TO.N,SCK*%
X114371100Y54118100D02*
X117216500Y56963500D01*
X114155200Y54118100D02*
X114371100Y54118100D01*
%TO.N,SDI*%
X119497000Y55334900D02*
X113919900Y60912000D01*
%TO.N,LED_K2*%
X120252600Y43843300D02*
X120252600Y42791200D01*
X120935600Y44526300D02*
X120252600Y43843300D01*
%TO.N,SDA*%
X119564900Y54752800D02*
X117922000Y54752800D01*
X119977300Y58781200D02*
X119977300Y55165200D01*
X119823900Y58934600D02*
X119977300Y58781200D01*
X119977300Y55165200D02*
X119564900Y54752800D01*
%TO.N,SCL*%
X117806600Y59743000D02*
X118684400Y60620800D01*
X118684400Y60620800D02*
X118684400Y61712000D01*
%TO.N,D+*%
X105211000Y34414700D02*
X104621600Y34414700D01*
X105764400Y34968100D02*
X105211000Y34414700D01*
%TO.N,Net-(J5-PadA5)*%
X104526800Y35518400D02*
X104593400Y35518400D01*
X103201900Y34193500D02*
X104526800Y35518400D01*
%TO.N,Net-(Q1-Pad1)*%
X93132800Y29615300D02*
X89975700Y29615300D01*
X89975700Y29615300D02*
X87919300Y31671700D01*
%TO.N,DTR*%
X96680600Y29922000D02*
X94508100Y27749500D01*
X96680600Y32490200D02*
X96680600Y29922000D01*
%TO.N,IO0*%
X105581000Y34059200D02*
X110502700Y38980900D01*
X105581000Y30360300D02*
X105581000Y34059200D01*
X110502700Y38980900D02*
X110502700Y45035700D01*
%TO.N,Net-(Q3-Pad3)*%
X117085500Y44832700D02*
X117085500Y38459600D01*
X117109500Y44856700D02*
X117085500Y44832700D01*
%TO.N,Net-(R3-Pad2)*%
X113884400Y58225700D02*
X94071300Y38412600D01*
X94071300Y38412600D02*
X94071300Y31671400D01*
%TO.N,Net-(R4-Pad2)*%
X113884400Y56396900D02*
X99029300Y41541800D01*
X99029300Y41541800D02*
X99029300Y34193500D01*
%TO.N,unconnected-(J5-PadS1)*%
X110995000Y32405000D02*
X110995000Y28225000D01*
X102355000Y28225000D02*
X102355000Y32405000D01*
%TD*%
%TA.AperFunction,Conductor*%
%TO.N,GND*%
G36*
X145252110Y69721998D02*
G01*
X145298603Y69668342D01*
X145308707Y69598068D01*
X145279213Y69533488D01*
X145273550Y69527373D01*
X145242025Y69495516D01*
X145242016Y69495506D01*
X145239466Y69492929D01*
X145025386Y69219902D01*
X145023493Y69216813D01*
X145023491Y69216810D01*
X144995617Y69171324D01*
X144844105Y68924079D01*
X144842580Y68920794D01*
X144842578Y68920790D01*
X144731433Y68681347D01*
X144698027Y68609380D01*
X144589087Y68279977D01*
X144518730Y67940236D01*
X144487888Y67594659D01*
X144496970Y67247829D01*
X144545856Y66904340D01*
X144633897Y66568747D01*
X144759927Y66245497D01*
X144922275Y65938874D01*
X144924325Y65935891D01*
X144924327Y65935888D01*
X145116733Y65655936D01*
X145116739Y65655929D01*
X145118790Y65652944D01*
X145346866Y65391495D01*
X145382289Y65359263D01*
X145559268Y65198225D01*
X145603481Y65157994D01*
X145885233Y64955534D01*
X146188388Y64786800D01*
X146508928Y64654028D01*
X146512422Y64653033D01*
X146512424Y64653032D01*
X146839103Y64559975D01*
X146839108Y64559974D01*
X146842604Y64558978D01*
X147039304Y64526767D01*
X147181412Y64503496D01*
X147181419Y64503495D01*
X147184993Y64502910D01*
X147358275Y64494738D01*
X147527931Y64486737D01*
X147527932Y64486737D01*
X147531558Y64486566D01*
X147540415Y64487170D01*
X147874073Y64509916D01*
X147874081Y64509917D01*
X147877704Y64510164D01*
X147881279Y64510827D01*
X147881282Y64510827D01*
X148215279Y64572730D01*
X148215283Y64572731D01*
X148218844Y64573391D01*
X148550456Y64675408D01*
X148868145Y64814864D01*
X149112511Y64957659D01*
X149164560Y64988074D01*
X149164562Y64988075D01*
X149167700Y64989909D01*
X149210565Y65022093D01*
X149442244Y65196042D01*
X149442248Y65196045D01*
X149445151Y65198225D01*
X149490118Y65240897D01*
X149529267Y65278048D01*
X149592449Y65310430D01*
X149663108Y65303514D01*
X149718810Y65259494D01*
X149742000Y65186651D01*
X149742000Y30315039D01*
X149721998Y30246918D01*
X149668342Y30200425D01*
X149598068Y30190321D01*
X149534170Y30219228D01*
X149464494Y30278737D01*
X149322019Y30400422D01*
X149034047Y30593931D01*
X148725741Y30753060D01*
X148401189Y30875698D01*
X148397668Y30876582D01*
X148397663Y30876584D01*
X148217509Y30921835D01*
X148064692Y30960220D01*
X148042476Y30963145D01*
X147724315Y31005032D01*
X147724307Y31005033D01*
X147720711Y31005506D01*
X147576045Y31007779D01*
X147377446Y31010899D01*
X147377442Y31010899D01*
X147373804Y31010956D01*
X147370190Y31010595D01*
X147370184Y31010595D01*
X147126843Y30986306D01*
X147028569Y30976497D01*
X146689583Y30902586D01*
X146686156Y30901413D01*
X146686150Y30901411D01*
X146410831Y30807148D01*
X146361339Y30790203D01*
X146048188Y30640837D01*
X145754279Y30456468D01*
X145751443Y30454196D01*
X145751436Y30454191D01*
X145588252Y30323456D01*
X145483509Y30239541D01*
X145444525Y30200147D01*
X145324436Y30078793D01*
X145239466Y29992929D01*
X145237225Y29990071D01*
X145066107Y29771835D01*
X145025386Y29719902D01*
X145023493Y29716813D01*
X145023491Y29716810D01*
X144978925Y29644085D01*
X144844105Y29424079D01*
X144842580Y29420794D01*
X144842578Y29420790D01*
X144791692Y29311164D01*
X144698027Y29109380D01*
X144644223Y28946693D01*
X144621281Y28877321D01*
X144589087Y28779977D01*
X144588351Y28776422D01*
X144588350Y28776419D01*
X144570793Y28691640D01*
X144518730Y28440236D01*
X144487888Y28094659D01*
X144487983Y28091029D01*
X144487983Y28091028D01*
X144490367Y28000000D01*
X144496970Y27747829D01*
X144545856Y27404340D01*
X144633897Y27068747D01*
X144759927Y26745497D01*
X144761624Y26742292D01*
X144895113Y26490175D01*
X144922275Y26438874D01*
X144924325Y26435891D01*
X144924327Y26435888D01*
X145116733Y26155936D01*
X145116739Y26155929D01*
X145118790Y26152944D01*
X145346866Y25891495D01*
X145468799Y25780545D01*
X145527431Y25727194D01*
X145564354Y25666553D01*
X145562631Y25595578D01*
X145522809Y25536801D01*
X145457531Y25508884D01*
X145442632Y25508000D01*
X87560517Y25508000D01*
X87492396Y25528002D01*
X87445903Y25581658D01*
X87435799Y25651932D01*
X87465293Y25716512D01*
X87473784Y25725397D01*
X87475678Y25727194D01*
X87696819Y25937050D01*
X87919370Y26203217D01*
X88109853Y26493201D01*
X88238446Y26748879D01*
X88264117Y26799920D01*
X88264120Y26799928D01*
X88265744Y26803156D01*
X88364928Y27074187D01*
X88383729Y27125563D01*
X88383730Y27125567D01*
X88384977Y27128974D01*
X88385822Y27132496D01*
X88385825Y27132504D01*
X88465124Y27462809D01*
X88465125Y27462813D01*
X88465971Y27466338D01*
X88466408Y27469948D01*
X88507316Y27807996D01*
X88507316Y27808003D01*
X88507652Y27810775D01*
X88509569Y27871751D01*
X88513511Y27997203D01*
X88513599Y28000000D01*
X88508777Y28083630D01*
X88493836Y28342754D01*
X88493835Y28342759D01*
X88493627Y28346374D01*
X88471977Y28470422D01*
X88434600Y28684585D01*
X88434598Y28684592D01*
X88433976Y28688158D01*
X88422253Y28727736D01*
X88377754Y28877959D01*
X88335437Y29020820D01*
X88331725Y29029522D01*
X88200740Y29336614D01*
X88200738Y29336617D01*
X88199316Y29339952D01*
X88193461Y29350218D01*
X88029208Y29638184D01*
X88027417Y29641324D01*
X88023586Y29646540D01*
X87927348Y29777551D01*
X87822018Y29920940D01*
X87585842Y30175096D01*
X87322019Y30400422D01*
X87034047Y30593931D01*
X86725741Y30753060D01*
X86401189Y30875698D01*
X86397668Y30876582D01*
X86397663Y30876584D01*
X86217509Y30921835D01*
X86064692Y30960220D01*
X86042476Y30963145D01*
X85724315Y31005032D01*
X85724307Y31005033D01*
X85720711Y31005506D01*
X85576045Y31007779D01*
X85377446Y31010899D01*
X85377442Y31010899D01*
X85373804Y31010956D01*
X85370190Y31010595D01*
X85370184Y31010595D01*
X85126843Y30986306D01*
X85028569Y30976497D01*
X84689583Y30902586D01*
X84686156Y30901413D01*
X84686150Y30901411D01*
X84410831Y30807148D01*
X84361339Y30790203D01*
X84048188Y30640837D01*
X83754279Y30456468D01*
X83751443Y30454196D01*
X83751436Y30454191D01*
X83588252Y30323456D01*
X83483509Y30239541D01*
X83480901Y30236905D01*
X83473562Y30229489D01*
X83411429Y30195138D01*
X83340588Y30199831D01*
X83283530Y30242079D01*
X83258370Y30308468D01*
X83258000Y30318116D01*
X83258000Y31682006D01*
X87181231Y31682006D01*
X87197289Y31518232D01*
X87249232Y31362085D01*
X87252881Y31356060D01*
X87330753Y31227480D01*
X87334479Y31221327D01*
X87339370Y31216262D01*
X87339371Y31216261D01*
X87358037Y31196932D01*
X87448791Y31102953D01*
X87586489Y31012846D01*
X87740728Y30955485D01*
X87770748Y30951480D01*
X87776807Y30950671D01*
X87841684Y30921835D01*
X87849237Y30914873D01*
X88690314Y30073795D01*
X89529316Y29234793D01*
X89540183Y29222402D01*
X89558687Y29198287D01*
X89589351Y29174758D01*
X89589352Y29174757D01*
X89680827Y29104566D01*
X89823063Y29045650D01*
X89975700Y29025554D01*
X90005838Y29029522D01*
X90022285Y29030600D01*
X92649108Y29030600D01*
X92718101Y29010032D01*
X92799989Y28956446D01*
X92954228Y28899085D01*
X92961209Y28898154D01*
X92961211Y28898153D01*
X93110361Y28878252D01*
X93110365Y28878252D01*
X93117342Y28877321D01*
X93124353Y28877959D01*
X93124357Y28877959D01*
X93274203Y28891596D01*
X93274204Y28891596D01*
X93281224Y28892235D01*
X93321338Y28905269D01*
X93431030Y28940910D01*
X93431033Y28940911D01*
X93437729Y28943087D01*
X93579079Y29027349D01*
X93698249Y29140832D01*
X93720789Y29174757D01*
X93785414Y29272025D01*
X93785415Y29272027D01*
X93789315Y29277897D01*
X93847751Y29431732D01*
X93870653Y29594690D01*
X93870941Y29615300D01*
X93852598Y29778834D01*
X93798480Y29934240D01*
X93786588Y29953272D01*
X93715009Y30067821D01*
X93711276Y30073795D01*
X93621510Y30164190D01*
X93600286Y30185563D01*
X93600282Y30185566D01*
X93595322Y30190561D01*
X93456380Y30278737D01*
X93372886Y30308468D01*
X93307989Y30331577D01*
X93307987Y30331578D01*
X93301355Y30333939D01*
X93294369Y30334772D01*
X93294365Y30334773D01*
X93179871Y30348425D01*
X93137953Y30353423D01*
X93130950Y30352687D01*
X93130949Y30352687D01*
X93087735Y30348145D01*
X92974295Y30336222D01*
X92967627Y30333952D01*
X92825182Y30285460D01*
X92825179Y30285459D01*
X92818515Y30283190D01*
X92812520Y30279502D01*
X92812516Y30279500D01*
X92713659Y30218682D01*
X92647637Y30200000D01*
X90270081Y30200000D01*
X90201960Y30220002D01*
X90180986Y30236905D01*
X88736185Y31681706D01*
X93333231Y31681706D01*
X93349289Y31517932D01*
X93401232Y31361785D01*
X93404881Y31355760D01*
X93482650Y31227350D01*
X93486479Y31221027D01*
X93491370Y31215962D01*
X93491371Y31215961D01*
X93521301Y31184968D01*
X93600791Y31102653D01*
X93738489Y31012546D01*
X93892728Y30955185D01*
X93899709Y30954254D01*
X93899711Y30954253D01*
X94048861Y30934352D01*
X94048865Y30934352D01*
X94055842Y30933421D01*
X94062853Y30934059D01*
X94062857Y30934059D01*
X94212703Y30947696D01*
X94212704Y30947696D01*
X94219724Y30948335D01*
X94288368Y30970639D01*
X94369530Y30997010D01*
X94369533Y30997011D01*
X94376229Y30999187D01*
X94517579Y31083449D01*
X94636749Y31196932D01*
X94640927Y31203220D01*
X94723914Y31328125D01*
X94723915Y31328127D01*
X94727815Y31333997D01*
X94786251Y31487832D01*
X94800066Y31586129D01*
X94808602Y31646866D01*
X94808603Y31646873D01*
X94809153Y31650790D01*
X94809441Y31671400D01*
X94791098Y31834934D01*
X94788677Y31841888D01*
X94739298Y31983683D01*
X94736980Y31990340D01*
X94675146Y32089295D01*
X94656000Y32156065D01*
X94656000Y38118220D01*
X94676002Y38186341D01*
X94692905Y38207315D01*
X98239578Y41753988D01*
X98301890Y41788014D01*
X98372705Y41782949D01*
X98429541Y41740402D01*
X98454352Y41673882D01*
X98453595Y41648447D01*
X98445853Y41589639D01*
X98439555Y41541800D01*
X98440633Y41533612D01*
X98443522Y41511667D01*
X98444600Y41495221D01*
X98444600Y39996910D01*
X98424598Y39928789D01*
X98370942Y39882296D01*
X98303682Y39871796D01*
X98173747Y39887289D01*
X98166753Y39888123D01*
X98159750Y39887387D01*
X98159749Y39887387D01*
X98116535Y39882845D01*
X98003095Y39870922D01*
X97996427Y39868652D01*
X97853982Y39820160D01*
X97853979Y39820159D01*
X97847315Y39817890D01*
X97707155Y39731663D01*
X97589582Y39616527D01*
X97500438Y39478203D01*
X97498027Y39471580D01*
X97498026Y39471577D01*
X97446566Y39330191D01*
X97446565Y39330186D01*
X97444156Y39323568D01*
X97423531Y39160306D01*
X97439589Y38996532D01*
X97456159Y38946719D01*
X97462600Y38906951D01*
X97462600Y36748425D01*
X97442598Y36680304D01*
X97425695Y36659330D01*
X97036456Y36270091D01*
X97013383Y36251868D01*
X96982810Y36233059D01*
X96902355Y36183563D01*
X96882469Y36164089D01*
X96817088Y36100063D01*
X96784782Y36068427D01*
X96695638Y35930103D01*
X96693227Y35923480D01*
X96693226Y35923477D01*
X96641766Y35782091D01*
X96641765Y35782086D01*
X96639356Y35775468D01*
X96618731Y35612206D01*
X96634789Y35448432D01*
X96686732Y35292285D01*
X96690381Y35286260D01*
X96767265Y35159311D01*
X96771979Y35151527D01*
X96886291Y35033153D01*
X96892187Y35029295D01*
X97022152Y34944248D01*
X97042254Y34927911D01*
X97341395Y34628770D01*
X97375421Y34566458D01*
X97378300Y34539675D01*
X97378300Y33134335D01*
X97358298Y33066214D01*
X97304642Y33019721D01*
X97234368Y33009617D01*
X97169788Y33039111D01*
X97162895Y33045550D01*
X97148086Y33060462D01*
X97143122Y33065461D01*
X97004180Y33153637D01*
X96953835Y33171564D01*
X96855789Y33206477D01*
X96855787Y33206478D01*
X96849155Y33208839D01*
X96842169Y33209672D01*
X96842165Y33209673D01*
X96727671Y33223325D01*
X96685753Y33228323D01*
X96678750Y33227587D01*
X96678749Y33227587D01*
X96635535Y33223045D01*
X96522095Y33211122D01*
X96515427Y33208852D01*
X96372982Y33160360D01*
X96372979Y33160359D01*
X96366315Y33158090D01*
X96346195Y33145712D01*
X96241222Y33081132D01*
X96226155Y33071863D01*
X96108582Y32956727D01*
X96019438Y32818403D01*
X96017027Y32811780D01*
X96017026Y32811777D01*
X95965566Y32670391D01*
X95965565Y32670386D01*
X95963156Y32663768D01*
X95942531Y32500506D01*
X95958589Y32336732D01*
X96010532Y32180585D01*
X96014181Y32174560D01*
X96077676Y32069718D01*
X96095900Y32004446D01*
X96095900Y30216380D01*
X96075898Y30148259D01*
X96058995Y30127285D01*
X94439853Y28508143D01*
X94377541Y28474117D01*
X94363926Y28471928D01*
X94363264Y28471859D01*
X94356602Y28471159D01*
X94356597Y28471158D01*
X94349595Y28470422D01*
X94342927Y28468152D01*
X94200482Y28419660D01*
X94200479Y28419659D01*
X94193815Y28417390D01*
X94053655Y28331163D01*
X93936082Y28216027D01*
X93846938Y28077703D01*
X93844527Y28071080D01*
X93844526Y28071077D01*
X93793066Y27929691D01*
X93793065Y27929686D01*
X93790656Y27923068D01*
X93770031Y27759806D01*
X93786089Y27596032D01*
X93838032Y27439885D01*
X93846676Y27425613D01*
X93890971Y27352474D01*
X93923279Y27299127D01*
X94037591Y27180753D01*
X94175289Y27090646D01*
X94329528Y27033285D01*
X94336509Y27032354D01*
X94336511Y27032353D01*
X94485661Y27012452D01*
X94485665Y27012452D01*
X94492642Y27011521D01*
X94499653Y27012159D01*
X94499657Y27012159D01*
X94649503Y27025796D01*
X94649504Y27025796D01*
X94656524Y27026435D01*
X94685162Y27035740D01*
X94806330Y27075110D01*
X94806333Y27075111D01*
X94813029Y27077287D01*
X94954379Y27161549D01*
X95073549Y27275032D01*
X95089558Y27299127D01*
X95160714Y27406225D01*
X95160715Y27406227D01*
X95164615Y27412097D01*
X95223051Y27565932D01*
X95228897Y27607527D01*
X95258186Y27672201D01*
X95264576Y27679086D01*
X97061103Y29475613D01*
X97073495Y29486481D01*
X97091060Y29499959D01*
X97097613Y29504987D01*
X97102639Y29511537D01*
X97102643Y29511541D01*
X97171274Y29600984D01*
X97171275Y29600986D01*
X97186308Y29620577D01*
X97191334Y29627127D01*
X97195257Y29636596D01*
X97220434Y29697381D01*
X97247090Y29761734D01*
X97250250Y29769363D01*
X97265300Y29883679D01*
X97265300Y29883681D01*
X97268089Y29904861D01*
X97269267Y29913812D01*
X97270345Y29922000D01*
X97266378Y29952133D01*
X97265300Y29968579D01*
X97265300Y30596046D01*
X97285302Y30664167D01*
X97338958Y30710660D01*
X97409232Y30720764D01*
X97473812Y30691270D01*
X97491261Y30672752D01*
X97509564Y30648900D01*
X97513429Y30643580D01*
X97549121Y30591648D01*
X97554791Y30586596D01*
X97554792Y30586595D01*
X97594988Y30550782D01*
X97600264Y30545801D01*
X100320841Y27825224D01*
X100339522Y27801401D01*
X100387450Y27722264D01*
X100403279Y27696127D01*
X100517591Y27577753D01*
X100655289Y27487646D01*
X100809528Y27430285D01*
X100816509Y27429354D01*
X100816511Y27429353D01*
X100965661Y27409452D01*
X100965665Y27409452D01*
X100972642Y27408521D01*
X100979653Y27409159D01*
X100979657Y27409159D01*
X101129503Y27422796D01*
X101129504Y27422796D01*
X101136524Y27423435D01*
X101168609Y27433860D01*
X101286330Y27472110D01*
X101286333Y27472111D01*
X101293029Y27474287D01*
X101299077Y27477892D01*
X101299085Y27477896D01*
X101300395Y27478677D01*
X101301347Y27478922D01*
X101305498Y27480805D01*
X101305829Y27480076D01*
X101369150Y27496376D01*
X101436559Y27474092D01*
X101476161Y27429601D01*
X101508038Y27369649D01*
X101508041Y27369645D01*
X101510934Y27364204D01*
X101578873Y27280903D01*
X101632040Y27215713D01*
X101632043Y27215710D01*
X101635935Y27210938D01*
X101640682Y27207011D01*
X101640684Y27207009D01*
X101783575Y27088799D01*
X101783579Y27088797D01*
X101788325Y27084870D01*
X101962299Y26990802D01*
X102151232Y26932318D01*
X102157357Y26931674D01*
X102157358Y26931674D01*
X102341796Y26912289D01*
X102341798Y26912289D01*
X102347925Y26911645D01*
X102430424Y26919153D01*
X102538749Y26929011D01*
X102538752Y26929012D01*
X102544888Y26929570D01*
X102550794Y26931308D01*
X102550798Y26931309D01*
X102655924Y26962249D01*
X102734619Y26985410D01*
X102740077Y26988263D01*
X102740081Y26988265D01*
X102830891Y27035740D01*
X102909890Y27077040D01*
X103064025Y27200968D01*
X103191154Y27352474D01*
X103194121Y27357872D01*
X103194125Y27357877D01*
X103283467Y27520392D01*
X103286433Y27525787D01*
X103288846Y27533392D01*
X103344373Y27708436D01*
X103344373Y27708437D01*
X103346235Y27714306D01*
X103363500Y27868227D01*
X103363500Y28574769D01*
X103362814Y28581773D01*
X103352382Y28688158D01*
X103349080Y28721833D01*
X103332600Y28776419D01*
X103302135Y28877321D01*
X103291916Y28911169D01*
X103199066Y29085796D01*
X103126510Y29174758D01*
X103077960Y29234287D01*
X103077957Y29234290D01*
X103074065Y29239062D01*
X103067729Y29244304D01*
X102985385Y29312424D01*
X102945647Y29371258D01*
X102939700Y29409509D01*
X102939700Y30970639D01*
X102959702Y31038760D01*
X102986748Y31068836D01*
X102990062Y31071500D01*
X103064025Y31130968D01*
X103127733Y31206892D01*
X103186842Y31246219D01*
X103257830Y31247345D01*
X103300781Y31225999D01*
X103350678Y31187850D01*
X103435935Y31148094D01*
X103508631Y31114195D01*
X103508634Y31114194D01*
X103514808Y31111315D01*
X103521456Y31109829D01*
X103521459Y31109828D01*
X103617753Y31088304D01*
X103691543Y31071810D01*
X103697088Y31071500D01*
X103830244Y31071500D01*
X103965037Y31086143D01*
X104112280Y31135696D01*
X104130204Y31141728D01*
X104130206Y31141729D01*
X104136675Y31143906D01*
X104291905Y31237177D01*
X104296862Y31241865D01*
X104296865Y31241867D01*
X104418527Y31356918D01*
X104418529Y31356920D01*
X104423485Y31361607D01*
X104427317Y31367245D01*
X104427320Y31367249D01*
X104521442Y31505745D01*
X104525277Y31511388D01*
X104592530Y31679534D01*
X104593644Y31686262D01*
X104593645Y31686266D01*
X104620993Y31851461D01*
X104620993Y31851464D01*
X104622108Y31858198D01*
X104619746Y31903279D01*
X104612987Y32032234D01*
X104612630Y32039047D01*
X104598790Y32089295D01*
X104566352Y32207059D01*
X104564539Y32213641D01*
X104480078Y32373836D01*
X104475673Y32379049D01*
X104475670Y32379053D01*
X104367594Y32506943D01*
X104367590Y32506947D01*
X104363187Y32512157D01*
X104357762Y32516305D01*
X104224743Y32618006D01*
X104224739Y32618009D01*
X104219322Y32622150D01*
X104061478Y32695754D01*
X104061369Y32695805D01*
X104061366Y32695806D01*
X104055192Y32698685D01*
X104048544Y32700171D01*
X104048541Y32700172D01*
X103883494Y32737064D01*
X103883495Y32737064D01*
X103878457Y32738190D01*
X103872912Y32738500D01*
X103739756Y32738500D01*
X103604963Y32723857D01*
X103529688Y32698524D01*
X103458747Y32695754D01*
X103397568Y32731777D01*
X103365577Y32795158D01*
X103363500Y32817943D01*
X103363500Y33004769D01*
X103362814Y33011773D01*
X103356012Y33081132D01*
X103349080Y33151833D01*
X103331180Y33211122D01*
X103297256Y33323483D01*
X103296715Y33394478D01*
X103334643Y33454494D01*
X103378941Y33479733D01*
X103441508Y33500063D01*
X103500130Y33519110D01*
X103500133Y33519111D01*
X103506829Y33521287D01*
X103648179Y33605549D01*
X103767349Y33719032D01*
X103786363Y33747650D01*
X103854514Y33850225D01*
X103854515Y33850227D01*
X103858415Y33856097D01*
X103867772Y33880729D01*
X103910661Y33937305D01*
X103977330Y33961714D01*
X104046611Y33946204D01*
X104076196Y33923509D01*
X104146193Y33851024D01*
X104146198Y33851020D01*
X104151091Y33845953D01*
X104288789Y33755846D01*
X104443028Y33698485D01*
X104450009Y33697554D01*
X104450011Y33697553D01*
X104599161Y33677652D01*
X104599165Y33677652D01*
X104606142Y33676721D01*
X104613153Y33677359D01*
X104613157Y33677359D01*
X104763003Y33690996D01*
X104763004Y33690996D01*
X104770024Y33691635D01*
X104831365Y33711566D01*
X104902331Y33713594D01*
X104963129Y33676932D01*
X104994454Y33613220D01*
X104996300Y33591733D01*
X104996300Y30844232D01*
X104976211Y30775976D01*
X104919838Y30688503D01*
X104910981Y30664167D01*
X104865966Y30540491D01*
X104865965Y30540486D01*
X104863556Y30533868D01*
X104842931Y30370606D01*
X104858989Y30206832D01*
X104910932Y30050685D01*
X104914581Y30044660D01*
X104947642Y29990071D01*
X104996179Y29909927D01*
X105110491Y29791553D01*
X105248189Y29701446D01*
X105402428Y29644085D01*
X105409409Y29643154D01*
X105409411Y29643153D01*
X105558561Y29623252D01*
X105558565Y29623252D01*
X105565542Y29622321D01*
X105572553Y29622959D01*
X105572557Y29622959D01*
X105722403Y29636596D01*
X105722404Y29636596D01*
X105729424Y29637235D01*
X105758062Y29646540D01*
X105879230Y29685910D01*
X105879233Y29685911D01*
X105885929Y29688087D01*
X106027279Y29772349D01*
X106146449Y29885832D01*
X106165039Y29913812D01*
X106233614Y30017025D01*
X106233615Y30017027D01*
X106237515Y30022897D01*
X106295951Y30176732D01*
X106315882Y30318548D01*
X106318302Y30335766D01*
X106318303Y30335773D01*
X106318853Y30339690D01*
X106319141Y30360300D01*
X106300798Y30523834D01*
X106294998Y30540491D01*
X106251929Y30664167D01*
X106246680Y30679240D01*
X106184846Y30778195D01*
X106165700Y30844965D01*
X106165700Y33764820D01*
X106185702Y33832941D01*
X106202605Y33853915D01*
X106637004Y34288314D01*
X106699316Y34322340D01*
X106770131Y34317275D01*
X106826967Y34274728D01*
X106835218Y34262219D01*
X106906258Y34139174D01*
X106906261Y34139169D01*
X106909560Y34133456D01*
X107037347Y33991534D01*
X107069250Y33968355D01*
X107186504Y33883165D01*
X107191848Y33879282D01*
X107197876Y33876598D01*
X107197878Y33876597D01*
X107356863Y33805813D01*
X107366312Y33801606D01*
X107448770Y33784079D01*
X107546656Y33763272D01*
X107546661Y33763272D01*
X107553113Y33761900D01*
X107744087Y33761900D01*
X107750539Y33763272D01*
X107750544Y33763272D01*
X107848430Y33784079D01*
X107930888Y33801606D01*
X107940337Y33805813D01*
X108099322Y33876597D01*
X108099324Y33876598D01*
X108105352Y33879282D01*
X108110691Y33883161D01*
X108110698Y33883165D01*
X108117128Y33887837D01*
X108191187Y33911900D01*
X110217809Y33911900D01*
X110285930Y33891898D01*
X110332423Y33838242D01*
X110342527Y33767968D01*
X110313033Y33703388D01*
X110296762Y33687705D01*
X110285975Y33679032D01*
X110158846Y33527526D01*
X110155879Y33522128D01*
X110155875Y33522123D01*
X110095010Y33411408D01*
X110063567Y33354213D01*
X110061706Y33348346D01*
X110061705Y33348344D01*
X110017451Y33208839D01*
X110003765Y33165694D01*
X109986500Y33011773D01*
X109986500Y32822138D01*
X109966498Y32754017D01*
X109912842Y32707524D01*
X109842568Y32697420D01*
X109833014Y32699172D01*
X109663494Y32737064D01*
X109663495Y32737064D01*
X109658457Y32738190D01*
X109652912Y32738500D01*
X109519756Y32738500D01*
X109384963Y32723857D01*
X109266810Y32684094D01*
X109219796Y32668272D01*
X109219794Y32668271D01*
X109213325Y32666094D01*
X109058095Y32572823D01*
X109053138Y32568135D01*
X109053135Y32568133D01*
X108931473Y32453082D01*
X108926515Y32448393D01*
X108922683Y32442755D01*
X108922680Y32442751D01*
X108846979Y32331360D01*
X108824723Y32298612D01*
X108757470Y32130466D01*
X108756356Y32123738D01*
X108756355Y32123734D01*
X108733170Y31983683D01*
X108727892Y31951802D01*
X108728249Y31944985D01*
X108728249Y31944981D01*
X108734001Y31835234D01*
X108737370Y31770953D01*
X108739181Y31764380D01*
X108739181Y31764377D01*
X108780702Y31613636D01*
X108785461Y31596359D01*
X108869922Y31436164D01*
X108874327Y31430951D01*
X108874330Y31430947D01*
X108982406Y31303057D01*
X108982410Y31303053D01*
X108986813Y31297843D01*
X108992237Y31293696D01*
X108992238Y31293695D01*
X109125257Y31191994D01*
X109125261Y31191991D01*
X109130678Y31187850D01*
X109215935Y31148094D01*
X109288631Y31114195D01*
X109288634Y31114194D01*
X109294808Y31111315D01*
X109301456Y31109829D01*
X109301459Y31109828D01*
X109397753Y31088304D01*
X109471543Y31071810D01*
X109477088Y31071500D01*
X109610244Y31071500D01*
X109745037Y31086143D01*
X109892280Y31135696D01*
X109910204Y31141728D01*
X109910206Y31141729D01*
X109916675Y31143906D01*
X109989811Y31187850D01*
X110062602Y31231587D01*
X110131294Y31249527D01*
X110198781Y31227480D01*
X110225139Y31203220D01*
X110272040Y31145713D01*
X110272043Y31145710D01*
X110275935Y31140938D01*
X110280682Y31137011D01*
X110280684Y31137009D01*
X110321851Y31102953D01*
X110359872Y31071500D01*
X110364615Y31067576D01*
X110404353Y31008742D01*
X110410300Y30970491D01*
X110410300Y29409361D01*
X110390298Y29341240D01*
X110363253Y29311165D01*
X110285975Y29249032D01*
X110158846Y29097526D01*
X110155879Y29092128D01*
X110155875Y29092123D01*
X110114760Y29017334D01*
X110063567Y28924213D01*
X110061706Y28918346D01*
X110061705Y28918344D01*
X110055596Y28899085D01*
X110003765Y28735694D01*
X109986500Y28581773D01*
X109986500Y27875231D01*
X109986800Y27872175D01*
X109986800Y27872168D01*
X109987530Y27864727D01*
X110000920Y27728167D01*
X110058084Y27538831D01*
X110150934Y27364204D01*
X110218873Y27280903D01*
X110272040Y27215713D01*
X110272043Y27215710D01*
X110275935Y27210938D01*
X110280682Y27207011D01*
X110280684Y27207009D01*
X110423575Y27088799D01*
X110423579Y27088797D01*
X110428325Y27084870D01*
X110602299Y26990802D01*
X110791232Y26932318D01*
X110797357Y26931674D01*
X110797358Y26931674D01*
X110981796Y26912289D01*
X110981798Y26912289D01*
X110987925Y26911645D01*
X111070424Y26919153D01*
X111178749Y26929011D01*
X111178752Y26929012D01*
X111184888Y26929570D01*
X111190794Y26931308D01*
X111190798Y26931309D01*
X111295924Y26962249D01*
X111374619Y26985410D01*
X111380077Y26988263D01*
X111380081Y26988265D01*
X111470891Y27035740D01*
X111549890Y27077040D01*
X111704025Y27200968D01*
X111831154Y27352474D01*
X111834121Y27357872D01*
X111834125Y27357877D01*
X111923467Y27520392D01*
X111926433Y27525787D01*
X111928846Y27533392D01*
X111984373Y27708436D01*
X111984373Y27708437D01*
X111986235Y27714306D01*
X112003500Y27868227D01*
X112003500Y28574769D01*
X112002814Y28581773D01*
X111992382Y28688158D01*
X111989080Y28721833D01*
X111972600Y28776419D01*
X111942135Y28877321D01*
X111931916Y28911169D01*
X111839066Y29085796D01*
X111766510Y29174758D01*
X111717960Y29234287D01*
X111717957Y29234290D01*
X111714065Y29239062D01*
X111707729Y29244304D01*
X111625385Y29312424D01*
X111585647Y29371258D01*
X111579700Y29409509D01*
X111579700Y30970639D01*
X111599702Y31038760D01*
X111626748Y31068836D01*
X111630062Y31071500D01*
X111704025Y31130968D01*
X111831154Y31282474D01*
X111834121Y31287872D01*
X111834125Y31287877D01*
X111923467Y31450392D01*
X111926433Y31455787D01*
X111928846Y31463392D01*
X111984373Y31638436D01*
X111984373Y31638437D01*
X111986235Y31644306D01*
X112003500Y31798227D01*
X112003500Y33004769D01*
X112002814Y33011773D01*
X111996012Y33081132D01*
X111989080Y33151833D01*
X111931916Y33341169D01*
X111839066Y33515796D01*
X111759609Y33613220D01*
X111717960Y33664287D01*
X111717957Y33664290D01*
X111714065Y33669062D01*
X111709318Y33672989D01*
X111709315Y33672992D01*
X111690187Y33688816D01*
X111650449Y33747650D01*
X111648828Y33818628D01*
X111685837Y33879215D01*
X111749727Y33910175D01*
X111770503Y33911900D01*
X114149629Y33911900D01*
X114217750Y33891898D01*
X114238724Y33874995D01*
X116423930Y31689789D01*
X116436316Y31675377D01*
X116444849Y31663782D01*
X116444854Y31663777D01*
X116449192Y31657882D01*
X116454770Y31653143D01*
X116454773Y31653140D01*
X116489468Y31623665D01*
X116496984Y31616735D01*
X116502679Y31611040D01*
X116505561Y31608760D01*
X116524951Y31593419D01*
X116528355Y31590628D01*
X116578403Y31548109D01*
X116583985Y31543367D01*
X116590501Y31540039D01*
X116595550Y31536672D01*
X116600679Y31533505D01*
X116606416Y31528966D01*
X116672575Y31498045D01*
X116676469Y31496142D01*
X116741508Y31462931D01*
X116748616Y31461192D01*
X116754259Y31459093D01*
X116760022Y31457176D01*
X116766650Y31454078D01*
X116773812Y31452588D01*
X116773813Y31452588D01*
X116838112Y31439214D01*
X116842396Y31438244D01*
X116913310Y31420892D01*
X116918912Y31420544D01*
X116918915Y31420544D01*
X116924464Y31420200D01*
X116924462Y31420164D01*
X116928455Y31419925D01*
X116932647Y31419551D01*
X116939815Y31418060D01*
X117017220Y31420154D01*
X117020628Y31420200D01*
X122138630Y31420200D01*
X122157580Y31418767D01*
X122171815Y31416601D01*
X122171819Y31416601D01*
X122179049Y31415501D01*
X122186341Y31416094D01*
X122186344Y31416094D01*
X122231718Y31419785D01*
X122241933Y31420200D01*
X122249993Y31420200D01*
X122267380Y31422227D01*
X122278207Y31423489D01*
X122282582Y31423922D01*
X122348039Y31429246D01*
X122348042Y31429247D01*
X122355337Y31429840D01*
X122362301Y31432096D01*
X122368260Y31433287D01*
X122374115Y31434671D01*
X122381381Y31435518D01*
X122450027Y31460435D01*
X122454155Y31461852D01*
X122516636Y31482093D01*
X122516638Y31482094D01*
X122523599Y31484349D01*
X122529854Y31488145D01*
X122535328Y31490651D01*
X122540758Y31493370D01*
X122547637Y31495867D01*
X122555985Y31501340D01*
X122608676Y31535886D01*
X122612380Y31538223D01*
X122674807Y31576105D01*
X122683184Y31583503D01*
X122683208Y31583476D01*
X122686200Y31586129D01*
X122689433Y31588832D01*
X122695552Y31592844D01*
X122748828Y31649083D01*
X122751206Y31651525D01*
X123258405Y32158724D01*
X123320717Y32192750D01*
X123391532Y32187685D01*
X123436595Y32158724D01*
X124392626Y31202693D01*
X124426652Y31140381D01*
X124423365Y31074663D01*
X124415458Y31050328D01*
X124414768Y31043765D01*
X124414767Y31043758D01*
X124403238Y30934059D01*
X124395496Y30860400D01*
X124396186Y30853835D01*
X124412474Y30698867D01*
X124415458Y30670472D01*
X124474473Y30488844D01*
X124569960Y30323456D01*
X124574378Y30318549D01*
X124574379Y30318548D01*
X124680737Y30200425D01*
X124697747Y30181534D01*
X124852248Y30069282D01*
X124858276Y30066598D01*
X124858278Y30066597D01*
X124981674Y30011658D01*
X125026712Y29991606D01*
X125120113Y29971753D01*
X125207056Y29953272D01*
X125207061Y29953272D01*
X125213513Y29951900D01*
X125404487Y29951900D01*
X125410939Y29953272D01*
X125410944Y29953272D01*
X125497887Y29971753D01*
X125591288Y29991606D01*
X125636326Y30011658D01*
X125759722Y30066597D01*
X125759724Y30066598D01*
X125765752Y30069282D01*
X125920253Y30181534D01*
X125937263Y30200425D01*
X126043621Y30318548D01*
X126043622Y30318549D01*
X126048040Y30323456D01*
X126143527Y30488844D01*
X126202542Y30670472D01*
X126205527Y30698867D01*
X126221814Y30853835D01*
X126222504Y30860400D01*
X126214762Y30934059D01*
X126203232Y31043765D01*
X126203232Y31043767D01*
X126202542Y31050328D01*
X126143527Y31231956D01*
X126134642Y31247345D01*
X126084381Y31334400D01*
X126067877Y31395992D01*
X126067712Y31395982D01*
X126067665Y31396782D01*
X126067500Y31397400D01*
X126067500Y31403293D01*
X126065779Y31418060D01*
X126065293Y31422227D01*
X126064209Y31431520D01*
X126063778Y31435879D01*
X126063755Y31436164D01*
X126057860Y31508636D01*
X126055605Y31515597D01*
X126054418Y31521537D01*
X126053029Y31527412D01*
X126052182Y31534681D01*
X126027264Y31603330D01*
X126025847Y31607458D01*
X126005607Y31669936D01*
X126005606Y31669938D01*
X126003351Y31676899D01*
X125999555Y31683154D01*
X125997049Y31688628D01*
X125994330Y31694058D01*
X125991833Y31700937D01*
X125987820Y31707058D01*
X125951814Y31761976D01*
X125949467Y31765695D01*
X125911595Y31828107D01*
X125904197Y31836484D01*
X125904224Y31836508D01*
X125901571Y31839500D01*
X125898868Y31842733D01*
X125894856Y31848852D01*
X125838617Y31902128D01*
X125836175Y31904506D01*
X124267625Y33473056D01*
X124236887Y33523215D01*
X124233951Y33532253D01*
X124182027Y33692056D01*
X124175485Y33703388D01*
X124116349Y33805813D01*
X124086540Y33857444D01*
X123986676Y33968355D01*
X123963175Y33994455D01*
X123963174Y33994456D01*
X123958753Y33999366D01*
X123804252Y34111618D01*
X123798224Y34114302D01*
X123798222Y34114303D01*
X123635819Y34186609D01*
X123635818Y34186609D01*
X123629788Y34189294D01*
X123528611Y34210800D01*
X123449444Y34227628D01*
X123449439Y34227628D01*
X123442987Y34229000D01*
X123252013Y34229000D01*
X123245561Y34227628D01*
X123245556Y34227628D01*
X123166389Y34210800D01*
X123065212Y34189294D01*
X123059182Y34186609D01*
X123059181Y34186609D01*
X122896778Y34114303D01*
X122896776Y34114302D01*
X122890748Y34111618D01*
X122736247Y33999366D01*
X122731826Y33994456D01*
X122731825Y33994455D01*
X122708325Y33968355D01*
X122608460Y33857444D01*
X122578651Y33805813D01*
X122519516Y33703388D01*
X122512973Y33692056D01*
X122461050Y33532253D01*
X122458113Y33523215D01*
X122427375Y33473056D01*
X121928424Y32974105D01*
X121866112Y32940079D01*
X121839329Y32937200D01*
X118733625Y32937200D01*
X118665504Y32957202D01*
X118619011Y33010858D01*
X118608907Y33081132D01*
X118638401Y33145712D01*
X118644530Y33152295D01*
X121316938Y35824703D01*
X121323204Y35830557D01*
X121323348Y35830683D01*
X121366174Y35868042D01*
X121402402Y35919590D01*
X121406335Y35924884D01*
X121410427Y35930103D01*
X121445191Y35974439D01*
X121448317Y35981363D01*
X121450164Y35984412D01*
X121457389Y35997078D01*
X121459086Y36000243D01*
X121463456Y36006461D01*
X121486356Y36065196D01*
X121488883Y36071209D01*
X121514812Y36128635D01*
X121516196Y36136103D01*
X121517264Y36139511D01*
X121521264Y36153550D01*
X121522153Y36157014D01*
X121524912Y36164089D01*
X121525904Y36171621D01*
X121533135Y36226545D01*
X121534167Y36233059D01*
X121544260Y36287517D01*
X121544260Y36287520D01*
X121545644Y36294986D01*
X121542109Y36356295D01*
X121541900Y36363547D01*
X121541900Y41480116D01*
X121550112Y41524857D01*
X121557851Y41545232D01*
X121572357Y41648447D01*
X121580202Y41704266D01*
X121580203Y41704273D01*
X121580753Y41708190D01*
X121581041Y41728800D01*
X121562698Y41892334D01*
X121508580Y42047740D01*
X121491556Y42074985D01*
X121425109Y42181321D01*
X121421376Y42187295D01*
X121363399Y42245678D01*
X121310386Y42299063D01*
X121310382Y42299066D01*
X121305422Y42304061D01*
X121166480Y42392237D01*
X121040392Y42437135D01*
X120982928Y42478829D01*
X120957128Y42544972D01*
X120963963Y42594055D01*
X120963298Y42594226D01*
X120964802Y42600084D01*
X120964871Y42600578D01*
X120965050Y42601049D01*
X120967551Y42607632D01*
X120990453Y42770590D01*
X120990741Y42791200D01*
X120972398Y42954734D01*
X120966598Y42971391D01*
X120920598Y43103483D01*
X120918280Y43110140D01*
X120856446Y43209095D01*
X120837300Y43275865D01*
X120837300Y43548920D01*
X120857302Y43617041D01*
X120874205Y43638015D01*
X121002708Y43766518D01*
X121065020Y43800544D01*
X121072908Y43801756D01*
X121077000Y43802596D01*
X121084024Y43803235D01*
X121114591Y43813167D01*
X121233830Y43851910D01*
X121233833Y43851911D01*
X121240529Y43854087D01*
X121381879Y43938349D01*
X121501049Y44051832D01*
X121504950Y44057703D01*
X121588214Y44183025D01*
X121588215Y44183027D01*
X121592115Y44188897D01*
X121650551Y44342732D01*
X121673453Y44505690D01*
X121673741Y44526300D01*
X121655398Y44689834D01*
X121649598Y44706491D01*
X121616322Y44802046D01*
X121601280Y44845240D01*
X121596974Y44852132D01*
X121517809Y44978821D01*
X121514076Y44984795D01*
X121446345Y45053000D01*
X121403086Y45096563D01*
X121403082Y45096566D01*
X121398122Y45101561D01*
X121259180Y45189737D01*
X121185731Y45215891D01*
X121110789Y45242577D01*
X121110787Y45242578D01*
X121104155Y45244939D01*
X121097169Y45245772D01*
X121097165Y45245773D01*
X120982671Y45259425D01*
X120940753Y45264423D01*
X120933750Y45263687D01*
X120933749Y45263687D01*
X120890535Y45259145D01*
X120777095Y45247222D01*
X120770427Y45244952D01*
X120627982Y45196460D01*
X120627979Y45196459D01*
X120621315Y45194190D01*
X120481155Y45107963D01*
X120469514Y45096563D01*
X120381657Y45010527D01*
X120363582Y44992827D01*
X120274438Y44854503D01*
X120272027Y44847880D01*
X120272026Y44847877D01*
X120220566Y44706491D01*
X120220565Y44706486D01*
X120218156Y44699868D01*
X120214291Y44669273D01*
X120185909Y44604196D01*
X120178380Y44595970D01*
X119872097Y44289687D01*
X119859706Y44278820D01*
X119835587Y44260313D01*
X119801589Y44216005D01*
X119741866Y44138173D01*
X119733809Y44118721D01*
X119682950Y43995937D01*
X119668111Y43883224D01*
X119662855Y43843300D01*
X119663933Y43835112D01*
X119666822Y43813167D01*
X119667900Y43796721D01*
X119667900Y43275132D01*
X119647811Y43206876D01*
X119591438Y43119403D01*
X119589027Y43112778D01*
X119537566Y42971391D01*
X119537565Y42971386D01*
X119535156Y42964768D01*
X119514531Y42801506D01*
X119530589Y42637732D01*
X119582532Y42481585D01*
X119586181Y42475560D01*
X119636644Y42392237D01*
X119667779Y42340827D01*
X119782091Y42222453D01*
X119919789Y42132346D01*
X119926390Y42129891D01*
X119926400Y42129886D01*
X120057386Y42081173D01*
X120114262Y42038681D01*
X120139136Y41972184D01*
X120131867Y41919983D01*
X120125456Y41902368D01*
X120104831Y41739106D01*
X120120889Y41575332D01*
X120137459Y41525519D01*
X120143900Y41485751D01*
X120143900Y36680926D01*
X120123898Y36612805D01*
X120106995Y36591831D01*
X116987456Y33472291D01*
X116964386Y33454070D01*
X116950470Y33445509D01*
X116881970Y33426849D01*
X116814255Y33448186D01*
X116795351Y33463730D01*
X115099770Y35159311D01*
X115087384Y35173723D01*
X115078851Y35185318D01*
X115078846Y35185323D01*
X115074508Y35191218D01*
X115068930Y35195957D01*
X115068927Y35195960D01*
X115034232Y35225435D01*
X115026716Y35232365D01*
X115021021Y35238060D01*
X115014880Y35242918D01*
X114998749Y35255681D01*
X114995345Y35258472D01*
X114945297Y35300991D01*
X114945295Y35300992D01*
X114939715Y35305733D01*
X114933199Y35309061D01*
X114928150Y35312428D01*
X114923021Y35315595D01*
X114917284Y35320134D01*
X114851125Y35351055D01*
X114847225Y35352961D01*
X114782192Y35386169D01*
X114775084Y35387908D01*
X114769441Y35390007D01*
X114763678Y35391924D01*
X114757050Y35395022D01*
X114685583Y35409887D01*
X114681299Y35410857D01*
X114610390Y35428208D01*
X114604788Y35428556D01*
X114604785Y35428556D01*
X114599236Y35428900D01*
X114599238Y35428936D01*
X114595245Y35429175D01*
X114591053Y35429549D01*
X114583885Y35431040D01*
X114517675Y35429249D01*
X114506479Y35428946D01*
X114503072Y35428900D01*
X108191187Y35428900D01*
X108117128Y35452963D01*
X108110698Y35457635D01*
X108110691Y35457639D01*
X108105352Y35461518D01*
X108099326Y35464201D01*
X108099319Y35464205D01*
X108068614Y35477875D01*
X108014518Y35523855D01*
X107993868Y35591782D01*
X108013220Y35660090D01*
X108030767Y35682077D01*
X110883203Y38534513D01*
X110895595Y38545381D01*
X110913163Y38558861D01*
X110919713Y38563887D01*
X110979277Y38641514D01*
X111013434Y38686027D01*
X111072350Y38828263D01*
X111092446Y38980900D01*
X111088478Y39011038D01*
X111087400Y39027485D01*
X111087400Y44552166D01*
X111108451Y44621892D01*
X111159215Y44698297D01*
X111217651Y44852132D01*
X111235456Y44978821D01*
X111240002Y45011166D01*
X111240003Y45011173D01*
X111240553Y45015090D01*
X111240841Y45035700D01*
X111222498Y45199234D01*
X111216698Y45215891D01*
X111187147Y45300747D01*
X111168380Y45354640D01*
X111123188Y45426963D01*
X111084909Y45488221D01*
X111081176Y45494195D01*
X111023199Y45552578D01*
X110970186Y45605963D01*
X110970182Y45605966D01*
X110965222Y45610961D01*
X110826280Y45699137D01*
X110777147Y45716632D01*
X110677889Y45751977D01*
X110677887Y45751978D01*
X110671255Y45754339D01*
X110664269Y45755172D01*
X110664265Y45755173D01*
X110549771Y45768825D01*
X110507853Y45773823D01*
X110500850Y45773087D01*
X110500849Y45773087D01*
X110457635Y45768545D01*
X110344195Y45756622D01*
X110337527Y45754352D01*
X110195082Y45705860D01*
X110195079Y45705859D01*
X110188415Y45703590D01*
X110048255Y45617363D01*
X109930682Y45502227D01*
X109841538Y45363903D01*
X109839127Y45357280D01*
X109839126Y45357277D01*
X109787666Y45215891D01*
X109787665Y45215886D01*
X109785256Y45209268D01*
X109764631Y45046006D01*
X109780689Y44882232D01*
X109832632Y44726085D01*
X109836281Y44720060D01*
X109899776Y44615218D01*
X109918000Y44549946D01*
X109918000Y39275280D01*
X109897998Y39207159D01*
X109881095Y39186185D01*
X106305244Y35610334D01*
X106242932Y35576308D01*
X106172117Y35581373D01*
X106148638Y35593042D01*
X106087980Y35631537D01*
X106007794Y35660090D01*
X105939589Y35684377D01*
X105939587Y35684378D01*
X105932955Y35686739D01*
X105925969Y35687572D01*
X105925965Y35687573D01*
X105811471Y35701225D01*
X105769553Y35706223D01*
X105762550Y35705487D01*
X105762549Y35705487D01*
X105721429Y35701165D01*
X105605895Y35689022D01*
X105592251Y35684377D01*
X105460461Y35639512D01*
X105389528Y35636494D01*
X105328224Y35672304D01*
X105300864Y35717353D01*
X105278320Y35782091D01*
X105259080Y35837340D01*
X105205256Y35923477D01*
X105175609Y35970921D01*
X105171876Y35976895D01*
X105113899Y36035278D01*
X105060886Y36088663D01*
X105060882Y36088666D01*
X105055922Y36093661D01*
X104916980Y36181837D01*
X104791426Y36226545D01*
X104768589Y36234677D01*
X104768587Y36234678D01*
X104761955Y36237039D01*
X104754969Y36237872D01*
X104754965Y36237873D01*
X104637592Y36251868D01*
X104598553Y36256523D01*
X104591550Y36255787D01*
X104591549Y36255787D01*
X104554263Y36251868D01*
X104434895Y36239322D01*
X104428227Y36237052D01*
X104285782Y36188560D01*
X104285779Y36188559D01*
X104279115Y36186290D01*
X104138955Y36100063D01*
X104106447Y36068229D01*
X104050598Y36013537D01*
X104021382Y35984927D01*
X103932238Y35846603D01*
X103908758Y35782091D01*
X103886928Y35722114D01*
X103857623Y35676114D01*
X103493333Y35311823D01*
X103133653Y34952143D01*
X103071340Y34918118D01*
X103057726Y34915928D01*
X103043395Y34914422D01*
X103036727Y34912152D01*
X102894282Y34863660D01*
X102894279Y34863659D01*
X102887615Y34861390D01*
X102747455Y34775163D01*
X102629882Y34660027D01*
X102540738Y34521703D01*
X102538327Y34515080D01*
X102538326Y34515077D01*
X102486866Y34373691D01*
X102486865Y34373686D01*
X102484456Y34367068D01*
X102463831Y34203806D01*
X102465230Y34189538D01*
X102473431Y34105892D01*
X102460171Y34036144D01*
X102411308Y33984638D01*
X102359452Y33968116D01*
X102289103Y33961714D01*
X102171252Y33950989D01*
X102171250Y33950989D01*
X102165112Y33950430D01*
X102159206Y33948692D01*
X102159202Y33948691D01*
X102120516Y33937305D01*
X101975381Y33894590D01*
X101969923Y33891737D01*
X101969919Y33891735D01*
X101901751Y33856097D01*
X101800110Y33802960D01*
X101645975Y33679032D01*
X101518846Y33527526D01*
X101515879Y33522128D01*
X101515875Y33522123D01*
X101455010Y33411408D01*
X101423567Y33354213D01*
X101421706Y33348346D01*
X101421705Y33348344D01*
X101377451Y33208839D01*
X101363765Y33165694D01*
X101346500Y33011773D01*
X101346500Y31805231D01*
X101346800Y31802175D01*
X101346800Y31802168D01*
X101350506Y31764377D01*
X101360920Y31658167D01*
X101362702Y31652266D01*
X101362702Y31652264D01*
X101375837Y31608760D01*
X101418084Y31468831D01*
X101510934Y31294204D01*
X101565353Y31227480D01*
X101632040Y31145713D01*
X101632043Y31145710D01*
X101635935Y31140938D01*
X101640682Y31137011D01*
X101640684Y31137009D01*
X101681851Y31102953D01*
X101719872Y31071500D01*
X101724615Y31067576D01*
X101764353Y31008742D01*
X101770300Y30970491D01*
X101770300Y29409361D01*
X101750298Y29341240D01*
X101723253Y29311165D01*
X101645975Y29249032D01*
X101518846Y29097526D01*
X101515879Y29092128D01*
X101515875Y29092123D01*
X101424723Y28926316D01*
X101374378Y28876258D01*
X101304961Y28861364D01*
X101238511Y28886365D01*
X101225213Y28897922D01*
X98813205Y31309930D01*
X98779179Y31372242D01*
X98776300Y31399025D01*
X98776300Y33343287D01*
X98796302Y33411408D01*
X98849958Y33457901D01*
X98918964Y33468180D01*
X98952318Y33463730D01*
X99013842Y33455521D01*
X99020853Y33456159D01*
X99020857Y33456159D01*
X99170703Y33469796D01*
X99170704Y33469796D01*
X99177724Y33470435D01*
X99206343Y33479734D01*
X99327530Y33519110D01*
X99327533Y33519111D01*
X99334229Y33521287D01*
X99475579Y33605549D01*
X99594749Y33719032D01*
X99613763Y33747650D01*
X99681914Y33850225D01*
X99681915Y33850227D01*
X99685815Y33856097D01*
X99744251Y34009932D01*
X99757737Y34105892D01*
X99766602Y34168966D01*
X99766603Y34168973D01*
X99767153Y34172890D01*
X99767345Y34186609D01*
X99767386Y34189538D01*
X99767386Y34189544D01*
X99767441Y34193500D01*
X99749098Y34357034D01*
X99743298Y34373691D01*
X99697298Y34505783D01*
X99694980Y34512440D01*
X99633146Y34611395D01*
X99614000Y34678165D01*
X99614000Y41247420D01*
X99634002Y41315541D01*
X99650905Y41336515D01*
X113951508Y55637118D01*
X114013820Y55671144D01*
X114021708Y55672356D01*
X114025800Y55673196D01*
X114032824Y55673835D01*
X114055855Y55681318D01*
X114182630Y55722510D01*
X114182633Y55722511D01*
X114189329Y55724687D01*
X114330679Y55808949D01*
X114449849Y55922432D01*
X114540915Y56059497D01*
X114599351Y56213332D01*
X114612697Y56308296D01*
X114621702Y56372366D01*
X114621703Y56372373D01*
X114622253Y56376290D01*
X114622541Y56396900D01*
X114604198Y56560434D01*
X114550080Y56715840D01*
X114535205Y56739646D01*
X114466609Y56849421D01*
X114462876Y56855395D01*
X114365540Y56953413D01*
X114351886Y56967163D01*
X114351882Y56967166D01*
X114346922Y56972161D01*
X114207980Y57060337D01*
X114127808Y57088885D01*
X114059589Y57113177D01*
X114059587Y57113178D01*
X114052955Y57115539D01*
X114045967Y57116372D01*
X114045964Y57116373D01*
X113955268Y57127187D01*
X113906927Y57132951D01*
X113841654Y57160878D01*
X113801841Y57219661D01*
X113800129Y57290637D01*
X113832751Y57347160D01*
X113951509Y57465918D01*
X114013821Y57499944D01*
X114021710Y57501156D01*
X114025803Y57501996D01*
X114032824Y57502635D01*
X114055855Y57510118D01*
X114182630Y57551310D01*
X114182633Y57551311D01*
X114189329Y57553487D01*
X114330679Y57637749D01*
X114449849Y57751232D01*
X114491669Y57814176D01*
X114537014Y57882425D01*
X114537018Y57882432D01*
X114540915Y57888297D01*
X114599351Y58042132D01*
X114622253Y58205090D01*
X114622541Y58225700D01*
X114604198Y58389234D01*
X114550080Y58544640D01*
X114501368Y58622596D01*
X114466609Y58678221D01*
X114462876Y58684195D01*
X114389238Y58758349D01*
X114351886Y58795963D01*
X114351882Y58795966D01*
X114346922Y58800961D01*
X114207980Y58889137D01*
X114138185Y58913990D01*
X114059589Y58941977D01*
X114059587Y58941978D01*
X114052955Y58944339D01*
X114045969Y58945172D01*
X114045965Y58945173D01*
X113931471Y58958825D01*
X113889553Y58963823D01*
X113882550Y58963087D01*
X113882549Y58963087D01*
X113839335Y58958545D01*
X113725895Y58946622D01*
X113719227Y58944352D01*
X113576782Y58895860D01*
X113576779Y58895859D01*
X113570115Y58893590D01*
X113534748Y58871832D01*
X113449718Y58819521D01*
X113429955Y58807363D01*
X113312382Y58692227D01*
X113223238Y58553903D01*
X113220827Y58547280D01*
X113220826Y58547277D01*
X113179202Y58432915D01*
X113166956Y58399268D01*
X113166073Y58392278D01*
X113166072Y58392274D01*
X113163091Y58368674D01*
X113134709Y58303597D01*
X113127180Y58295371D01*
X93690797Y38858987D01*
X93678406Y38848120D01*
X93654287Y38829613D01*
X93594723Y38751986D01*
X93560566Y38707473D01*
X93557406Y38699843D01*
X93557405Y38699842D01*
X93551682Y38686026D01*
X93504811Y38572870D01*
X93504810Y38572865D01*
X93501650Y38565237D01*
X93488685Y38466757D01*
X93481555Y38412600D01*
X93482633Y38404412D01*
X93485522Y38382467D01*
X93486600Y38366021D01*
X93486600Y32155332D01*
X93466511Y32087076D01*
X93410138Y31999603D01*
X93407727Y31992978D01*
X93356266Y31851591D01*
X93356265Y31851586D01*
X93353856Y31844968D01*
X93333231Y31681706D01*
X88736185Y31681706D01*
X88677431Y31740460D01*
X88643405Y31802772D01*
X88641312Y31815506D01*
X88639885Y31828229D01*
X88639883Y31828240D01*
X88639098Y31835234D01*
X88633298Y31851891D01*
X88596159Y31958539D01*
X88584980Y31990640D01*
X88579380Y31999603D01*
X88501509Y32124221D01*
X88497776Y32130195D01*
X88421447Y32207059D01*
X88386786Y32241963D01*
X88386782Y32241966D01*
X88381822Y32246961D01*
X88242880Y32335137D01*
X88119550Y32379053D01*
X88094489Y32387977D01*
X88094487Y32387978D01*
X88087855Y32390339D01*
X88080869Y32391172D01*
X88080865Y32391173D01*
X87966371Y32404825D01*
X87924453Y32409823D01*
X87917450Y32409087D01*
X87917449Y32409087D01*
X87874235Y32404545D01*
X87760795Y32392622D01*
X87754127Y32390352D01*
X87611682Y32341860D01*
X87611679Y32341859D01*
X87605015Y32339590D01*
X87464855Y32253363D01*
X87453214Y32241963D01*
X87365498Y32156065D01*
X87347282Y32138227D01*
X87258138Y31999903D01*
X87255727Y31993280D01*
X87255726Y31993277D01*
X87204266Y31851891D01*
X87204265Y31851886D01*
X87201856Y31845268D01*
X87181231Y31682006D01*
X83258000Y31682006D01*
X83258000Y51964106D01*
X89555631Y51964106D01*
X89571689Y51800332D01*
X89588259Y51750519D01*
X89594700Y51710751D01*
X89594700Y43344799D01*
X89594408Y43336229D01*
X89590530Y43279348D01*
X89591835Y43271872D01*
X89591835Y43271868D01*
X89601363Y43217276D01*
X89602326Y43210751D01*
X89602527Y43209095D01*
X89609891Y43148240D01*
X89612575Y43141138D01*
X89613419Y43137700D01*
X89617283Y43123577D01*
X89618313Y43120166D01*
X89619619Y43112683D01*
X89622672Y43105728D01*
X89644939Y43055002D01*
X89647430Y43048896D01*
X89669694Y42989978D01*
X89673993Y42983723D01*
X89675635Y42980582D01*
X89682733Y42967828D01*
X89684570Y42964722D01*
X89687623Y42957767D01*
X89692248Y42951740D01*
X89692250Y42951736D01*
X89725965Y42907798D01*
X89729829Y42902480D01*
X89765521Y42850548D01*
X89771191Y42845496D01*
X89771192Y42845495D01*
X89811388Y42809682D01*
X89816664Y42804701D01*
X91810341Y40811024D01*
X91829022Y40787201D01*
X91886683Y40691993D01*
X91892779Y40681927D01*
X91897670Y40676862D01*
X91897671Y40676861D01*
X91937491Y40635626D01*
X92007091Y40563553D01*
X92144789Y40473446D01*
X92299028Y40416085D01*
X92306009Y40415154D01*
X92306011Y40415153D01*
X92455161Y40395252D01*
X92455165Y40395252D01*
X92462142Y40394321D01*
X92469153Y40394959D01*
X92469157Y40394959D01*
X92619003Y40408596D01*
X92619004Y40408596D01*
X92626024Y40409235D01*
X92654662Y40418540D01*
X92775830Y40457910D01*
X92775833Y40457911D01*
X92782529Y40460087D01*
X92923879Y40544349D01*
X93043049Y40657832D01*
X93046950Y40663703D01*
X93130214Y40789025D01*
X93130215Y40789027D01*
X93134115Y40794897D01*
X93192551Y40948732D01*
X93215453Y41111690D01*
X93215741Y41132300D01*
X93197398Y41295834D01*
X93143280Y41451240D01*
X93056076Y41590795D01*
X92953155Y41694437D01*
X92945085Y41702564D01*
X92945081Y41702567D01*
X92940122Y41707561D01*
X92817074Y41785650D01*
X92795498Y41802937D01*
X91029605Y43568830D01*
X90995579Y43631142D01*
X90992700Y43657925D01*
X90992700Y51705116D01*
X91000912Y51749857D01*
X91008651Y51770232D01*
X91031553Y51933190D01*
X91031841Y51953800D01*
X91013498Y52117334D01*
X91007698Y52133991D01*
X90961698Y52266083D01*
X90959380Y52272740D01*
X90872176Y52412295D01*
X90814199Y52470678D01*
X90761186Y52524063D01*
X90761182Y52524066D01*
X90756222Y52529061D01*
X90617280Y52617237D01*
X90568147Y52634732D01*
X90468889Y52670077D01*
X90468887Y52670078D01*
X90462255Y52672439D01*
X90455269Y52673272D01*
X90455265Y52673273D01*
X90340771Y52686925D01*
X90298853Y52691923D01*
X90291850Y52691187D01*
X90291849Y52691187D01*
X90248635Y52686645D01*
X90135195Y52674722D01*
X90128527Y52672452D01*
X89986082Y52623960D01*
X89986079Y52623959D01*
X89979415Y52621690D01*
X89839255Y52535463D01*
X89721682Y52420327D01*
X89632538Y52282003D01*
X89630127Y52275380D01*
X89630126Y52275377D01*
X89578666Y52133991D01*
X89578665Y52133986D01*
X89576256Y52127368D01*
X89555631Y51964106D01*
X83258000Y51964106D01*
X83258000Y60922306D01*
X113181831Y60922306D01*
X113197889Y60758532D01*
X113249832Y60602385D01*
X113335079Y60461627D01*
X113339970Y60456562D01*
X113339971Y60456561D01*
X113366652Y60428932D01*
X113449391Y60343253D01*
X113587089Y60253146D01*
X113741328Y60195785D01*
X113771348Y60191780D01*
X113777407Y60190971D01*
X113842284Y60162135D01*
X113849837Y60155173D01*
X116545354Y57459655D01*
X116579380Y57397343D01*
X116574315Y57326527D01*
X116562175Y57302312D01*
X116555338Y57291703D01*
X116552927Y57285080D01*
X116552926Y57285077D01*
X116501466Y57143691D01*
X116501465Y57143686D01*
X116499056Y57137068D01*
X116498173Y57130076D01*
X116495191Y57106473D01*
X116466809Y57041396D01*
X116459280Y57033170D01*
X114312601Y54886491D01*
X114250289Y54852465D01*
X114208589Y54850472D01*
X114167348Y54855389D01*
X114167347Y54855389D01*
X114160353Y54856223D01*
X114153350Y54855487D01*
X114153349Y54855487D01*
X114110135Y54850945D01*
X113996695Y54839022D01*
X113990027Y54836752D01*
X113847582Y54788260D01*
X113847579Y54788259D01*
X113840915Y54785990D01*
X113700755Y54699763D01*
X113695722Y54694834D01*
X113591372Y54592647D01*
X113583182Y54584627D01*
X113494038Y54446303D01*
X113491627Y54439680D01*
X113491626Y54439677D01*
X113440166Y54298291D01*
X113440165Y54298286D01*
X113437756Y54291668D01*
X113417131Y54128406D01*
X113433189Y53964632D01*
X113485132Y53808485D01*
X113570379Y53667727D01*
X113684691Y53549353D01*
X113822389Y53459246D01*
X113976628Y53401885D01*
X113983609Y53400954D01*
X113983611Y53400953D01*
X114132761Y53381052D01*
X114132765Y53381052D01*
X114139742Y53380121D01*
X114146753Y53380759D01*
X114146757Y53380759D01*
X114296603Y53394396D01*
X114296604Y53394396D01*
X114303624Y53395035D01*
X114332262Y53404340D01*
X114453430Y53443710D01*
X114453433Y53443711D01*
X114460129Y53445887D01*
X114601479Y53530149D01*
X114720649Y53643632D01*
X114723587Y53648054D01*
X114742118Y53665795D01*
X114788113Y53701087D01*
X114793139Y53707637D01*
X114793143Y53707641D01*
X114806623Y53725209D01*
X114817491Y53737601D01*
X117283608Y56203718D01*
X117345920Y56237744D01*
X117353808Y56238956D01*
X117357900Y56239796D01*
X117364924Y56240435D01*
X117387955Y56247918D01*
X117514730Y56289110D01*
X117514733Y56289111D01*
X117521429Y56291287D01*
X117527480Y56294894D01*
X117557653Y56312880D01*
X117626408Y56330579D01*
X117693817Y56308296D01*
X117711264Y56293745D01*
X118384821Y55620188D01*
X118418847Y55557876D01*
X118413782Y55487061D01*
X118371235Y55430225D01*
X118304715Y55405414D01*
X118245788Y55416820D01*
X118245580Y55416237D01*
X118206297Y55430225D01*
X118097189Y55469077D01*
X118097187Y55469078D01*
X118090555Y55471439D01*
X118083569Y55472272D01*
X118083565Y55472273D01*
X117969071Y55485925D01*
X117927153Y55490923D01*
X117920150Y55490187D01*
X117920149Y55490187D01*
X117890408Y55487061D01*
X117763495Y55473722D01*
X117756827Y55471452D01*
X117614382Y55422960D01*
X117614379Y55422959D01*
X117607715Y55420690D01*
X117467555Y55334463D01*
X117349982Y55219327D01*
X117260838Y55081003D01*
X117258427Y55074380D01*
X117258426Y55074377D01*
X117206966Y54932991D01*
X117206965Y54932986D01*
X117204556Y54926368D01*
X117183931Y54763106D01*
X117199989Y54599332D01*
X117251932Y54443185D01*
X117337179Y54302427D01*
X117451491Y54184053D01*
X117589189Y54093946D01*
X117743428Y54036585D01*
X117750409Y54035654D01*
X117750411Y54035653D01*
X117899561Y54015752D01*
X117899565Y54015752D01*
X117906542Y54014821D01*
X117913553Y54015459D01*
X117913557Y54015459D01*
X118063403Y54029096D01*
X118063404Y54029096D01*
X118070424Y54029735D01*
X118099062Y54039040D01*
X118220230Y54078410D01*
X118220233Y54078411D01*
X118226929Y54080587D01*
X118343921Y54150329D01*
X118408440Y54168100D01*
X119518322Y54168100D01*
X119534769Y54167022D01*
X119564900Y54163055D01*
X119603219Y54168100D01*
X119603224Y54168100D01*
X119709349Y54182072D01*
X119717537Y54183150D01*
X119818113Y54224810D01*
X119859773Y54242066D01*
X119866327Y54247095D01*
X119873475Y54251222D01*
X119874124Y54250099D01*
X119932520Y54272672D01*
X120002068Y54258406D01*
X120052863Y54208803D01*
X120069000Y54147109D01*
X120069000Y49908481D01*
X120048998Y49840360D01*
X120032095Y49819386D01*
X116432253Y46219543D01*
X116369941Y46185517D01*
X116356326Y46183328D01*
X116355664Y46183259D01*
X116349002Y46182559D01*
X116348997Y46182558D01*
X116341995Y46181822D01*
X116335327Y46179552D01*
X116192882Y46131060D01*
X116192879Y46131059D01*
X116186215Y46128790D01*
X116046055Y46042563D01*
X115928482Y45927427D01*
X115839338Y45789103D01*
X115836927Y45782480D01*
X115836926Y45782477D01*
X115785466Y45641091D01*
X115785465Y45641086D01*
X115783056Y45634468D01*
X115762431Y45471206D01*
X115778489Y45307432D01*
X115830432Y45151285D01*
X115834081Y45145260D01*
X115910517Y45019051D01*
X115915679Y45010527D01*
X115920570Y45005462D01*
X115920571Y45005461D01*
X115938491Y44986904D01*
X116029991Y44892153D01*
X116167689Y44802046D01*
X116174293Y44799590D01*
X116321928Y44744685D01*
X116321039Y44742294D01*
X116372131Y44712367D01*
X116399953Y44665764D01*
X116439432Y44547085D01*
X116443081Y44541060D01*
X116482576Y44475846D01*
X116500800Y44410574D01*
X116500800Y38943532D01*
X116480711Y38875276D01*
X116424338Y38787803D01*
X116421927Y38781178D01*
X116370466Y38639791D01*
X116370465Y38639786D01*
X116368056Y38633168D01*
X116347431Y38469906D01*
X116363489Y38306132D01*
X116415432Y38149985D01*
X116500679Y38009227D01*
X116614991Y37890853D01*
X116752689Y37800746D01*
X116906928Y37743385D01*
X116913909Y37742454D01*
X116913911Y37742453D01*
X117063061Y37722552D01*
X117063065Y37722552D01*
X117070042Y37721621D01*
X117077053Y37722259D01*
X117077057Y37722259D01*
X117226903Y37735896D01*
X117226904Y37735896D01*
X117233924Y37736535D01*
X117262562Y37745840D01*
X117383730Y37785210D01*
X117383733Y37785211D01*
X117390429Y37787387D01*
X117531779Y37871649D01*
X117650949Y37985132D01*
X117666958Y38009227D01*
X117738114Y38116325D01*
X117738115Y38116327D01*
X117742015Y38122197D01*
X117800451Y38276032D01*
X117814259Y38374279D01*
X117822802Y38435066D01*
X117822803Y38435073D01*
X117823353Y38438990D01*
X117823641Y38459600D01*
X117805298Y38623134D01*
X117799498Y38639791D01*
X117753498Y38771883D01*
X117751180Y38778540D01*
X117689346Y38877495D01*
X117670200Y38944265D01*
X117670200Y44337043D01*
X117691252Y44406770D01*
X117762114Y44513425D01*
X117762115Y44513427D01*
X117766015Y44519297D01*
X117824451Y44673132D01*
X117834507Y44744685D01*
X117846802Y44832166D01*
X117846803Y44832173D01*
X117847353Y44836090D01*
X117847518Y44847877D01*
X117847586Y44852738D01*
X117847586Y44852744D01*
X117847641Y44856700D01*
X117829298Y45020234D01*
X117822766Y45038993D01*
X117777498Y45168983D01*
X117775180Y45175640D01*
X117768732Y45185960D01*
X117691709Y45309221D01*
X117687976Y45315195D01*
X117629999Y45373578D01*
X117576986Y45426963D01*
X117576982Y45426966D01*
X117572022Y45431961D01*
X117566074Y45435736D01*
X117537451Y45453901D01*
X117490653Y45507291D01*
X117480148Y45577506D01*
X117509273Y45642254D01*
X117515871Y45649381D01*
X121034207Y49167716D01*
X121046599Y49178584D01*
X121064160Y49192059D01*
X121070713Y49197087D01*
X121094243Y49227752D01*
X121164434Y49319227D01*
X121223350Y49461463D01*
X121243446Y49614100D01*
X121239478Y49644238D01*
X121238400Y49660685D01*
X121238400Y56694566D01*
X121259451Y56764292D01*
X121310215Y56840697D01*
X121368651Y56994532D01*
X121384383Y57106473D01*
X121391002Y57153566D01*
X121391003Y57153573D01*
X121391553Y57157490D01*
X121391841Y57178100D01*
X121373498Y57341634D01*
X121319380Y57497040D01*
X121232176Y57636595D01*
X121136812Y57732627D01*
X121121186Y57748363D01*
X121121182Y57748366D01*
X121116222Y57753361D01*
X120977280Y57841537D01*
X120928147Y57859032D01*
X120828889Y57894377D01*
X120828887Y57894378D01*
X120822255Y57896739D01*
X120815267Y57897572D01*
X120815264Y57897573D01*
X120738683Y57906704D01*
X120673081Y57914526D01*
X120607808Y57942453D01*
X120567995Y58001236D01*
X120562000Y58039640D01*
X120562000Y58734622D01*
X120563078Y58751069D01*
X120565967Y58773012D01*
X120567045Y58781200D01*
X120562000Y58819521D01*
X120557697Y58852206D01*
X120557845Y58886182D01*
X120561753Y58913990D01*
X120562041Y58934600D01*
X120543698Y59098134D01*
X120489580Y59253540D01*
X120476544Y59274403D01*
X120406109Y59387121D01*
X120402376Y59393095D01*
X120329079Y59466905D01*
X120291386Y59504863D01*
X120291382Y59504866D01*
X120286422Y59509861D01*
X120147480Y59598037D01*
X120021847Y59642773D01*
X119999089Y59650877D01*
X119999087Y59650878D01*
X119992455Y59653239D01*
X119985465Y59654072D01*
X119978599Y59655683D01*
X119979127Y59657935D01*
X119923920Y59681547D01*
X119884100Y59740325D01*
X119878100Y59778743D01*
X119878100Y60592706D01*
X128865831Y60592706D01*
X128881889Y60428932D01*
X128933832Y60272785D01*
X128937481Y60266760D01*
X128986797Y60185331D01*
X129019079Y60132027D01*
X129133391Y60013653D01*
X129271089Y59923546D01*
X129425328Y59866185D01*
X129432309Y59865254D01*
X129432311Y59865253D01*
X129581461Y59845352D01*
X129581465Y59845352D01*
X129588442Y59844421D01*
X129595453Y59845059D01*
X129595457Y59845059D01*
X129745303Y59858696D01*
X129745304Y59858696D01*
X129752324Y59859335D01*
X129862683Y59895193D01*
X129902130Y59908010D01*
X129902133Y59908011D01*
X129908829Y59910187D01*
X130050179Y59994449D01*
X130051605Y59992057D01*
X130106176Y60012825D01*
X130175649Y59998196D01*
X130226184Y59948328D01*
X130242000Y59887209D01*
X130242000Y41008702D01*
X130241998Y41007932D01*
X130241524Y40930348D01*
X130243990Y40921719D01*
X130243991Y40921714D01*
X130249639Y40901952D01*
X130253217Y40885191D01*
X130256130Y40864848D01*
X130256133Y40864838D01*
X130257405Y40855955D01*
X130268021Y40832605D01*
X130274464Y40815093D01*
X130281512Y40790435D01*
X130297274Y40765452D01*
X130305404Y40750386D01*
X130317633Y40723490D01*
X130334374Y40704061D01*
X130345479Y40689053D01*
X130359160Y40667369D01*
X130369959Y40657832D01*
X130381296Y40647819D01*
X130393340Y40635627D01*
X130412619Y40613253D01*
X130420147Y40608374D01*
X130420150Y40608371D01*
X130434139Y40599304D01*
X130449013Y40588014D01*
X130468228Y40571044D01*
X130476354Y40567229D01*
X130476355Y40567228D01*
X130482021Y40564568D01*
X130494966Y40558490D01*
X130509935Y40550176D01*
X130534727Y40534107D01*
X130551650Y40529046D01*
X130559290Y40526761D01*
X130576736Y40520099D01*
X130599948Y40509201D01*
X130629130Y40504657D01*
X130645849Y40500874D01*
X130665536Y40494986D01*
X130665539Y40494985D01*
X130674141Y40492413D01*
X130683116Y40492358D01*
X130683117Y40492358D01*
X130689810Y40492317D01*
X130708556Y40492203D01*
X130709328Y40492170D01*
X130710423Y40492000D01*
X130741298Y40492000D01*
X130742068Y40491998D01*
X130815716Y40491548D01*
X130815717Y40491548D01*
X130819652Y40491524D01*
X130820996Y40491908D01*
X130822341Y40492000D01*
X134741298Y40492000D01*
X134742069Y40491998D01*
X134819652Y40491524D01*
X134828281Y40493990D01*
X134828286Y40493991D01*
X134848048Y40499639D01*
X134864809Y40503217D01*
X134885152Y40506130D01*
X134885162Y40506133D01*
X134894045Y40507405D01*
X134917395Y40518021D01*
X134934907Y40524464D01*
X134950937Y40529046D01*
X134959565Y40531512D01*
X134984548Y40547274D01*
X134999614Y40555404D01*
X135026510Y40567633D01*
X135045939Y40584374D01*
X135060947Y40595479D01*
X135075039Y40604370D01*
X135082631Y40609160D01*
X135102182Y40631297D01*
X135114374Y40643341D01*
X135129949Y40656761D01*
X135129950Y40656763D01*
X135136747Y40662619D01*
X135141626Y40670147D01*
X135141629Y40670150D01*
X135150696Y40684139D01*
X135161986Y40699013D01*
X135173012Y40711498D01*
X135178956Y40718228D01*
X135191510Y40744966D01*
X135199824Y40759935D01*
X135215893Y40784727D01*
X135223239Y40809291D01*
X135229901Y40826736D01*
X135236983Y40841821D01*
X135240799Y40849948D01*
X135245343Y40879130D01*
X135249126Y40895849D01*
X135255014Y40915536D01*
X135255015Y40915539D01*
X135257587Y40924141D01*
X135257797Y40958556D01*
X135257830Y40959328D01*
X135258000Y40960423D01*
X135258000Y40991298D01*
X135258002Y40992068D01*
X135258452Y41065716D01*
X135258452Y41065717D01*
X135258476Y41069652D01*
X135258092Y41070996D01*
X135258000Y41072341D01*
X135258000Y60734175D01*
X135278002Y60802296D01*
X135331658Y60848789D01*
X135401932Y60858893D01*
X135466512Y60829399D01*
X135473095Y60823270D01*
X137117769Y59178596D01*
X137148233Y59129272D01*
X137179032Y59036685D01*
X137221655Y58966306D01*
X137255705Y58910085D01*
X137264279Y58895927D01*
X137378591Y58777553D01*
X137516289Y58687446D01*
X137670528Y58630085D01*
X137677509Y58629154D01*
X137677511Y58629153D01*
X137826661Y58609252D01*
X137826665Y58609252D01*
X137833642Y58608321D01*
X137840653Y58608959D01*
X137840657Y58608959D01*
X137990503Y58622596D01*
X137990504Y58622596D01*
X137997524Y58623235D01*
X138026162Y58632540D01*
X138147330Y58671910D01*
X138147333Y58671911D01*
X138154029Y58674087D01*
X138295379Y58758349D01*
X138414549Y58871832D01*
X138423537Y58885360D01*
X138501714Y59003025D01*
X138501715Y59003027D01*
X138505615Y59008897D01*
X138564051Y59162732D01*
X138579745Y59274403D01*
X138586402Y59321766D01*
X138586403Y59321773D01*
X138586953Y59325690D01*
X138587241Y59346300D01*
X138568898Y59509834D01*
X138514780Y59665240D01*
X138511046Y59671216D01*
X138511044Y59671220D01*
X138509614Y59673509D01*
X138501099Y59689623D01*
X138497862Y59696996D01*
X138495367Y59703110D01*
X138475792Y59754914D01*
X138475792Y59754915D01*
X138473106Y59762022D01*
X138468800Y59768288D01*
X138467150Y59771443D01*
X138460031Y59784235D01*
X138458231Y59787279D01*
X138455178Y59794233D01*
X138450552Y59800262D01*
X138416840Y59844196D01*
X138412962Y59849533D01*
X138381581Y59895193D01*
X138381579Y59895195D01*
X138377279Y59901452D01*
X138369919Y59908010D01*
X138331412Y59942318D01*
X138326136Y59947299D01*
X135450697Y62822738D01*
X135444843Y62829004D01*
X135412352Y62866249D01*
X135407358Y62871974D01*
X135355822Y62908194D01*
X135350526Y62912127D01*
X135306937Y62946306D01*
X135306934Y62946308D01*
X135300960Y62950992D01*
X135294036Y62954118D01*
X135291001Y62955956D01*
X135278302Y62963200D01*
X135275154Y62964888D01*
X135268939Y62969256D01*
X135210250Y62992138D01*
X135204205Y62994678D01*
X135146765Y63020613D01*
X135139292Y63021998D01*
X135135874Y63023069D01*
X135121885Y63027054D01*
X135118393Y63027951D01*
X135111311Y63030712D01*
X135103778Y63031704D01*
X135103777Y63031704D01*
X135048870Y63038933D01*
X135042357Y63039965D01*
X134987882Y63050061D01*
X134987880Y63050061D01*
X134980413Y63051445D01*
X134972833Y63051008D01*
X134972832Y63051008D01*
X134919088Y63047909D01*
X134911835Y63047700D01*
X130584289Y63047700D01*
X130575719Y63047992D01*
X130526424Y63051353D01*
X130526420Y63051353D01*
X130518848Y63051869D01*
X130511371Y63050564D01*
X130511370Y63050564D01*
X130484080Y63045801D01*
X130456785Y63041037D01*
X130450268Y63040076D01*
X130440826Y63038933D01*
X130395282Y63033422D01*
X130395279Y63033421D01*
X130387740Y63032509D01*
X130380631Y63029823D01*
X130377188Y63028977D01*
X130363063Y63025114D01*
X130359658Y63024086D01*
X130352182Y63022781D01*
X130294510Y62997465D01*
X130288415Y62994977D01*
X130236580Y62975390D01*
X130236578Y62975389D01*
X130229478Y62972706D01*
X130223226Y62968409D01*
X130220083Y62966766D01*
X130207335Y62959671D01*
X130204223Y62957830D01*
X130197267Y62954777D01*
X130191239Y62950151D01*
X130191238Y62950151D01*
X130147302Y62916438D01*
X130141975Y62912567D01*
X130090048Y62876879D01*
X130084996Y62871209D01*
X130084995Y62871208D01*
X130049198Y62831030D01*
X130044218Y62825754D01*
X129129855Y61911390D01*
X129123588Y61905536D01*
X129080626Y61868058D01*
X129076259Y61861844D01*
X129044406Y61816522D01*
X129040473Y61811226D01*
X129006294Y61767637D01*
X129006292Y61767634D01*
X129001608Y61761660D01*
X128998482Y61754736D01*
X128996644Y61751701D01*
X128989400Y61739002D01*
X128987712Y61735854D01*
X128983344Y61729639D01*
X128980584Y61722560D01*
X128960467Y61670961D01*
X128957922Y61664905D01*
X128931987Y61607465D01*
X128930602Y61599992D01*
X128929531Y61596574D01*
X128925546Y61582585D01*
X128924649Y61579093D01*
X128921888Y61572011D01*
X128920896Y61564478D01*
X128920896Y61564477D01*
X128913667Y61509570D01*
X128912635Y61503057D01*
X128902539Y61448582D01*
X128901155Y61441113D01*
X128901592Y61433533D01*
X128901592Y61433532D01*
X128904691Y61379788D01*
X128904900Y61372535D01*
X128904900Y60828859D01*
X128897303Y60785770D01*
X128886456Y60755968D01*
X128865831Y60592706D01*
X119878100Y60592706D01*
X119878100Y60603966D01*
X119899151Y60673692D01*
X119949915Y60750097D01*
X120008351Y60903932D01*
X120019148Y60980759D01*
X120030702Y61062966D01*
X120030703Y61062973D01*
X120031253Y61066890D01*
X120031541Y61087500D01*
X120013198Y61251034D01*
X119959080Y61406440D01*
X119871876Y61545995D01*
X119813899Y61604378D01*
X119760886Y61657763D01*
X119760882Y61657766D01*
X119755922Y61662761D01*
X119616980Y61750937D01*
X119480479Y61799543D01*
X119423015Y61841237D01*
X119403758Y61876798D01*
X119350080Y62030940D01*
X119262876Y62170495D01*
X119204899Y62228878D01*
X119151886Y62282263D01*
X119151882Y62282266D01*
X119146922Y62287261D01*
X119007980Y62375437D01*
X118958847Y62392932D01*
X118859589Y62428277D01*
X118859587Y62428278D01*
X118852955Y62430639D01*
X118845969Y62431472D01*
X118845965Y62431473D01*
X118731471Y62445125D01*
X118689553Y62450123D01*
X118682550Y62449387D01*
X118682549Y62449387D01*
X118639335Y62444845D01*
X118525895Y62432922D01*
X118519227Y62430652D01*
X118376782Y62382160D01*
X118376779Y62382159D01*
X118370115Y62379890D01*
X118229955Y62293663D01*
X118112382Y62178527D01*
X118023238Y62040203D01*
X118020827Y62033580D01*
X118020826Y62033577D01*
X117969366Y61892191D01*
X117969365Y61892186D01*
X117966956Y61885568D01*
X117946331Y61722306D01*
X117962389Y61558532D01*
X118014332Y61402385D01*
X118037264Y61364521D01*
X118081476Y61291518D01*
X118099700Y61226246D01*
X118099700Y60915182D01*
X118079698Y60847061D01*
X118062796Y60826087D01*
X117738353Y60501643D01*
X117676040Y60467618D01*
X117662426Y60465428D01*
X117648095Y60463922D01*
X117641427Y60461652D01*
X117498982Y60413160D01*
X117498979Y60413159D01*
X117492315Y60410890D01*
X117395458Y60351303D01*
X117376102Y60339395D01*
X117352155Y60324663D01*
X117234582Y60209527D01*
X117145438Y60071203D01*
X117143027Y60064580D01*
X117143026Y60064577D01*
X117091566Y59923191D01*
X117091565Y59923186D01*
X117089156Y59916568D01*
X117068531Y59753306D01*
X117084589Y59589532D01*
X117136532Y59433385D01*
X117145578Y59418448D01*
X117204132Y59321766D01*
X117221779Y59292627D01*
X117336091Y59174253D01*
X117473789Y59084146D01*
X117628028Y59026785D01*
X117635009Y59025854D01*
X117635011Y59025853D01*
X117784161Y59005952D01*
X117784165Y59005952D01*
X117791142Y59005021D01*
X117798153Y59005659D01*
X117798157Y59005659D01*
X117948003Y59019296D01*
X117948004Y59019296D01*
X117955024Y59019935D01*
X118027140Y59043367D01*
X118104830Y59068610D01*
X118104833Y59068611D01*
X118111529Y59070787D01*
X118252879Y59155049D01*
X118372049Y59268532D01*
X118388058Y59292627D01*
X118459214Y59399725D01*
X118459215Y59399727D01*
X118463115Y59405597D01*
X118465618Y59412186D01*
X118468836Y59418448D01*
X118470442Y59417622D01*
X118507798Y59466905D01*
X118574466Y59491316D01*
X118643748Y59475808D01*
X118693648Y59425305D01*
X118708700Y59365585D01*
X118708700Y57882432D01*
X118688611Y57814176D01*
X118632238Y57726703D01*
X118629827Y57720078D01*
X118578366Y57578691D01*
X118578365Y57578686D01*
X118575956Y57572068D01*
X118555331Y57408806D01*
X118555781Y57404217D01*
X118535110Y57337304D01*
X118480808Y57291567D01*
X118410399Y57282449D01*
X118346238Y57312844D01*
X118340982Y57317808D01*
X114678031Y60980759D01*
X114644005Y61043071D01*
X114641912Y61055806D01*
X114640485Y61068528D01*
X114640483Y61068538D01*
X114639698Y61075534D01*
X114633898Y61092191D01*
X114587898Y61224283D01*
X114585580Y61230940D01*
X114577398Y61244035D01*
X114502109Y61364521D01*
X114498376Y61370495D01*
X114420832Y61448582D01*
X114387386Y61482263D01*
X114387382Y61482266D01*
X114382422Y61487261D01*
X114243480Y61575437D01*
X114194347Y61592932D01*
X114095089Y61628277D01*
X114095087Y61628278D01*
X114088455Y61630639D01*
X114081469Y61631472D01*
X114081465Y61631473D01*
X113966971Y61645125D01*
X113925053Y61650123D01*
X113918050Y61649387D01*
X113918049Y61649387D01*
X113874835Y61644845D01*
X113761395Y61632922D01*
X113754727Y61630652D01*
X113612282Y61582160D01*
X113612279Y61582159D01*
X113605615Y61579890D01*
X113465455Y61493663D01*
X113453814Y61482263D01*
X113379073Y61409071D01*
X113347882Y61378527D01*
X113258738Y61240203D01*
X113256327Y61233580D01*
X113256326Y61233577D01*
X113204866Y61092191D01*
X113204865Y61092186D01*
X113202456Y61085568D01*
X113181831Y60922306D01*
X83258000Y60922306D01*
X83258000Y65244649D01*
X83278002Y65312770D01*
X83331658Y65359263D01*
X83401932Y65369367D01*
X83468797Y65337844D01*
X83633481Y65187994D01*
X83915233Y64985534D01*
X84218388Y64816800D01*
X84538928Y64684028D01*
X84542422Y64683033D01*
X84542424Y64683032D01*
X84869103Y64589975D01*
X84869108Y64589974D01*
X84872604Y64588978D01*
X85049716Y64559975D01*
X85211412Y64533496D01*
X85211419Y64533495D01*
X85214993Y64532910D01*
X85388276Y64524738D01*
X85557931Y64516737D01*
X85557932Y64516737D01*
X85561558Y64516566D01*
X85570415Y64517170D01*
X85904073Y64539916D01*
X85904081Y64539917D01*
X85907704Y64540164D01*
X85911279Y64540827D01*
X85911282Y64540827D01*
X86245279Y64602730D01*
X86245283Y64602731D01*
X86248844Y64603391D01*
X86580456Y64705408D01*
X86898145Y64844864D01*
X87091172Y64957659D01*
X87194560Y65018074D01*
X87194562Y65018075D01*
X87197700Y65019909D01*
X87200609Y65022093D01*
X87472244Y65226042D01*
X87472248Y65226045D01*
X87475151Y65228225D01*
X87726819Y65467050D01*
X87949370Y65733217D01*
X88139853Y66023201D01*
X88253357Y66248879D01*
X88294117Y66329920D01*
X88294120Y66329928D01*
X88295744Y66333156D01*
X88296989Y66336558D01*
X88413729Y66655563D01*
X88413730Y66655567D01*
X88414977Y66658974D01*
X88415822Y66662496D01*
X88415825Y66662504D01*
X88495124Y66992809D01*
X88495125Y66992813D01*
X88495971Y66996338D01*
X88498913Y67020650D01*
X88526953Y67085874D01*
X88585806Y67125585D01*
X88656785Y67127173D01*
X88717355Y67090135D01*
X88748285Y67026231D01*
X88750000Y67005513D01*
X88750000Y63100000D01*
X116750000Y63100000D01*
X116750000Y63292000D01*
X116770002Y63360121D01*
X116823658Y63406614D01*
X116876000Y63418000D01*
X117510000Y63418000D01*
X117510000Y69616000D01*
X117530002Y69684121D01*
X117583658Y69730614D01*
X117636000Y69742000D01*
X145183989Y69742000D01*
X145252110Y69721998D01*
G37*
%TD.AperFunction*%
%TD*%
M02*
