M48
; DRILL file {KiCad 6.0.2+dfsg-1} date Sat 10 Sep 2022 05:36:24 PM MST
; FORMAT={-:-/ absolute / inch / decimal}
; #@! TF.CreationDate,2022-09-10T17:36:24-07:00
; #@! TF.GenerationSoftware,Kicad,Pcbnew,6.0.2+dfsg-1
; #@! TF.FileFunction,Plated,1,2,PTH
FMAT,2
INCH
; #@! TA.AperFunction,Plated,PTH,ViaDrill
T1C0.0118
; #@! TA.AperFunction,Plated,PTH,ViaDrill
T2C0.0157
; #@! TA.AperFunction,Plated,PTH,ComponentDrill
T3C0.0197
; #@! TA.AperFunction,Plated,PTH,ComponentDrill
T4C0.0236
; #@! TA.AperFunction,Plated,PTH,ComponentDrill
T5C0.0984
%
G90
G05
T1
X3.3479Y2.3743
X3.3479Y2.1843
X3.3579Y1.9743
X3.3679Y1.8243
X3.3879Y1.5243
X3.4279Y1.5643
X3.4579Y1.6043
X3.4614Y1.2469
X3.5079Y1.6543
X3.529Y2.2752
X3.531Y2.1944
X3.5549Y2.0454
X3.5779Y2.1043
X3.5979Y1.8943
X3.5979Y1.8043
X3.5979Y1.7443
X3.6409Y1.6194
X3.6479Y1.4043
X3.6479Y1.3443
X3.6654Y2.4291
X3.6666Y1.166
X3.7036Y1.2469
X3.7208Y1.0925
X3.7394Y2.4705
X3.7479Y1.4043
X3.7479Y1.3343
X3.7551Y1.2248
X3.7948Y2.4352
X3.8063Y1.2791
X3.8258Y1.3522
X3.8311Y1.2291
X3.8329Y1.4016
X3.8349Y1.7948
X3.839Y1.1661
X3.8646Y1.5413
X3.8879Y2.2943
X3.8988Y1.3462
X3.9279Y1.2643
X3.9479Y1.9843
X3.9583Y2.1346
X3.9617Y1.449
X3.9638Y1.3319
X3.9759Y1.1081
X3.9776Y1.2311
X3.9851Y1.5276
X4.0179Y1.4543
X4.0279Y1.3443
X4.0379Y2.4143
X4.0437Y1.4274
X4.0508Y1.9346
X4.0631Y1.3462
X4.0915Y2.134
X4.0979Y1.5543
X4.1179Y1.3984
X4.119Y1.3549
X4.1491Y2.1306
X4.1539Y1.8177
X4.1567Y1.1953
X4.164Y1.3767
X4.1979Y2.0743
X4.2106Y1.5531
X4.2279Y1.8443
X4.2539Y2.4193
X4.2579Y1.1943
X4.263Y2.2346
X4.2679Y1.9243
X4.3106Y1.5677
X4.3243Y1.4439
X4.3279Y1.4043
X4.3323Y1.1878
X4.3327Y1.3287
X4.3488Y1.4276
X4.3505Y1.7731
X4.3556Y2.4352
X4.3846Y1.5441
X4.4039Y1.1791
X4.4528Y1.1469
X4.4579Y1.5443
X4.4836Y2.2924
X4.4836Y2.2204
X4.485Y2.3981
X4.4919Y1.1081
X4.4943Y2.1306
X4.4945Y2.4445
X4.4994Y1.1933
X4.5362Y1.4949
X4.5379Y1.1343
X4.5602Y1.1886
X4.5618Y1.3791
X4.5724Y1.5713
X4.5866Y1.7898
X4.5884Y1.4442
X4.5979Y1.8743
X4.6012Y1.3461
X4.6097Y1.5142
X4.6106Y1.766
X4.6148Y2.2427
X4.6184Y1.2915
X4.6381Y2.3521
X4.6425Y1.3752
X4.6426Y2.1556
X4.648Y1.489
X4.6622Y1.4429
X4.6642Y1.5122
X4.6726Y2.4296
X4.6966Y2.405
X4.6966Y2.2598
X4.7035Y2.5232
X4.7046Y2.1785
X4.7146Y1.5583
X4.7175Y2.3203
X4.7344Y1.6847
X4.7495Y2.3321
X4.7501Y2.2511
X4.7538Y1.1081
X4.7576Y1.6429
X4.7581Y1.7028
X4.7612Y1.753
X4.7685Y1.8816
X4.7728Y1.1701
X4.7745Y1.8602
X4.7745Y1.8209
X4.8075Y1.5531
X4.8134Y1.3798
X4.8618Y1.4276
X4.863Y1.135
X4.8776Y2.5819
X4.9177Y1.3248
X4.9575Y1.1327
X4.9679Y1.4243
X4.9882Y1.228
X5.0379Y1.2343
X5.0602Y1.3697
X5.0635Y1.1118
X5.0949Y1.1472
X5.1025Y2.3851
X5.135Y1.4311
X5.1386Y1.2957
X5.1701Y2.5835
X5.1957Y1.3579
X5.2379Y1.5543
X5.3579Y1.4243
X5.3823Y2.2941
X5.3917Y1.9291
X5.4179Y1.2643
X5.424Y1.563
X5.4271Y2.3365
X5.4472Y2.4756
X5.5057Y1.7797
X5.5142Y2.4027
X5.5279Y1.4143
X5.5563Y2.4602
X5.5979Y1.6843
X5.5979Y1.5443
X5.6138Y1.8776
X5.6138Y1.7339
X5.6179Y1.8343
X5.6179Y1.7943
T2
X4.2381Y1.365
X4.8562Y1.3118
X4.9334Y1.215
T3
X3.2923Y1.1024
X3.2935Y2.6587
X3.3139Y1.1546
X3.3139Y1.0502
X3.3151Y2.7109
X3.3151Y2.6065
X3.3661Y1.1762
X3.3661Y1.0285
X3.3673Y2.7325
X3.3673Y2.5848
X3.4183Y1.1546
X3.4183Y1.0502
X3.4195Y2.7109
X3.4195Y2.6065
X3.44Y1.1024
X3.4411Y2.6587
X5.7333Y2.6575
X5.7333Y1.1024
X5.7549Y2.7097
X5.7549Y2.6053
X5.7549Y1.1546
X5.7549Y1.0502
X5.8071Y2.7313
X5.8071Y2.5837
X5.8071Y1.1762
X5.8071Y1.0285
X5.8593Y2.7097
X5.8593Y2.6053
X5.8593Y1.1546
X5.8593Y1.0502
X5.8809Y2.6575
X5.8809Y1.1024
T5
X3.3661Y1.1024
X3.3673Y2.6587
X5.8071Y2.6575
X5.8071Y1.1024
T4
G00X4.0297Y1.2974
M15
G01X4.0297Y1.2541
M16
G05
G00X4.0297Y1.123
M15
G01X4.0297Y1.0994
M16
G05
G00X4.3699Y1.2974
M15
G01X4.3699Y1.2541
M16
G05
G00X4.3699Y1.123
M15
G01X4.3699Y1.0994
M16
G05
T0
M30
