%TF.GenerationSoftware,KiCad,Pcbnew,6.0.2+dfsg-1*%
%TF.CreationDate,2022-09-10T17:36:14-07:00*%
%TF.ProjectId,OpenHasp-1Gang,4f70656e-4861-4737-902d-3147616e672e,rev?*%
%TF.SameCoordinates,Original*%
%TF.FileFunction,Legend,Bot*%
%TF.FilePolarity,Positive*%
%FSLAX46Y46*%
G04 Gerber Fmt 4.6, Leading zero omitted, Abs format (unit mm)*
G04 Created by KiCad (PCBNEW 6.0.2+dfsg-1) date 2022-09-10 17:36:14*
%MOMM*%
%LPD*%
G01*
G04 APERTURE LIST*
%ADD10C,0.200000*%
%ADD11C,0.010000*%
G04 APERTURE END LIST*
D10*
X142244857Y63935714D02*
X142244857Y63707142D01*
X142302000Y63592857D01*
X142416285Y63478571D01*
X142644857Y63421428D01*
X143044857Y63421428D01*
X143273428Y63478571D01*
X143387714Y63592857D01*
X143444857Y63707142D01*
X143444857Y63935714D01*
X143387714Y64050000D01*
X143273428Y64164285D01*
X143044857Y64221428D01*
X142644857Y64221428D01*
X142416285Y64164285D01*
X142302000Y64050000D01*
X142244857Y63935714D01*
X142644857Y62907142D02*
X143844857Y62907142D01*
X142702000Y62907142D02*
X142644857Y62792857D01*
X142644857Y62564285D01*
X142702000Y62450000D01*
X142759142Y62392857D01*
X142873428Y62335714D01*
X143216285Y62335714D01*
X143330571Y62392857D01*
X143387714Y62450000D01*
X143444857Y62564285D01*
X143444857Y62792857D01*
X143387714Y62907142D01*
X143387714Y61364285D02*
X143444857Y61478571D01*
X143444857Y61707142D01*
X143387714Y61821428D01*
X143273428Y61878571D01*
X142816285Y61878571D01*
X142702000Y61821428D01*
X142644857Y61707142D01*
X142644857Y61478571D01*
X142702000Y61364285D01*
X142816285Y61307142D01*
X142930571Y61307142D01*
X143044857Y61878571D01*
X142644857Y60792857D02*
X143444857Y60792857D01*
X142759142Y60792857D02*
X142702000Y60735714D01*
X142644857Y60621428D01*
X142644857Y60450000D01*
X142702000Y60335714D01*
X142816285Y60278571D01*
X143444857Y60278571D01*
X143444857Y59707142D02*
X142244857Y59707142D01*
X142816285Y59707142D02*
X142816285Y59021428D01*
X143444857Y59021428D02*
X142244857Y59021428D01*
X143102000Y58507142D02*
X143102000Y57935714D01*
X143444857Y58621428D02*
X142244857Y58221428D01*
X143444857Y57821428D01*
X143387714Y57478571D02*
X143444857Y57307142D01*
X143444857Y57021428D01*
X143387714Y56907142D01*
X143330571Y56850000D01*
X143216285Y56792857D01*
X143102000Y56792857D01*
X142987714Y56850000D01*
X142930571Y56907142D01*
X142873428Y57021428D01*
X142816285Y57250000D01*
X142759142Y57364285D01*
X142702000Y57421428D01*
X142587714Y57478571D01*
X142473428Y57478571D01*
X142359142Y57421428D01*
X142302000Y57364285D01*
X142244857Y57250000D01*
X142244857Y56964285D01*
X142302000Y56792857D01*
X143444857Y56278571D02*
X142244857Y56278571D01*
X142244857Y55821428D01*
X142302000Y55707142D01*
X142359142Y55650000D01*
X142473428Y55592857D01*
X142644857Y55592857D01*
X142759142Y55650000D01*
X142816285Y55707142D01*
X142873428Y55821428D01*
X142873428Y56278571D01*
X142244857Y54278571D02*
X142244857Y53535714D01*
X142702000Y53935714D01*
X142702000Y53764285D01*
X142759142Y53650000D01*
X142816285Y53592857D01*
X142930571Y53535714D01*
X143216285Y53535714D01*
X143330571Y53592857D01*
X143387714Y53650000D01*
X143444857Y53764285D01*
X143444857Y54107142D01*
X143387714Y54221428D01*
X143330571Y54278571D01*
X143330571Y53021428D02*
X143387714Y52964285D01*
X143444857Y53021428D01*
X143387714Y53078571D01*
X143330571Y53021428D01*
X143444857Y53021428D01*
X142244857Y51878571D02*
X142244857Y52450000D01*
X142816285Y52507142D01*
X142759142Y52450000D01*
X142702000Y52335714D01*
X142702000Y52050000D01*
X142759142Y51935714D01*
X142816285Y51878571D01*
X142930571Y51821428D01*
X143216285Y51821428D01*
X143330571Y51878571D01*
X143387714Y51935714D01*
X143444857Y52050000D01*
X143444857Y52335714D01*
X143387714Y52450000D01*
X143330571Y52507142D01*
X142244857Y51364285D02*
X142473428Y51364285D01*
X142244857Y50907142D02*
X142473428Y50907142D01*
X143444857Y48907142D02*
X143444857Y49478571D01*
X142244857Y49478571D01*
X143330571Y47821428D02*
X143387714Y47878571D01*
X143444857Y48050000D01*
X143444857Y48164285D01*
X143387714Y48335714D01*
X143273428Y48450000D01*
X143159142Y48507142D01*
X142930571Y48564285D01*
X142759142Y48564285D01*
X142530571Y48507142D01*
X142416285Y48450000D01*
X142302000Y48335714D01*
X142244857Y48164285D01*
X142244857Y48050000D01*
X142302000Y47878571D01*
X142359142Y47821428D01*
X143444857Y47307142D02*
X142244857Y47307142D01*
X142244857Y47021428D01*
X142302000Y46850000D01*
X142416285Y46735714D01*
X142530571Y46678571D01*
X142759142Y46621428D01*
X142930571Y46621428D01*
X143159142Y46678571D01*
X143273428Y46735714D01*
X143387714Y46850000D01*
X143444857Y47021428D01*
X143444857Y47307142D01*
X143444857Y44621428D02*
X143444857Y45192857D01*
X142244857Y45192857D01*
X143444857Y44221428D02*
X142644857Y44221428D01*
X142244857Y44221428D02*
X142302000Y44278571D01*
X142359142Y44221428D01*
X142302000Y44164285D01*
X142244857Y44221428D01*
X142359142Y44221428D01*
X142644857Y43135714D02*
X143616285Y43135714D01*
X143730571Y43192857D01*
X143787714Y43250000D01*
X143844857Y43364285D01*
X143844857Y43535714D01*
X143787714Y43650000D01*
X143387714Y43135714D02*
X143444857Y43250000D01*
X143444857Y43478571D01*
X143387714Y43592857D01*
X143330571Y43650000D01*
X143216285Y43707142D01*
X142873428Y43707142D01*
X142759142Y43650000D01*
X142702000Y43592857D01*
X142644857Y43478571D01*
X142644857Y43250000D01*
X142702000Y43135714D01*
X143444857Y42564285D02*
X142244857Y42564285D01*
X143444857Y42050000D02*
X142816285Y42050000D01*
X142702000Y42107142D01*
X142644857Y42221428D01*
X142644857Y42392857D01*
X142702000Y42507142D01*
X142759142Y42564285D01*
X142644857Y41650000D02*
X142644857Y41192857D01*
X142244857Y41478571D02*
X143273428Y41478571D01*
X143387714Y41421428D01*
X143444857Y41307142D01*
X143444857Y41192857D01*
X143387714Y39935714D02*
X143444857Y39764285D01*
X143444857Y39478571D01*
X143387714Y39364285D01*
X143330571Y39307142D01*
X143216285Y39250000D01*
X143102000Y39250000D01*
X142987714Y39307142D01*
X142930571Y39364285D01*
X142873428Y39478571D01*
X142816285Y39707142D01*
X142759142Y39821428D01*
X142702000Y39878571D01*
X142587714Y39935714D01*
X142473428Y39935714D01*
X142359142Y39878571D01*
X142302000Y39821428D01*
X142244857Y39707142D01*
X142244857Y39421428D01*
X142302000Y39250000D01*
X142644857Y38850000D02*
X143444857Y38621428D01*
X142873428Y38392857D01*
X143444857Y38164285D01*
X142644857Y37935714D01*
X143444857Y37478571D02*
X142644857Y37478571D01*
X142244857Y37478571D02*
X142302000Y37535714D01*
X142359142Y37478571D01*
X142302000Y37421428D01*
X142244857Y37478571D01*
X142359142Y37478571D01*
X142644857Y37078571D02*
X142644857Y36621428D01*
X142244857Y36907142D02*
X143273428Y36907142D01*
X143387714Y36850000D01*
X143444857Y36735714D01*
X143444857Y36621428D01*
X143387714Y35707142D02*
X143444857Y35821428D01*
X143444857Y36050000D01*
X143387714Y36164285D01*
X143330571Y36221428D01*
X143216285Y36278571D01*
X142873428Y36278571D01*
X142759142Y36221428D01*
X142702000Y36164285D01*
X142644857Y36050000D01*
X142644857Y35821428D01*
X142702000Y35707142D01*
X143444857Y35192857D02*
X142244857Y35192857D01*
X143444857Y34678571D02*
X142816285Y34678571D01*
X142702000Y34735714D01*
X142644857Y34850000D01*
X142644857Y35021428D01*
X142702000Y35135714D01*
X142759142Y35192857D01*
X145262571Y63478571D02*
X145319714Y63535714D01*
X145376857Y63707142D01*
X145376857Y63821428D01*
X145319714Y63992857D01*
X145205428Y64107142D01*
X145091142Y64164285D01*
X144862571Y64221428D01*
X144691142Y64221428D01*
X144462571Y64164285D01*
X144348285Y64107142D01*
X144234000Y63992857D01*
X144176857Y63821428D01*
X144176857Y63707142D01*
X144234000Y63535714D01*
X144291142Y63478571D01*
X145376857Y62792857D02*
X145319714Y62907142D01*
X145262571Y62964285D01*
X145148285Y63021428D01*
X144805428Y63021428D01*
X144691142Y62964285D01*
X144634000Y62907142D01*
X144576857Y62792857D01*
X144576857Y62621428D01*
X144634000Y62507142D01*
X144691142Y62450000D01*
X144805428Y62392857D01*
X145148285Y62392857D01*
X145262571Y62450000D01*
X145319714Y62507142D01*
X145376857Y62621428D01*
X145376857Y62792857D01*
X144576857Y61878571D02*
X145776857Y61878571D01*
X144634000Y61878571D02*
X144576857Y61764285D01*
X144576857Y61535714D01*
X144634000Y61421428D01*
X144691142Y61364285D01*
X144805428Y61307142D01*
X145148285Y61307142D01*
X145262571Y61364285D01*
X145319714Y61421428D01*
X145376857Y61535714D01*
X145376857Y61764285D01*
X145319714Y61878571D01*
X144576857Y60907142D02*
X145376857Y60621428D01*
X144576857Y60335714D02*
X145376857Y60621428D01*
X145662571Y60735714D01*
X145719714Y60792857D01*
X145776857Y60907142D01*
X145376857Y59878571D02*
X144576857Y59878571D01*
X144805428Y59878571D02*
X144691142Y59821428D01*
X144634000Y59764285D01*
X144576857Y59650000D01*
X144576857Y59535714D01*
X145376857Y59135714D02*
X144576857Y59135714D01*
X144176857Y59135714D02*
X144234000Y59192857D01*
X144291142Y59135714D01*
X144234000Y59078571D01*
X144176857Y59135714D01*
X144291142Y59135714D01*
X144576857Y58050000D02*
X145548285Y58050000D01*
X145662571Y58107142D01*
X145719714Y58164285D01*
X145776857Y58278571D01*
X145776857Y58450000D01*
X145719714Y58564285D01*
X145319714Y58050000D02*
X145376857Y58164285D01*
X145376857Y58392857D01*
X145319714Y58507142D01*
X145262571Y58564285D01*
X145148285Y58621428D01*
X144805428Y58621428D01*
X144691142Y58564285D01*
X144634000Y58507142D01*
X144576857Y58392857D01*
X144576857Y58164285D01*
X144634000Y58050000D01*
X145376857Y57478571D02*
X144176857Y57478571D01*
X145376857Y56964285D02*
X144748285Y56964285D01*
X144634000Y57021428D01*
X144576857Y57135714D01*
X144576857Y57307142D01*
X144634000Y57421428D01*
X144691142Y57478571D01*
X144576857Y56564285D02*
X144576857Y56107142D01*
X144176857Y56392857D02*
X145205428Y56392857D01*
X145319714Y56335714D01*
X145376857Y56221428D01*
X145376857Y56107142D01*
X145834000Y54450000D02*
X145776857Y54507142D01*
X145605428Y54621428D01*
X145491142Y54678571D01*
X145319714Y54735714D01*
X145034000Y54792857D01*
X144805428Y54792857D01*
X144519714Y54735714D01*
X144348285Y54678571D01*
X144234000Y54621428D01*
X144062571Y54507142D01*
X144005428Y54450000D01*
X145319714Y53478571D02*
X145376857Y53592857D01*
X145376857Y53821428D01*
X145319714Y53935714D01*
X145262571Y53992857D01*
X145148285Y54050000D01*
X144805428Y54050000D01*
X144691142Y53992857D01*
X144634000Y53935714D01*
X144576857Y53821428D01*
X144576857Y53592857D01*
X144634000Y53478571D01*
X145834000Y53078571D02*
X145776857Y53021428D01*
X145605428Y52907142D01*
X145491142Y52849999D01*
X145319714Y52792857D01*
X145034000Y52735714D01*
X144805428Y52735714D01*
X144519714Y52792857D01*
X144348285Y52849999D01*
X144234000Y52907142D01*
X144062571Y53021428D01*
X144005428Y53078571D01*
X144291142Y51307142D02*
X144234000Y51249999D01*
X144176857Y51135714D01*
X144176857Y50849999D01*
X144234000Y50735714D01*
X144291142Y50678571D01*
X144405428Y50621428D01*
X144519714Y50621428D01*
X144691142Y50678571D01*
X145376857Y51364285D01*
X145376857Y50621428D01*
X144176857Y49878571D02*
X144176857Y49764285D01*
X144234000Y49650000D01*
X144291142Y49592857D01*
X144405428Y49535714D01*
X144634000Y49478571D01*
X144919714Y49478571D01*
X145148285Y49535714D01*
X145262571Y49592857D01*
X145319714Y49650000D01*
X145376857Y49764285D01*
X145376857Y49878571D01*
X145319714Y49992857D01*
X145262571Y50050000D01*
X145148285Y50107142D01*
X144919714Y50164285D01*
X144634000Y50164285D01*
X144405428Y50107142D01*
X144291142Y50050000D01*
X144234000Y49992857D01*
X144176857Y49878571D01*
X144291142Y49021428D02*
X144234000Y48964285D01*
X144176857Y48850000D01*
X144176857Y48564285D01*
X144234000Y48450000D01*
X144291142Y48392857D01*
X144405428Y48335714D01*
X144519714Y48335714D01*
X144691142Y48392857D01*
X145376857Y49078571D01*
X145376857Y48335714D01*
X144291142Y47878571D02*
X144234000Y47821428D01*
X144176857Y47707142D01*
X144176857Y47421428D01*
X144234000Y47307142D01*
X144291142Y47250000D01*
X144405428Y47192857D01*
X144519714Y47192857D01*
X144691142Y47250000D01*
X145376857Y47935714D01*
X145376857Y47192857D01*
X145376857Y45192857D02*
X145376857Y45764285D01*
X144176857Y45764285D01*
X144576857Y44278571D02*
X145376857Y44278571D01*
X144576857Y44792857D02*
X145205428Y44792857D01*
X145319714Y44735714D01*
X145376857Y44621428D01*
X145376857Y44450000D01*
X145319714Y44335714D01*
X145262571Y44278571D01*
X145376857Y43707142D02*
X144576857Y43707142D01*
X144176857Y43707142D02*
X144234000Y43764285D01*
X144291142Y43707142D01*
X144234000Y43650000D01*
X144176857Y43707142D01*
X144291142Y43707142D01*
X144576857Y43250000D02*
X144576857Y42621428D01*
X145376857Y43250000D01*
X145376857Y42621428D01*
X144176857Y41021428D02*
X144176857Y40792857D01*
X144234000Y40678571D01*
X144348285Y40564285D01*
X144576857Y40507142D01*
X144976857Y40507142D01*
X145205428Y40564285D01*
X145319714Y40678571D01*
X145376857Y40792857D01*
X145376857Y41021428D01*
X145319714Y41135714D01*
X145205428Y41250000D01*
X144976857Y41307142D01*
X144576857Y41307142D01*
X144348285Y41250000D01*
X144234000Y41135714D01*
X144176857Y41021428D01*
X145376857Y39821428D02*
X145319714Y39935714D01*
X145205428Y39992857D01*
X144176857Y39992857D01*
X145376857Y39364285D02*
X144576857Y39364285D01*
X144176857Y39364285D02*
X144234000Y39421428D01*
X144291142Y39364285D01*
X144234000Y39307142D01*
X144176857Y39364285D01*
X144291142Y39364285D01*
X144576857Y38907142D02*
X145376857Y38621428D01*
X144576857Y38335714D01*
X145319714Y37421428D02*
X145376857Y37535714D01*
X145376857Y37764285D01*
X145319714Y37878571D01*
X145205428Y37935714D01*
X144748285Y37935714D01*
X144634000Y37878571D01*
X144576857Y37764285D01*
X144576857Y37535714D01*
X144634000Y37421428D01*
X144748285Y37364285D01*
X144862571Y37364285D01*
X144976857Y37935714D01*
X145376857Y36850000D02*
X144576857Y36850000D01*
X144176857Y36850000D02*
X144234000Y36907142D01*
X144291142Y36850000D01*
X144234000Y36792857D01*
X144176857Y36850000D01*
X144291142Y36850000D01*
X145376857Y36278571D02*
X144576857Y36278571D01*
X144805428Y36278571D02*
X144691142Y36221428D01*
X144634000Y36164285D01*
X144576857Y36050000D01*
X144576857Y35935714D01*
X145376857Y35021428D02*
X144748285Y35021428D01*
X144634000Y35078571D01*
X144576857Y35192857D01*
X144576857Y35421428D01*
X144634000Y35535714D01*
X145319714Y35021428D02*
X145376857Y35135714D01*
X145376857Y35421428D01*
X145319714Y35535714D01*
X145205428Y35592857D01*
X145091142Y35592857D01*
X144976857Y35535714D01*
X144919714Y35421428D01*
X144919714Y35135714D01*
X144862571Y35021428D01*
X145376857Y33535714D02*
X144176857Y33535714D01*
X145376857Y32850000D01*
X144176857Y32850000D01*
X145319714Y31821428D02*
X145376857Y31935714D01*
X145376857Y32164285D01*
X145319714Y32278571D01*
X145205428Y32335714D01*
X144748285Y32335714D01*
X144634000Y32278571D01*
X144576857Y32164285D01*
X144576857Y31935714D01*
X144634000Y31821428D01*
X144748285Y31764285D01*
X144862571Y31764285D01*
X144976857Y32335714D01*
X144576857Y31421428D02*
X144576857Y30964285D01*
X144176857Y31250000D02*
X145205428Y31250000D01*
X145319714Y31192857D01*
X145376857Y31078571D01*
X145376857Y30964285D01*
X145376857Y30392857D02*
X145319714Y30507142D01*
X145262571Y30564285D01*
X145148285Y30621428D01*
X144805428Y30621428D01*
X144691142Y30564285D01*
X144634000Y30507142D01*
X144576857Y30392857D01*
X144576857Y30221428D01*
X144634000Y30107142D01*
X144691142Y30050000D01*
X144805428Y29992857D01*
X145148285Y29992857D01*
X145262571Y30050000D01*
X145319714Y30107142D01*
X145376857Y30221428D01*
X145376857Y30392857D01*
X147308857Y64164285D02*
X146108857Y64164285D01*
X147308857Y63650000D02*
X146680285Y63650000D01*
X146566000Y63707142D01*
X146508857Y63821428D01*
X146508857Y63992857D01*
X146566000Y64107142D01*
X146623142Y64164285D01*
X146508857Y63250000D02*
X146508857Y62792857D01*
X146108857Y63078571D02*
X147137428Y63078571D01*
X147251714Y63021428D01*
X147308857Y62907142D01*
X147308857Y62792857D01*
X146508857Y62564285D02*
X146508857Y62107142D01*
X146108857Y62392857D02*
X147137428Y62392857D01*
X147251714Y62335714D01*
X147308857Y62221428D01*
X147308857Y62107142D01*
X146508857Y61707142D02*
X147708857Y61707142D01*
X146566000Y61707142D02*
X146508857Y61592857D01*
X146508857Y61364285D01*
X146566000Y61250000D01*
X146623142Y61192857D01*
X146737428Y61135714D01*
X147080285Y61135714D01*
X147194571Y61192857D01*
X147251714Y61250000D01*
X147308857Y61364285D01*
X147308857Y61592857D01*
X147251714Y61707142D01*
X147251714Y60678571D02*
X147308857Y60564285D01*
X147308857Y60335714D01*
X147251714Y60221428D01*
X147137428Y60164285D01*
X147080285Y60164285D01*
X146966000Y60221428D01*
X146908857Y60335714D01*
X146908857Y60507142D01*
X146851714Y60621428D01*
X146737428Y60678571D01*
X146680285Y60678571D01*
X146566000Y60621428D01*
X146508857Y60507142D01*
X146508857Y60335714D01*
X146566000Y60221428D01*
X147194571Y59650000D02*
X147251714Y59592857D01*
X147308857Y59650000D01*
X147251714Y59707142D01*
X147194571Y59650000D01*
X147308857Y59650000D01*
X146566000Y59650000D02*
X146623142Y59592857D01*
X146680285Y59650000D01*
X146623142Y59707142D01*
X146566000Y59650000D01*
X146680285Y59650000D01*
X146051714Y58221428D02*
X147594571Y59250000D01*
X146051714Y56964285D02*
X147594571Y57992857D01*
X146508857Y56050000D02*
X147480285Y56050000D01*
X147594571Y56107142D01*
X147651714Y56164285D01*
X147708857Y56278571D01*
X147708857Y56450000D01*
X147651714Y56564285D01*
X147251714Y56050000D02*
X147308857Y56164285D01*
X147308857Y56392857D01*
X147251714Y56507142D01*
X147194571Y56564285D01*
X147080285Y56621428D01*
X146737428Y56621428D01*
X146623142Y56564285D01*
X146566000Y56507142D01*
X146508857Y56392857D01*
X146508857Y56164285D01*
X146566000Y56050000D01*
X147308857Y55478571D02*
X146508857Y55478571D01*
X146108857Y55478571D02*
X146166000Y55535714D01*
X146223142Y55478571D01*
X146166000Y55421428D01*
X146108857Y55478571D01*
X146223142Y55478571D01*
X146508857Y55078571D02*
X146508857Y54621428D01*
X146108857Y54907142D02*
X147137428Y54907142D01*
X147251714Y54850000D01*
X147308857Y54735714D01*
X147308857Y54621428D01*
X147308857Y54221428D02*
X146108857Y54221428D01*
X147308857Y53707142D02*
X146680285Y53707142D01*
X146566000Y53764285D01*
X146508857Y53878571D01*
X146508857Y54050000D01*
X146566000Y54164285D01*
X146623142Y54221428D01*
X146508857Y52621428D02*
X147308857Y52621428D01*
X146508857Y53135714D02*
X147137428Y53135714D01*
X147251714Y53078571D01*
X147308857Y52964285D01*
X147308857Y52792857D01*
X147251714Y52678571D01*
X147194571Y52621428D01*
X147308857Y52050000D02*
X146108857Y52050000D01*
X146566000Y52050000D02*
X146508857Y51935714D01*
X146508857Y51707142D01*
X146566000Y51592857D01*
X146623142Y51535714D01*
X146737428Y51478571D01*
X147080285Y51478571D01*
X147194571Y51535714D01*
X147251714Y51592857D01*
X147308857Y51707142D01*
X147308857Y51935714D01*
X147251714Y52050000D01*
X147194571Y50964285D02*
X147251714Y50907142D01*
X147308857Y50964285D01*
X147251714Y51021428D01*
X147194571Y50964285D01*
X147308857Y50964285D01*
X147251714Y49878571D02*
X147308857Y49992857D01*
X147308857Y50221428D01*
X147251714Y50335714D01*
X147194571Y50392857D01*
X147080285Y50449999D01*
X146737428Y50449999D01*
X146623142Y50392857D01*
X146566000Y50335714D01*
X146508857Y50221428D01*
X146508857Y49992857D01*
X146566000Y49878571D01*
X147308857Y49192857D02*
X147251714Y49307142D01*
X147194571Y49364285D01*
X147080285Y49421428D01*
X146737428Y49421428D01*
X146623142Y49364285D01*
X146566000Y49307142D01*
X146508857Y49192857D01*
X146508857Y49021428D01*
X146566000Y48907142D01*
X146623142Y48849999D01*
X146737428Y48792857D01*
X147080285Y48792857D01*
X147194571Y48849999D01*
X147251714Y48907142D01*
X147308857Y49021428D01*
X147308857Y49192857D01*
X147308857Y48278571D02*
X146508857Y48278571D01*
X146623142Y48278571D02*
X146566000Y48221428D01*
X146508857Y48107142D01*
X146508857Y47935714D01*
X146566000Y47821428D01*
X146680285Y47764285D01*
X147308857Y47764285D01*
X146680285Y47764285D02*
X146566000Y47707142D01*
X146508857Y47592857D01*
X146508857Y47421428D01*
X146566000Y47307142D01*
X146680285Y47249999D01*
X147308857Y47249999D01*
X146051714Y45821428D02*
X147594571Y46849999D01*
X147308857Y45249999D02*
X147251714Y45364285D01*
X147137428Y45421428D01*
X146108857Y45421428D01*
X147308857Y44792857D02*
X146108857Y44792857D01*
X146566000Y44792857D02*
X146508857Y44678571D01*
X146508857Y44449999D01*
X146566000Y44335714D01*
X146623142Y44278571D01*
X146737428Y44221428D01*
X147080285Y44221428D01*
X147194571Y44278571D01*
X147251714Y44335714D01*
X147308857Y44449999D01*
X147308857Y44678571D01*
X147251714Y44792857D01*
X147308857Y43192857D02*
X146680285Y43192857D01*
X146566000Y43249999D01*
X146508857Y43364285D01*
X146508857Y43592857D01*
X146566000Y43707142D01*
X147251714Y43192857D02*
X147308857Y43307142D01*
X147308857Y43592857D01*
X147251714Y43707142D01*
X147137428Y43764285D01*
X147023142Y43764285D01*
X146908857Y43707142D01*
X146851714Y43592857D01*
X146851714Y43307142D01*
X146794571Y43192857D01*
X147308857Y42621428D02*
X146508857Y42621428D01*
X146737428Y42621428D02*
X146623142Y42564285D01*
X146566000Y42507142D01*
X146508857Y42392857D01*
X146508857Y42278571D01*
X147308857Y41878571D02*
X146508857Y41878571D01*
X146737428Y41878571D02*
X146623142Y41821428D01*
X146566000Y41764285D01*
X146508857Y41649999D01*
X146508857Y41535714D01*
X147308857Y40964285D02*
X147251714Y41078571D01*
X147194571Y41135714D01*
X147080285Y41192857D01*
X146737428Y41192857D01*
X146623142Y41135714D01*
X146566000Y41078571D01*
X146508857Y40964285D01*
X146508857Y40792857D01*
X146566000Y40678571D01*
X146623142Y40621428D01*
X146737428Y40564285D01*
X147080285Y40564285D01*
X147194571Y40621428D01*
X147251714Y40678571D01*
X147308857Y40792857D01*
X147308857Y40964285D01*
X147251714Y40107142D02*
X147308857Y39992857D01*
X147308857Y39764285D01*
X147251714Y39649999D01*
X147137428Y39592857D01*
X147080285Y39592857D01*
X146966000Y39649999D01*
X146908857Y39764285D01*
X146908857Y39935714D01*
X146851714Y40049999D01*
X146737428Y40107142D01*
X146680285Y40107142D01*
X146566000Y40049999D01*
X146508857Y39935714D01*
X146508857Y39764285D01*
X146566000Y39649999D01*
X147308857Y38907142D02*
X147251714Y39021428D01*
X147194571Y39078571D01*
X147080285Y39135714D01*
X146737428Y39135714D01*
X146623142Y39078571D01*
X146566000Y39021428D01*
X146508857Y38907142D01*
X146508857Y38735714D01*
X146566000Y38621428D01*
X146623142Y38564285D01*
X146737428Y38507142D01*
X147080285Y38507142D01*
X147194571Y38564285D01*
X147251714Y38621428D01*
X147308857Y38735714D01*
X147308857Y38907142D01*
X146508857Y37992857D02*
X147308857Y37992857D01*
X146623142Y37992857D02*
X146566000Y37935714D01*
X146508857Y37821428D01*
X146508857Y37649999D01*
X146566000Y37535714D01*
X146680285Y37478571D01*
X147308857Y37478571D01*
X147251714Y36449999D02*
X147308857Y36564285D01*
X147308857Y36792857D01*
X147251714Y36907142D01*
X147137428Y36964285D01*
X146680285Y36964285D01*
X146566000Y36907142D01*
X146508857Y36792857D01*
X146508857Y36564285D01*
X146566000Y36449999D01*
X146680285Y36392857D01*
X146794571Y36392857D01*
X146908857Y36964285D01*
X146508857Y36049999D02*
X146508857Y35592857D01*
X146108857Y35878571D02*
X147137428Y35878571D01*
X147251714Y35821428D01*
X147308857Y35707142D01*
X147308857Y35592857D01*
X147308857Y35021428D02*
X147251714Y35135714D01*
X147194571Y35192857D01*
X147080285Y35249999D01*
X146737428Y35249999D01*
X146623142Y35192857D01*
X146566000Y35135714D01*
X146508857Y35021428D01*
X146508857Y34849999D01*
X146566000Y34735714D01*
X146623142Y34678571D01*
X146737428Y34621428D01*
X147080285Y34621428D01*
X147194571Y34678571D01*
X147251714Y34735714D01*
X147308857Y34849999D01*
X147308857Y35021428D01*
X148040857Y64335714D02*
X149240857Y63935714D01*
X148040857Y63535714D01*
X149183714Y62678571D02*
X149240857Y62792857D01*
X149240857Y63021428D01*
X149183714Y63135714D01*
X149069428Y63192857D01*
X148612285Y63192857D01*
X148498000Y63135714D01*
X148440857Y63021428D01*
X148440857Y62792857D01*
X148498000Y62678571D01*
X148612285Y62621428D01*
X148726571Y62621428D01*
X148840857Y63192857D01*
X149240857Y62107142D02*
X148440857Y62107142D01*
X148669428Y62107142D02*
X148555142Y62050000D01*
X148498000Y61992857D01*
X148440857Y61878571D01*
X148440857Y61764285D01*
X149183714Y61421428D02*
X149240857Y61307142D01*
X149240857Y61078571D01*
X149183714Y60964285D01*
X149069428Y60907142D01*
X149012285Y60907142D01*
X148898000Y60964285D01*
X148840857Y61078571D01*
X148840857Y61250000D01*
X148783714Y61364285D01*
X148669428Y61421428D01*
X148612285Y61421428D01*
X148498000Y61364285D01*
X148440857Y61250000D01*
X148440857Y61078571D01*
X148498000Y60964285D01*
X149240857Y60392857D02*
X148440857Y60392857D01*
X148040857Y60392857D02*
X148098000Y60450000D01*
X148155142Y60392857D01*
X148098000Y60335714D01*
X148040857Y60392857D01*
X148155142Y60392857D01*
X149240857Y59650000D02*
X149183714Y59764285D01*
X149126571Y59821428D01*
X149012285Y59878571D01*
X148669428Y59878571D01*
X148555142Y59821428D01*
X148498000Y59764285D01*
X148440857Y59650000D01*
X148440857Y59478571D01*
X148498000Y59364285D01*
X148555142Y59307142D01*
X148669428Y59250000D01*
X149012285Y59250000D01*
X149126571Y59307142D01*
X149183714Y59364285D01*
X149240857Y59478571D01*
X149240857Y59650000D01*
X148440857Y58735714D02*
X149240857Y58735714D01*
X148555142Y58735714D02*
X148498000Y58678571D01*
X148440857Y58564285D01*
X148440857Y58392857D01*
X148498000Y58278571D01*
X148612285Y58221428D01*
X149240857Y58221428D01*
X149240857Y56107142D02*
X149240857Y56792857D01*
X149240857Y56450000D02*
X148040857Y56450000D01*
X148212285Y56564285D01*
X148326571Y56678571D01*
X148383714Y56792857D01*
X149126571Y55592857D02*
X149183714Y55535714D01*
X149240857Y55592857D01*
X149183714Y55650000D01*
X149126571Y55592857D01*
X149240857Y55592857D01*
X148155142Y55078571D02*
X148098000Y55021428D01*
X148040857Y54907142D01*
X148040857Y54621428D01*
X148098000Y54507142D01*
X148155142Y54450000D01*
X148269428Y54392857D01*
X148383714Y54392857D01*
X148555142Y54450000D01*
X149240857Y55135714D01*
X149240857Y54392857D01*
D11*
%TO.C,REF\u002A\u002A*%
X140496055Y61199238D02*
X140530692Y61135637D01*
X140530692Y61135637D02*
X140585372Y61085877D01*
X140585372Y61085877D02*
X140629842Y61062432D01*
X140629842Y61062432D02*
X140669121Y61052366D01*
X140669121Y61052366D02*
X140725116Y61045844D01*
X140725116Y61045844D02*
X140789621Y61043049D01*
X140789621Y61043049D02*
X140854429Y61044164D01*
X140854429Y61044164D02*
X140911334Y61049374D01*
X140911334Y61049374D02*
X140941727Y61055459D01*
X140941727Y61055459D02*
X140983306Y61075986D01*
X140983306Y61075986D02*
X141027468Y61111537D01*
X141027468Y61111537D02*
X141066087Y61154381D01*
X141066087Y61154381D02*
X141091034Y61196789D01*
X141091034Y61196789D02*
X141091430Y61197823D01*
X141091430Y61197823D02*
X141102331Y61250447D01*
X141102331Y61250447D02*
X141102601Y61312812D01*
X141102601Y61312812D02*
X141092676Y61372076D01*
X141092676Y61372076D02*
X141084722Y61394960D01*
X141084722Y61394960D02*
X141051300Y61453898D01*
X141051300Y61453898D02*
X141007511Y61496110D01*
X141007511Y61496110D02*
X140949538Y61523844D01*
X140949538Y61523844D02*
X140873565Y61539349D01*
X140873565Y61539349D02*
X140833771Y61542857D01*
X140833771Y61542857D02*
X140783766Y61542410D01*
X140783766Y61542410D02*
X140783766Y61407624D01*
X140783766Y61407624D02*
X140856732Y61403083D01*
X140856732Y61403083D02*
X140912334Y61390014D01*
X140912334Y61390014D02*
X140947861Y61369244D01*
X140947861Y61369244D02*
X140958020Y61354448D01*
X140958020Y61354448D02*
X140965104Y61316536D01*
X140965104Y61316536D02*
X140963007Y61271473D01*
X140963007Y61271473D02*
X140952812Y61232513D01*
X140952812Y61232513D02*
X140947204Y61222296D01*
X140947204Y61222296D02*
X140914538Y61195341D01*
X140914538Y61195341D02*
X140864545Y61177549D01*
X140864545Y61177549D02*
X140803705Y61169976D01*
X140803705Y61169976D02*
X140738497Y61173675D01*
X140738497Y61173675D02*
X140699253Y61181943D01*
X140699253Y61181943D02*
X140653805Y61205680D01*
X140653805Y61205680D02*
X140625396Y61243151D01*
X140625396Y61243151D02*
X140615573Y61288280D01*
X140615573Y61288280D02*
X140625887Y61334989D01*
X140625887Y61334989D02*
X140651112Y61370868D01*
X140651112Y61370868D02*
X140671925Y61389723D01*
X140671925Y61389723D02*
X140692439Y61400728D01*
X140692439Y61400728D02*
X140720203Y61405974D01*
X140720203Y61405974D02*
X140762762Y61407551D01*
X140762762Y61407551D02*
X140783766Y61407624D01*
X140783766Y61407624D02*
X140783766Y61542410D01*
X140783766Y61542410D02*
X140727580Y61541906D01*
X140727580Y61541906D02*
X140640501Y61524612D01*
X140640501Y61524612D02*
X140572530Y61490971D01*
X140572530Y61490971D02*
X140523664Y61440982D01*
X140523664Y61440982D02*
X140493899Y61374644D01*
X140493899Y61374644D02*
X140490448Y61360399D01*
X140490448Y61360399D02*
X140482345Y61274790D01*
X140482345Y61274790D02*
X140496055Y61199238D01*
X140496055Y61199238D02*
X140496055Y61199238D01*
G36*
X140873565Y61539349D02*
G01*
X140949538Y61523844D01*
X141007511Y61496110D01*
X141051300Y61453898D01*
X141084722Y61394960D01*
X141092676Y61372076D01*
X141102601Y61312812D01*
X141102331Y61250447D01*
X141091430Y61197823D01*
X141091034Y61196789D01*
X141066087Y61154381D01*
X141027468Y61111537D01*
X140983306Y61075986D01*
X140941727Y61055459D01*
X140911334Y61049374D01*
X140854429Y61044164D01*
X140789621Y61043049D01*
X140725116Y61045844D01*
X140669121Y61052366D01*
X140629842Y61062432D01*
X140585372Y61085877D01*
X140530692Y61135637D01*
X140496055Y61199238D01*
X140482345Y61274790D01*
X140483622Y61288280D01*
X140615573Y61288280D01*
X140625396Y61243151D01*
X140653805Y61205680D01*
X140699253Y61181943D01*
X140738497Y61173675D01*
X140803705Y61169976D01*
X140864545Y61177549D01*
X140914538Y61195341D01*
X140947204Y61222296D01*
X140952812Y61232513D01*
X140963007Y61271473D01*
X140965104Y61316536D01*
X140958020Y61354448D01*
X140947861Y61369244D01*
X140912334Y61390014D01*
X140856732Y61403083D01*
X140783766Y61407624D01*
X140762762Y61407551D01*
X140720203Y61405974D01*
X140692439Y61400728D01*
X140671925Y61389723D01*
X140651112Y61370868D01*
X140625887Y61334989D01*
X140615573Y61288280D01*
X140483622Y61288280D01*
X140490448Y61360399D01*
X140493899Y61374644D01*
X140523664Y61440982D01*
X140572530Y61490971D01*
X140640501Y61524612D01*
X140727580Y61541906D01*
X140783766Y61542410D01*
X140833771Y61542857D01*
X140873565Y61539349D01*
G37*
X140873565Y61539349D02*
X140949538Y61523844D01*
X141007511Y61496110D01*
X141051300Y61453898D01*
X141084722Y61394960D01*
X141092676Y61372076D01*
X141102601Y61312812D01*
X141102331Y61250447D01*
X141091430Y61197823D01*
X141091034Y61196789D01*
X141066087Y61154381D01*
X141027468Y61111537D01*
X140983306Y61075986D01*
X140941727Y61055459D01*
X140911334Y61049374D01*
X140854429Y61044164D01*
X140789621Y61043049D01*
X140725116Y61045844D01*
X140669121Y61052366D01*
X140629842Y61062432D01*
X140585372Y61085877D01*
X140530692Y61135637D01*
X140496055Y61199238D01*
X140482345Y61274790D01*
X140483622Y61288280D01*
X140615573Y61288280D01*
X140625396Y61243151D01*
X140653805Y61205680D01*
X140699253Y61181943D01*
X140738497Y61173675D01*
X140803705Y61169976D01*
X140864545Y61177549D01*
X140914538Y61195341D01*
X140947204Y61222296D01*
X140952812Y61232513D01*
X140963007Y61271473D01*
X140965104Y61316536D01*
X140958020Y61354448D01*
X140947861Y61369244D01*
X140912334Y61390014D01*
X140856732Y61403083D01*
X140783766Y61407624D01*
X140762762Y61407551D01*
X140720203Y61405974D01*
X140692439Y61400728D01*
X140671925Y61389723D01*
X140651112Y61370868D01*
X140625887Y61334989D01*
X140615573Y61288280D01*
X140483622Y61288280D01*
X140490448Y61360399D01*
X140493899Y61374644D01*
X140523664Y61440982D01*
X140572530Y61490971D01*
X140640501Y61524612D01*
X140727580Y61541906D01*
X140783766Y61542410D01*
X140833771Y61542857D01*
X140873565Y61539349D01*
X142047822Y62011188D02*
X142047822Y62080346D01*
X142047822Y62080346D02*
X142046645Y62120488D01*
X142046645Y62120488D02*
X142041772Y62141394D01*
X142041772Y62141394D02*
X142031186Y62148922D01*
X142031186Y62148922D02*
X142024029Y62149505D01*
X142024029Y62149505D02*
X142009676Y62150774D01*
X142009676Y62150774D02*
X142006923Y62158779D01*
X142006923Y62158779D02*
X142015771Y62179815D01*
X142015771Y62179815D02*
X142024029Y62196173D01*
X142024029Y62196173D02*
X142043597Y62258977D01*
X142043597Y62258977D02*
X142044729Y62327248D01*
X142044729Y62327248D02*
X142030135Y62382752D01*
X142030135Y62382752D02*
X141994877Y62434438D01*
X141994877Y62434438D02*
X141942835Y62473838D01*
X141942835Y62473838D02*
X141881450Y62495413D01*
X141881450Y62495413D02*
X141878018Y62495962D01*
X141878018Y62495962D02*
X141840571Y62499167D01*
X141840571Y62499167D02*
X141786813Y62500761D01*
X141786813Y62500761D02*
X141746155Y62500633D01*
X141746155Y62500633D02*
X141746155Y62363279D01*
X141746155Y62363279D02*
X141800194Y62360097D01*
X141800194Y62360097D02*
X141844735Y62352859D01*
X141844735Y62352859D02*
X141869888Y62343060D01*
X141869888Y62343060D02*
X141904260Y62305989D01*
X141904260Y62305989D02*
X141916582Y62261974D01*
X141916582Y62261974D02*
X141906618Y62216584D01*
X141906618Y62216584D02*
X141876895Y62177797D01*
X141876895Y62177797D02*
X141856905Y62163108D01*
X141856905Y62163108D02*
X141833050Y62154519D01*
X141833050Y62154519D02*
X141798230Y62150496D01*
X141798230Y62150496D02*
X141745930Y62149505D01*
X141745930Y62149505D02*
X141694139Y62151278D01*
X141694139Y62151278D02*
X141648634Y62155963D01*
X141648634Y62155963D02*
X141618181Y62162603D01*
X141618181Y62162603D02*
X141615452Y62163710D01*
X141615452Y62163710D02*
X141583000Y62190491D01*
X141583000Y62190491D02*
X141565183Y62229579D01*
X141565183Y62229579D02*
X141562306Y62273315D01*
X141562306Y62273315D02*
X141574674Y62314038D01*
X141574674Y62314038D02*
X141602593Y62344087D01*
X141602593Y62344087D02*
X141608148Y62347204D01*
X141608148Y62347204D02*
X141642022Y62356961D01*
X141642022Y62356961D02*
X141690728Y62362277D01*
X141690728Y62362277D02*
X141746155Y62363279D01*
X141746155Y62363279D02*
X141746155Y62500633D01*
X141746155Y62500633D02*
X141725540Y62500568D01*
X141725540Y62500568D02*
X141692563Y62499664D01*
X141692563Y62499664D02*
X141610981Y62493514D01*
X141610981Y62493514D02*
X141549730Y62480733D01*
X141549730Y62480733D02*
X141504449Y62459471D01*
X141504449Y62459471D02*
X141470779Y62427878D01*
X141470779Y62427878D02*
X141451014Y62397207D01*
X141451014Y62397207D02*
X141437120Y62354354D01*
X141437120Y62354354D02*
X141432354Y62301056D01*
X141432354Y62301056D02*
X141436236Y62246480D01*
X141436236Y62246480D02*
X141448282Y62199792D01*
X141448282Y62199792D02*
X141462693Y62175124D01*
X141462693Y62175124D02*
X141485878Y62149505D01*
X141485878Y62149505D02*
X141192773Y62149505D01*
X141192773Y62149505D02*
X141192773Y62011188D01*
X141192773Y62011188D02*
X142047822Y62011188D01*
X142047822Y62011188D02*
X142047822Y62011188D01*
G36*
X141840571Y62499167D02*
G01*
X141878018Y62495962D01*
X141881450Y62495413D01*
X141942835Y62473838D01*
X141994877Y62434438D01*
X142030135Y62382752D01*
X142044729Y62327248D01*
X142043597Y62258977D01*
X142024029Y62196173D01*
X142015771Y62179815D01*
X142006923Y62158779D01*
X142009676Y62150774D01*
X142024029Y62149505D01*
X142031186Y62148922D01*
X142041772Y62141394D01*
X142046645Y62120488D01*
X142047822Y62080346D01*
X142047822Y62011188D01*
X141192773Y62011188D01*
X141192773Y62149505D01*
X141485878Y62149505D01*
X141462693Y62175124D01*
X141448282Y62199792D01*
X141436236Y62246480D01*
X141434327Y62273315D01*
X141562306Y62273315D01*
X141565183Y62229579D01*
X141583000Y62190491D01*
X141615452Y62163710D01*
X141618181Y62162603D01*
X141648634Y62155963D01*
X141694139Y62151278D01*
X141745930Y62149505D01*
X141798230Y62150496D01*
X141833050Y62154519D01*
X141856905Y62163108D01*
X141876895Y62177797D01*
X141906618Y62216584D01*
X141916582Y62261974D01*
X141904260Y62305989D01*
X141869888Y62343060D01*
X141844735Y62352859D01*
X141800194Y62360097D01*
X141746155Y62363279D01*
X141690728Y62362277D01*
X141642022Y62356961D01*
X141608148Y62347204D01*
X141602593Y62344087D01*
X141574674Y62314038D01*
X141562306Y62273315D01*
X141434327Y62273315D01*
X141432354Y62301056D01*
X141437120Y62354354D01*
X141451014Y62397207D01*
X141470779Y62427878D01*
X141504449Y62459471D01*
X141549730Y62480733D01*
X141610981Y62493514D01*
X141692563Y62499664D01*
X141725540Y62500568D01*
X141746155Y62500633D01*
X141786813Y62500761D01*
X141840571Y62499167D01*
G37*
X141840571Y62499167D02*
X141878018Y62495962D01*
X141881450Y62495413D01*
X141942835Y62473838D01*
X141994877Y62434438D01*
X142030135Y62382752D01*
X142044729Y62327248D01*
X142043597Y62258977D01*
X142024029Y62196173D01*
X142015771Y62179815D01*
X142006923Y62158779D01*
X142009676Y62150774D01*
X142024029Y62149505D01*
X142031186Y62148922D01*
X142041772Y62141394D01*
X142046645Y62120488D01*
X142047822Y62080346D01*
X142047822Y62011188D01*
X141192773Y62011188D01*
X141192773Y62149505D01*
X141485878Y62149505D01*
X141462693Y62175124D01*
X141448282Y62199792D01*
X141436236Y62246480D01*
X141434327Y62273315D01*
X141562306Y62273315D01*
X141565183Y62229579D01*
X141583000Y62190491D01*
X141615452Y62163710D01*
X141618181Y62162603D01*
X141648634Y62155963D01*
X141694139Y62151278D01*
X141745930Y62149505D01*
X141798230Y62150496D01*
X141833050Y62154519D01*
X141856905Y62163108D01*
X141876895Y62177797D01*
X141906618Y62216584D01*
X141916582Y62261974D01*
X141904260Y62305989D01*
X141869888Y62343060D01*
X141844735Y62352859D01*
X141800194Y62360097D01*
X141746155Y62363279D01*
X141690728Y62362277D01*
X141642022Y62356961D01*
X141608148Y62347204D01*
X141602593Y62344087D01*
X141574674Y62314038D01*
X141562306Y62273315D01*
X141434327Y62273315D01*
X141432354Y62301056D01*
X141437120Y62354354D01*
X141451014Y62397207D01*
X141470779Y62427878D01*
X141504449Y62459471D01*
X141549730Y62480733D01*
X141610981Y62493514D01*
X141692563Y62499664D01*
X141725540Y62500568D01*
X141746155Y62500633D01*
X141786813Y62500761D01*
X141840571Y62499167D01*
X140486457Y59132102D02*
X140494279Y59099904D01*
X140494279Y59099904D02*
X140522921Y59038175D01*
X140522921Y59038175D02*
X140566667Y58985390D01*
X140566667Y58985390D02*
X140619117Y58948859D01*
X140619117Y58948859D02*
X140630893Y58943840D01*
X140630893Y58943840D02*
X140661740Y58936955D01*
X140661740Y58936955D02*
X140707371Y58932136D01*
X140707371Y58932136D02*
X140753492Y58930495D01*
X140753492Y58930495D02*
X140840693Y58930495D01*
X140840693Y58930495D02*
X140840693Y59112822D01*
X140840693Y59112822D02*
X140840978Y59188021D01*
X140840978Y59188021D02*
X140842704Y59240997D01*
X140842704Y59240997D02*
X140847181Y59274675D01*
X140847181Y59274675D02*
X140855720Y59291980D01*
X140855720Y59291980D02*
X140869630Y59295837D01*
X140869630Y59295837D02*
X140890222Y59289171D01*
X140890222Y59289171D02*
X140914315Y59277230D01*
X140914315Y59277230D02*
X140954525Y59243920D01*
X140954525Y59243920D02*
X140974558Y59197632D01*
X140974558Y59197632D02*
X140973905Y59141056D01*
X140973905Y59141056D02*
X140952101Y59076969D01*
X140952101Y59076969D02*
X140925193Y59021583D01*
X140925193Y59021583D02*
X140961532Y58975625D01*
X140961532Y58975625D02*
X140997872Y58929667D01*
X140997872Y58929667D02*
X141037819Y58972904D01*
X141037819Y58972904D02*
X141075563Y59030626D01*
X141075563Y59030626D02*
X141098320Y59101614D01*
X141098320Y59101614D02*
X141104688Y59177971D01*
X141104688Y59177971D02*
X141093268Y59251801D01*
X141093268Y59251801D02*
X141089393Y59263713D01*
X141089393Y59263713D02*
X141055506Y59328601D01*
X141055506Y59328601D02*
X141004986Y59376870D01*
X141004986Y59376870D02*
X140936325Y59409535D01*
X140936325Y59409535D02*
X140848014Y59427615D01*
X140848014Y59427615D02*
X140846121Y59427825D01*
X140846121Y59427825D02*
X140749878Y59429444D01*
X140749878Y59429444D02*
X140715542Y59422900D01*
X140715542Y59422900D02*
X140715542Y59295148D01*
X140715542Y59295148D02*
X140720822Y59283416D01*
X140720822Y59283416D02*
X140724867Y59251562D01*
X140724867Y59251562D02*
X140727176Y59204603D01*
X140727176Y59204603D02*
X140727525Y59174846D01*
X140727525Y59174846D02*
X140727306Y59119352D01*
X140727306Y59119352D02*
X140725916Y59084654D01*
X140725916Y59084654D02*
X140722251Y59066399D01*
X140722251Y59066399D02*
X140715210Y59060234D01*
X140715210Y59060234D02*
X140703690Y59061805D01*
X140703690Y59061805D02*
X140699233Y59063122D01*
X140699233Y59063122D02*
X140657355Y59085618D01*
X140657355Y59085618D02*
X140623604Y59120997D01*
X140623604Y59120997D02*
X140608773Y59152220D01*
X140608773Y59152220D02*
X140609668Y59193699D01*
X140609668Y59193699D02*
X140628164Y59235731D01*
X140628164Y59235731D02*
X140658786Y59270988D01*
X140658786Y59270988D02*
X140696062Y59292146D01*
X140696062Y59292146D02*
X140715542Y59295148D01*
X140715542Y59295148D02*
X140715542Y59422900D01*
X140715542Y59422900D02*
X140665229Y59413310D01*
X140665229Y59413310D02*
X140594191Y59381302D01*
X140594191Y59381302D02*
X140538779Y59335299D01*
X140538779Y59335299D02*
X140501009Y59277179D01*
X140501009Y59277179D02*
X140482896Y59208820D01*
X140482896Y59208820D02*
X140486457Y59132102D01*
X140486457Y59132102D02*
X140486457Y59132102D01*
G36*
X140846121Y59427825D02*
G01*
X140848014Y59427615D01*
X140936325Y59409535D01*
X141004986Y59376870D01*
X141055506Y59328601D01*
X141089393Y59263713D01*
X141093268Y59251801D01*
X141104688Y59177971D01*
X141098320Y59101614D01*
X141075563Y59030626D01*
X141037819Y58972904D01*
X140997872Y58929667D01*
X140961532Y58975625D01*
X140925193Y59021583D01*
X140952101Y59076969D01*
X140973905Y59141056D01*
X140974558Y59197632D01*
X140954525Y59243920D01*
X140914315Y59277230D01*
X140890222Y59289171D01*
X140869630Y59295837D01*
X140855720Y59291980D01*
X140847181Y59274675D01*
X140842704Y59240997D01*
X140840978Y59188021D01*
X140840693Y59112822D01*
X140840693Y58930495D01*
X140753492Y58930495D01*
X140707371Y58932136D01*
X140661740Y58936955D01*
X140630893Y58943840D01*
X140619117Y58948859D01*
X140566667Y58985390D01*
X140522921Y59038175D01*
X140494279Y59099904D01*
X140486457Y59132102D01*
X140485523Y59152220D01*
X140608773Y59152220D01*
X140623604Y59120997D01*
X140657355Y59085618D01*
X140699233Y59063122D01*
X140703690Y59061805D01*
X140715210Y59060234D01*
X140722251Y59066399D01*
X140725916Y59084654D01*
X140727306Y59119352D01*
X140727525Y59174846D01*
X140727176Y59204603D01*
X140724867Y59251562D01*
X140720822Y59283416D01*
X140715542Y59295148D01*
X140696062Y59292146D01*
X140658786Y59270988D01*
X140628164Y59235731D01*
X140609668Y59193699D01*
X140608773Y59152220D01*
X140485523Y59152220D01*
X140482896Y59208820D01*
X140501009Y59277179D01*
X140538779Y59335299D01*
X140594191Y59381302D01*
X140665229Y59413310D01*
X140715542Y59422900D01*
X140749878Y59429444D01*
X140846121Y59427825D01*
G37*
X140846121Y59427825D02*
X140848014Y59427615D01*
X140936325Y59409535D01*
X141004986Y59376870D01*
X141055506Y59328601D01*
X141089393Y59263713D01*
X141093268Y59251801D01*
X141104688Y59177971D01*
X141098320Y59101614D01*
X141075563Y59030626D01*
X141037819Y58972904D01*
X140997872Y58929667D01*
X140961532Y58975625D01*
X140925193Y59021583D01*
X140952101Y59076969D01*
X140973905Y59141056D01*
X140974558Y59197632D01*
X140954525Y59243920D01*
X140914315Y59277230D01*
X140890222Y59289171D01*
X140869630Y59295837D01*
X140855720Y59291980D01*
X140847181Y59274675D01*
X140842704Y59240997D01*
X140840978Y59188021D01*
X140840693Y59112822D01*
X140840693Y58930495D01*
X140753492Y58930495D01*
X140707371Y58932136D01*
X140661740Y58936955D01*
X140630893Y58943840D01*
X140619117Y58948859D01*
X140566667Y58985390D01*
X140522921Y59038175D01*
X140494279Y59099904D01*
X140486457Y59132102D01*
X140485523Y59152220D01*
X140608773Y59152220D01*
X140623604Y59120997D01*
X140657355Y59085618D01*
X140699233Y59063122D01*
X140703690Y59061805D01*
X140715210Y59060234D01*
X140722251Y59066399D01*
X140725916Y59084654D01*
X140727306Y59119352D01*
X140727525Y59174846D01*
X140727176Y59204603D01*
X140724867Y59251562D01*
X140720822Y59283416D01*
X140715542Y59295148D01*
X140696062Y59292146D01*
X140658786Y59270988D01*
X140628164Y59235731D01*
X140609668Y59193699D01*
X140608773Y59152220D01*
X140485523Y59152220D01*
X140482896Y59208820D01*
X140501009Y59277179D01*
X140538779Y59335299D01*
X140594191Y59381302D01*
X140665229Y59413310D01*
X140715542Y59422900D01*
X140749878Y59429444D01*
X140846121Y59427825D01*
X140488030Y60010540D02*
X140501245Y59967289D01*
X140501245Y59967289D02*
X140517941Y59939442D01*
X140517941Y59939442D02*
X140531145Y59930371D01*
X140531145Y59930371D02*
X140546797Y59932868D01*
X140546797Y59932868D02*
X140571385Y59949069D01*
X140571385Y59949069D02*
X140588800Y59962768D01*
X140588800Y59962768D02*
X140620283Y59991008D01*
X140620283Y59991008D02*
X140633529Y60012225D01*
X140633529Y60012225D02*
X140632664Y60030312D01*
X140632664Y60030312D02*
X140619010Y60083965D01*
X140619010Y60083965D02*
X140619630Y60123370D01*
X140619630Y60123370D02*
X140635104Y60155368D01*
X140635104Y60155368D02*
X140644161Y60166110D01*
X140644161Y60166110D02*
X140676027Y60200495D01*
X140676027Y60200495D02*
X141092179Y60200495D01*
X141092179Y60200495D02*
X141092179Y60338812D01*
X141092179Y60338812D02*
X140488614Y60338812D01*
X140488614Y60338812D02*
X140488614Y60269653D01*
X140488614Y60269653D02*
X140490256Y60228131D01*
X140490256Y60228131D02*
X140496087Y60206709D01*
X140496087Y60206709D02*
X140507461Y60200498D01*
X140507461Y60200498D02*
X140507798Y60200495D01*
X140507798Y60200495D02*
X140519713Y60197561D01*
X140519713Y60197561D02*
X140518159Y60184296D01*
X140518159Y60184296D02*
X140509563Y60165916D01*
X140509563Y60165916D02*
X140493568Y60127954D01*
X140493568Y60127954D02*
X140483945Y60097128D01*
X140483945Y60097128D02*
X140481478Y60057464D01*
X140481478Y60057464D02*
X140488030Y60010540D01*
X140488030Y60010540D02*
X140488030Y60010540D01*
G36*
X141092179Y60200495D02*
G01*
X140676027Y60200495D01*
X140644161Y60166110D01*
X140635104Y60155368D01*
X140619630Y60123370D01*
X140619010Y60083965D01*
X140632664Y60030312D01*
X140633529Y60012225D01*
X140620283Y59991008D01*
X140588800Y59962768D01*
X140571385Y59949069D01*
X140546797Y59932868D01*
X140531145Y59930371D01*
X140517941Y59939442D01*
X140501245Y59967289D01*
X140488030Y60010540D01*
X140481478Y60057464D01*
X140483945Y60097128D01*
X140493568Y60127954D01*
X140509563Y60165916D01*
X140518159Y60184296D01*
X140519713Y60197561D01*
X140507798Y60200495D01*
X140507461Y60200498D01*
X140496087Y60206709D01*
X140490256Y60228131D01*
X140488614Y60269653D01*
X140488614Y60338812D01*
X141092179Y60338812D01*
X141092179Y60200495D01*
G37*
X141092179Y60200495D02*
X140676027Y60200495D01*
X140644161Y60166110D01*
X140635104Y60155368D01*
X140619630Y60123370D01*
X140619010Y60083965D01*
X140632664Y60030312D01*
X140633529Y60012225D01*
X140620283Y59991008D01*
X140588800Y59962768D01*
X140571385Y59949069D01*
X140546797Y59932868D01*
X140531145Y59930371D01*
X140517941Y59939442D01*
X140501245Y59967289D01*
X140488030Y60010540D01*
X140481478Y60057464D01*
X140483945Y60097128D01*
X140493568Y60127954D01*
X140509563Y60165916D01*
X140518159Y60184296D01*
X140519713Y60197561D01*
X140507798Y60200495D01*
X140507461Y60200498D01*
X140496087Y60206709D01*
X140490256Y60228131D01*
X140488614Y60269653D01*
X140488614Y60338812D01*
X141092179Y60338812D01*
X141092179Y60200495D01*
X140499184Y63718759D02*
X140512282Y63692247D01*
X140512282Y63692247D02*
X140535106Y63659553D01*
X140535106Y63659553D02*
X140559996Y63635725D01*
X140559996Y63635725D02*
X140591249Y63619406D01*
X140591249Y63619406D02*
X140633166Y63609240D01*
X140633166Y63609240D02*
X140690044Y63603872D01*
X140690044Y63603872D02*
X140766184Y63601944D01*
X140766184Y63601944D02*
X140798917Y63601831D01*
X140798917Y63601831D02*
X140870656Y63602161D01*
X140870656Y63602161D02*
X140921927Y63603527D01*
X140921927Y63603527D02*
X140957404Y63606500D01*
X140957404Y63606500D02*
X140981763Y63611649D01*
X140981763Y63611649D02*
X140999680Y63619543D01*
X140999680Y63619543D02*
X141011902Y63627757D01*
X141011902Y63627757D02*
X141063905Y63680187D01*
X141063905Y63680187D02*
X141095184Y63741930D01*
X141095184Y63741930D02*
X141104592Y63808536D01*
X141104592Y63808536D02*
X141090980Y63875558D01*
X141090980Y63875558D02*
X141081354Y63896792D01*
X141081354Y63896792D02*
X141054859Y63947624D01*
X141054859Y63947624D02*
X141470052Y63947624D01*
X141470052Y63947624D02*
X141450868Y63910525D01*
X141450868Y63910525D02*
X141436025Y63861643D01*
X141436025Y63861643D02*
X141432222Y63801561D01*
X141432222Y63801561D02*
X141439243Y63741564D01*
X141439243Y63741564D02*
X141455013Y63696256D01*
X141455013Y63696256D02*
X141485047Y63658675D01*
X141485047Y63658675D02*
X141528024Y63626564D01*
X141528024Y63626564D02*
X141532436Y63624150D01*
X141532436Y63624150D02*
X141553221Y63613967D01*
X141553221Y63613967D02*
X141574170Y63606530D01*
X141574170Y63606530D02*
X141599548Y63601411D01*
X141599548Y63601411D02*
X141633618Y63598181D01*
X141633618Y63598181D02*
X141680641Y63596413D01*
X141680641Y63596413D02*
X141744882Y63595677D01*
X141744882Y63595677D02*
X141817176Y63595544D01*
X141817176Y63595544D02*
X142047822Y63595544D01*
X142047822Y63595544D02*
X142047822Y63733861D01*
X142047822Y63733861D02*
X141622533Y63733861D01*
X141622533Y63733861D02*
X141589979Y63772549D01*
X141589979Y63772549D02*
X141563940Y63812738D01*
X141563940Y63812738D02*
X141559205Y63850797D01*
X141559205Y63850797D02*
X141571389Y63889066D01*
X141571389Y63889066D02*
X141583320Y63909462D01*
X141583320Y63909462D02*
X141600313Y63924642D01*
X141600313Y63924642D02*
X141625995Y63935438D01*
X141625995Y63935438D02*
X141663991Y63942683D01*
X141663991Y63942683D02*
X141717926Y63947208D01*
X141717926Y63947208D02*
X141791425Y63949844D01*
X141791425Y63949844D02*
X141840347Y63950772D01*
X141840347Y63950772D02*
X142041535Y63953911D01*
X142041535Y63953911D02*
X142045336Y64019926D01*
X142045336Y64019926D02*
X142049136Y64085940D01*
X142049136Y64085940D02*
X140800650Y64085940D01*
X140800650Y64085940D02*
X140800650Y63947624D01*
X140800650Y63947624D02*
X140870254Y63944097D01*
X140870254Y63944097D02*
X140918569Y63932215D01*
X140918569Y63932215D02*
X140948631Y63910020D01*
X140948631Y63910020D02*
X140963471Y63875559D01*
X140963471Y63875559D02*
X140966436Y63840742D01*
X140966436Y63840742D02*
X140963028Y63801329D01*
X140963028Y63801329D02*
X140949617Y63775171D01*
X140949617Y63775171D02*
X140931896Y63758814D01*
X140931896Y63758814D02*
X140912835Y63745937D01*
X140912835Y63745937D02*
X140891601Y63738272D01*
X140891601Y63738272D02*
X140861849Y63734861D01*
X140861849Y63734861D02*
X140817236Y63734749D01*
X140817236Y63734749D02*
X140779880Y63735897D01*
X140779880Y63735897D02*
X140723604Y63738532D01*
X140723604Y63738532D02*
X140686658Y63742456D01*
X140686658Y63742456D02*
X140663223Y63749063D01*
X140663223Y63749063D02*
X140647480Y63759749D01*
X140647480Y63759749D02*
X140638380Y63769833D01*
X140638380Y63769833D02*
X140618537Y63811970D01*
X140618537Y63811970D02*
X140615332Y63861840D01*
X140615332Y63861840D02*
X140622168Y63890476D01*
X140622168Y63890476D02*
X140646464Y63918828D01*
X140646464Y63918828D02*
X140693728Y63937609D01*
X140693728Y63937609D02*
X140763624Y63946712D01*
X140763624Y63946712D02*
X140800650Y63947624D01*
X140800650Y63947624D02*
X140800650Y64085940D01*
X140800650Y64085940D02*
X140488614Y64085940D01*
X140488614Y64085940D02*
X140488614Y64016782D01*
X140488614Y64016782D02*
X140490256Y63975260D01*
X140490256Y63975260D02*
X140496087Y63953838D01*
X140496087Y63953838D02*
X140507461Y63947626D01*
X140507461Y63947626D02*
X140507798Y63947624D01*
X140507798Y63947624D02*
X140518938Y63944742D01*
X140518938Y63944742D02*
X140517673Y63932030D01*
X140517673Y63932030D02*
X140505433Y63906757D01*
X140505433Y63906757D02*
X140486707Y63847869D01*
X140486707Y63847869D02*
X140484739Y63781615D01*
X140484739Y63781615D02*
X140499184Y63718759D01*
X140499184Y63718759D02*
X140499184Y63718759D01*
G36*
X142045336Y64019926D02*
G01*
X142041535Y63953911D01*
X141840347Y63950772D01*
X141791425Y63949844D01*
X141717926Y63947208D01*
X141663991Y63942683D01*
X141625995Y63935438D01*
X141600313Y63924642D01*
X141583320Y63909462D01*
X141571389Y63889066D01*
X141559205Y63850797D01*
X141563940Y63812738D01*
X141589979Y63772549D01*
X141622533Y63733861D01*
X142047822Y63733861D01*
X142047822Y63595544D01*
X141817176Y63595544D01*
X141744882Y63595677D01*
X141680641Y63596413D01*
X141633618Y63598181D01*
X141599548Y63601411D01*
X141574170Y63606530D01*
X141553221Y63613967D01*
X141532436Y63624150D01*
X141528024Y63626564D01*
X141485047Y63658675D01*
X141455013Y63696256D01*
X141439243Y63741564D01*
X141432222Y63801561D01*
X141436025Y63861643D01*
X141450868Y63910525D01*
X141470052Y63947624D01*
X141054859Y63947624D01*
X141081354Y63896792D01*
X141090980Y63875558D01*
X141104592Y63808536D01*
X141095184Y63741930D01*
X141063905Y63680187D01*
X141011902Y63627757D01*
X140999680Y63619543D01*
X140981763Y63611649D01*
X140957404Y63606500D01*
X140921927Y63603527D01*
X140870656Y63602161D01*
X140798917Y63601831D01*
X140766184Y63601944D01*
X140690044Y63603872D01*
X140633166Y63609240D01*
X140591249Y63619406D01*
X140559996Y63635725D01*
X140535106Y63659553D01*
X140512282Y63692247D01*
X140499184Y63718759D01*
X140484739Y63781615D01*
X140486707Y63847869D01*
X140491150Y63861840D01*
X140615332Y63861840D01*
X140618537Y63811970D01*
X140638380Y63769833D01*
X140647480Y63759749D01*
X140663223Y63749063D01*
X140686658Y63742456D01*
X140723604Y63738532D01*
X140779880Y63735897D01*
X140817236Y63734749D01*
X140861849Y63734861D01*
X140891601Y63738272D01*
X140912835Y63745937D01*
X140931896Y63758814D01*
X140949617Y63775171D01*
X140963028Y63801329D01*
X140966436Y63840742D01*
X140963471Y63875559D01*
X140948631Y63910020D01*
X140918569Y63932215D01*
X140870254Y63944097D01*
X140800650Y63947624D01*
X140763624Y63946712D01*
X140693728Y63937609D01*
X140646464Y63918828D01*
X140622168Y63890476D01*
X140615332Y63861840D01*
X140491150Y63861840D01*
X140505433Y63906757D01*
X140517673Y63932030D01*
X140518938Y63944742D01*
X140507798Y63947624D01*
X140507461Y63947626D01*
X140496087Y63953838D01*
X140490256Y63975260D01*
X140488614Y64016782D01*
X140488614Y64085940D01*
X142049136Y64085940D01*
X142045336Y64019926D01*
G37*
X142045336Y64019926D02*
X142041535Y63953911D01*
X141840347Y63950772D01*
X141791425Y63949844D01*
X141717926Y63947208D01*
X141663991Y63942683D01*
X141625995Y63935438D01*
X141600313Y63924642D01*
X141583320Y63909462D01*
X141571389Y63889066D01*
X141559205Y63850797D01*
X141563940Y63812738D01*
X141589979Y63772549D01*
X141622533Y63733861D01*
X142047822Y63733861D01*
X142047822Y63595544D01*
X141817176Y63595544D01*
X141744882Y63595677D01*
X141680641Y63596413D01*
X141633618Y63598181D01*
X141599548Y63601411D01*
X141574170Y63606530D01*
X141553221Y63613967D01*
X141532436Y63624150D01*
X141528024Y63626564D01*
X141485047Y63658675D01*
X141455013Y63696256D01*
X141439243Y63741564D01*
X141432222Y63801561D01*
X141436025Y63861643D01*
X141450868Y63910525D01*
X141470052Y63947624D01*
X141054859Y63947624D01*
X141081354Y63896792D01*
X141090980Y63875558D01*
X141104592Y63808536D01*
X141095184Y63741930D01*
X141063905Y63680187D01*
X141011902Y63627757D01*
X140999680Y63619543D01*
X140981763Y63611649D01*
X140957404Y63606500D01*
X140921927Y63603527D01*
X140870656Y63602161D01*
X140798917Y63601831D01*
X140766184Y63601944D01*
X140690044Y63603872D01*
X140633166Y63609240D01*
X140591249Y63619406D01*
X140559996Y63635725D01*
X140535106Y63659553D01*
X140512282Y63692247D01*
X140499184Y63718759D01*
X140484739Y63781615D01*
X140486707Y63847869D01*
X140491150Y63861840D01*
X140615332Y63861840D01*
X140618537Y63811970D01*
X140638380Y63769833D01*
X140647480Y63759749D01*
X140663223Y63749063D01*
X140686658Y63742456D01*
X140723604Y63738532D01*
X140779880Y63735897D01*
X140817236Y63734749D01*
X140861849Y63734861D01*
X140891601Y63738272D01*
X140912835Y63745937D01*
X140931896Y63758814D01*
X140949617Y63775171D01*
X140963028Y63801329D01*
X140966436Y63840742D01*
X140963471Y63875559D01*
X140948631Y63910020D01*
X140918569Y63932215D01*
X140870254Y63944097D01*
X140800650Y63947624D01*
X140763624Y63946712D01*
X140693728Y63937609D01*
X140646464Y63918828D01*
X140622168Y63890476D01*
X140615332Y63861840D01*
X140491150Y63861840D01*
X140505433Y63906757D01*
X140517673Y63932030D01*
X140518938Y63944742D01*
X140507798Y63947624D01*
X140507461Y63947626D01*
X140496087Y63953838D01*
X140490256Y63975260D01*
X140488614Y64016782D01*
X140488614Y64085940D01*
X142049136Y64085940D01*
X142045336Y64019926D01*
X141433020Y62803356D02*
X141438660Y62784539D01*
X141438660Y62784539D02*
X141451053Y62778473D01*
X141451053Y62778473D02*
X141456647Y62778218D01*
X141456647Y62778218D02*
X141472230Y62777129D01*
X141472230Y62777129D02*
X141474676Y62769632D01*
X141474676Y62769632D02*
X141463993Y62749381D01*
X141463993Y62749381D02*
X141456694Y62737351D01*
X141456694Y62737351D02*
X141441063Y62699400D01*
X141441063Y62699400D02*
X141433334Y62654072D01*
X141433334Y62654072D02*
X141432740Y62606544D01*
X141432740Y62606544D02*
X141438513Y62561995D01*
X141438513Y62561995D02*
X141449884Y62525602D01*
X141449884Y62525602D02*
X141466088Y62502543D01*
X141466088Y62502543D02*
X141486355Y62497996D01*
X141486355Y62497996D02*
X141491843Y62500291D01*
X141491843Y62500291D02*
X141514626Y62517020D01*
X141514626Y62517020D02*
X141542647Y62542963D01*
X141542647Y62542963D02*
X141547177Y62547655D01*
X141547177Y62547655D02*
X141568005Y62572383D01*
X141568005Y62572383D02*
X141574735Y62593718D01*
X141574735Y62593718D02*
X141570038Y62623555D01*
X141570038Y62623555D02*
X141566917Y62635508D01*
X141566917Y62635508D02*
X141559421Y62672705D01*
X141559421Y62672705D02*
X141562792Y62698859D01*
X141562792Y62698859D02*
X141574681Y62720946D01*
X141574681Y62720946D02*
X141590635Y62741178D01*
X141590635Y62741178D02*
X141610700Y62756079D01*
X141610700Y62756079D02*
X141638702Y62766434D01*
X141638702Y62766434D02*
X141678467Y62773029D01*
X141678467Y62773029D02*
X141733823Y62776649D01*
X141733823Y62776649D02*
X141808594Y62778078D01*
X141808594Y62778078D02*
X141853740Y62778218D01*
X141853740Y62778218D02*
X142047822Y62778218D01*
X142047822Y62778218D02*
X142047822Y62903960D01*
X142047822Y62903960D02*
X141431683Y62903960D01*
X141431683Y62903960D02*
X141431683Y62841089D01*
X141431683Y62841089D02*
X141433020Y62803356D01*
X141433020Y62803356D02*
X141433020Y62803356D01*
G36*
X142047822Y62778218D02*
G01*
X141853740Y62778218D01*
X141808594Y62778078D01*
X141733823Y62776649D01*
X141678467Y62773029D01*
X141638702Y62766434D01*
X141610700Y62756079D01*
X141590635Y62741178D01*
X141574681Y62720946D01*
X141562792Y62698859D01*
X141559421Y62672705D01*
X141566917Y62635508D01*
X141570038Y62623555D01*
X141574735Y62593718D01*
X141568005Y62572383D01*
X141547177Y62547655D01*
X141542647Y62542963D01*
X141514626Y62517020D01*
X141491843Y62500291D01*
X141486355Y62497996D01*
X141466088Y62502543D01*
X141449884Y62525602D01*
X141438513Y62561995D01*
X141432740Y62606544D01*
X141433334Y62654072D01*
X141441063Y62699400D01*
X141456694Y62737351D01*
X141463993Y62749381D01*
X141474676Y62769632D01*
X141472230Y62777129D01*
X141456647Y62778218D01*
X141451053Y62778473D01*
X141438660Y62784539D01*
X141433020Y62803356D01*
X141431683Y62841089D01*
X141431683Y62903960D01*
X142047822Y62903960D01*
X142047822Y62778218D01*
G37*
X142047822Y62778218D02*
X141853740Y62778218D01*
X141808594Y62778078D01*
X141733823Y62776649D01*
X141678467Y62773029D01*
X141638702Y62766434D01*
X141610700Y62756079D01*
X141590635Y62741178D01*
X141574681Y62720946D01*
X141562792Y62698859D01*
X141559421Y62672705D01*
X141566917Y62635508D01*
X141570038Y62623555D01*
X141574735Y62593718D01*
X141568005Y62572383D01*
X141547177Y62547655D01*
X141542647Y62542963D01*
X141514626Y62517020D01*
X141491843Y62500291D01*
X141486355Y62497996D01*
X141466088Y62502543D01*
X141449884Y62525602D01*
X141438513Y62561995D01*
X141432740Y62606544D01*
X141433334Y62654072D01*
X141441063Y62699400D01*
X141456694Y62737351D01*
X141463993Y62749381D01*
X141474676Y62769632D01*
X141472230Y62777129D01*
X141456647Y62778218D01*
X141451053Y62778473D01*
X141438660Y62784539D01*
X141433020Y62803356D01*
X141431683Y62841089D01*
X141431683Y62903960D01*
X142047822Y62903960D01*
X142047822Y62778218D01*
X140499002Y62564012D02*
X140513950Y62532717D01*
X140513950Y62532717D02*
X140535541Y62502409D01*
X140535541Y62502409D02*
X140560391Y62479318D01*
X140560391Y62479318D02*
X140592087Y62462500D01*
X140592087Y62462500D02*
X140634214Y62451006D01*
X140634214Y62451006D02*
X140690358Y62443891D01*
X140690358Y62443891D02*
X140764106Y62440207D01*
X140764106Y62440207D02*
X140859044Y62439008D01*
X140859044Y62439008D02*
X140868985Y62438989D01*
X140868985Y62438989D02*
X141092179Y62438713D01*
X141092179Y62438713D02*
X141092179Y62577030D01*
X141092179Y62577030D02*
X140886418Y62577030D01*
X140886418Y62577030D02*
X140810189Y62577128D01*
X140810189Y62577128D02*
X140754939Y62577809D01*
X140754939Y62577809D02*
X140716501Y62579651D01*
X140716501Y62579651D02*
X140690706Y62583233D01*
X140690706Y62583233D02*
X140673384Y62589132D01*
X140673384Y62589132D02*
X140660368Y62597927D01*
X140660368Y62597927D02*
X140647507Y62610180D01*
X140647507Y62610180D02*
X140619873Y62653047D01*
X140619873Y62653047D02*
X140614745Y62699843D01*
X140614745Y62699843D02*
X140632217Y62744424D01*
X140632217Y62744424D02*
X140645221Y62759928D01*
X140645221Y62759928D02*
X140657447Y62771310D01*
X140657447Y62771310D02*
X140670540Y62779481D01*
X140670540Y62779481D02*
X140688615Y62784974D01*
X140688615Y62784974D02*
X140715787Y62788320D01*
X140715787Y62788320D02*
X140756170Y62790051D01*
X140756170Y62790051D02*
X140813879Y62790697D01*
X140813879Y62790697D02*
X140884132Y62790792D01*
X140884132Y62790792D02*
X141092179Y62790792D01*
X141092179Y62790792D02*
X141092179Y62929109D01*
X141092179Y62929109D02*
X140488614Y62929109D01*
X140488614Y62929109D02*
X140488614Y62859950D01*
X140488614Y62859950D02*
X140490256Y62818428D01*
X140490256Y62818428D02*
X140496087Y62797006D01*
X140496087Y62797006D02*
X140507461Y62790795D01*
X140507461Y62790795D02*
X140507798Y62790792D01*
X140507798Y62790792D02*
X140518938Y62787910D01*
X140518938Y62787910D02*
X140517674Y62775199D01*
X140517674Y62775199D02*
X140505434Y62749926D01*
X140505434Y62749926D02*
X140487424Y62692605D01*
X140487424Y62692605D02*
X140485421Y62627037D01*
X140485421Y62627037D02*
X140499002Y62564012D01*
X140499002Y62564012D02*
X140499002Y62564012D01*
G36*
X141092179Y62790792D02*
G01*
X140884132Y62790792D01*
X140813879Y62790697D01*
X140756170Y62790051D01*
X140715787Y62788320D01*
X140688615Y62784974D01*
X140670540Y62779481D01*
X140657447Y62771310D01*
X140645221Y62759928D01*
X140632217Y62744424D01*
X140614745Y62699843D01*
X140619873Y62653047D01*
X140647507Y62610180D01*
X140660368Y62597927D01*
X140673384Y62589132D01*
X140690706Y62583233D01*
X140716501Y62579651D01*
X140754939Y62577809D01*
X140810189Y62577128D01*
X140886418Y62577030D01*
X141092179Y62577030D01*
X141092179Y62438713D01*
X140868985Y62438989D01*
X140859044Y62439008D01*
X140764106Y62440207D01*
X140690358Y62443891D01*
X140634214Y62451006D01*
X140592087Y62462500D01*
X140560391Y62479318D01*
X140535541Y62502409D01*
X140513950Y62532717D01*
X140499002Y62564012D01*
X140485421Y62627037D01*
X140487424Y62692605D01*
X140505434Y62749926D01*
X140517674Y62775199D01*
X140518938Y62787910D01*
X140507798Y62790792D01*
X140507461Y62790795D01*
X140496087Y62797006D01*
X140490256Y62818428D01*
X140488614Y62859950D01*
X140488614Y62929109D01*
X141092179Y62929109D01*
X141092179Y62790792D01*
G37*
X141092179Y62790792D02*
X140884132Y62790792D01*
X140813879Y62790697D01*
X140756170Y62790051D01*
X140715787Y62788320D01*
X140688615Y62784974D01*
X140670540Y62779481D01*
X140657447Y62771310D01*
X140645221Y62759928D01*
X140632217Y62744424D01*
X140614745Y62699843D01*
X140619873Y62653047D01*
X140647507Y62610180D01*
X140660368Y62597927D01*
X140673384Y62589132D01*
X140690706Y62583233D01*
X140716501Y62579651D01*
X140754939Y62577809D01*
X140810189Y62577128D01*
X140886418Y62577030D01*
X141092179Y62577030D01*
X141092179Y62438713D01*
X140868985Y62438989D01*
X140859044Y62439008D01*
X140764106Y62440207D01*
X140690358Y62443891D01*
X140634214Y62451006D01*
X140592087Y62462500D01*
X140560391Y62479318D01*
X140535541Y62502409D01*
X140513950Y62532717D01*
X140499002Y62564012D01*
X140485421Y62627037D01*
X140487424Y62692605D01*
X140505434Y62749926D01*
X140517674Y62775199D01*
X140518938Y62787910D01*
X140507798Y62790792D01*
X140507461Y62790795D01*
X140496087Y62797006D01*
X140490256Y62818428D01*
X140488614Y62859950D01*
X140488614Y62929109D01*
X141092179Y62929109D01*
X141092179Y62790792D01*
X140493880Y59592774D02*
X140524830Y59519920D01*
X140524830Y59519920D02*
X140539895Y59496973D01*
X140539895Y59496973D02*
X140563048Y59467646D01*
X140563048Y59467646D02*
X140581253Y59449236D01*
X140581253Y59449236D02*
X140587183Y59446039D01*
X140587183Y59446039D02*
X140600340Y59455065D01*
X140600340Y59455065D02*
X140622667Y59478163D01*
X140622667Y59478163D02*
X140638250Y59496656D01*
X140638250Y59496656D02*
X140678926Y59547272D01*
X140678926Y59547272D02*
X140645295Y59587240D01*
X140645295Y59587240D02*
X140623584Y59618126D01*
X140623584Y59618126D02*
X140616090Y59648241D01*
X140616090Y59648241D02*
X140617920Y59682708D01*
X140617920Y59682708D02*
X140631528Y59737439D01*
X140631528Y59737439D02*
X140659772Y59775114D01*
X140659772Y59775114D02*
X140705433Y59798009D01*
X140705433Y59798009D02*
X140771289Y59808403D01*
X140771289Y59808403D02*
X140771331Y59808405D01*
X140771331Y59808405D02*
X140844939Y59807506D01*
X140844939Y59807506D02*
X140898946Y59793537D01*
X140898946Y59793537D02*
X140935716Y59765672D01*
X140935716Y59765672D02*
X140948168Y59746675D01*
X140948168Y59746675D02*
X140963673Y59696224D01*
X140963673Y59696224D02*
X140963683Y59642337D01*
X140963683Y59642337D02*
X140948638Y59595454D01*
X140948638Y59595454D02*
X140941287Y59584356D01*
X140941287Y59584356D02*
X140922511Y59556524D01*
X140922511Y59556524D02*
X140919434Y59534764D01*
X140919434Y59534764D02*
X140933409Y59511296D01*
X140933409Y59511296D02*
X140958510Y59485351D01*
X140958510Y59485351D02*
X141000880Y59444284D01*
X141000880Y59444284D02*
X141038464Y59489879D01*
X141038464Y59489879D02*
X141080882Y59560326D01*
X141080882Y59560326D02*
X141101785Y59639767D01*
X141101785Y59639767D02*
X141100272Y59722785D01*
X141100272Y59722785D02*
X141086411Y59777306D01*
X141086411Y59777306D02*
X141052135Y59841030D01*
X141052135Y59841030D02*
X140998212Y59891995D01*
X140998212Y59891995D02*
X140960149Y59915149D01*
X140960149Y59915149D02*
X140905536Y59933901D01*
X140905536Y59933901D02*
X140836369Y59943285D01*
X140836369Y59943285D02*
X140761407Y59943357D01*
X140761407Y59943357D02*
X140689409Y59934176D01*
X140689409Y59934176D02*
X140629137Y59915801D01*
X140629137Y59915801D02*
X140622958Y59912907D01*
X140622958Y59912907D02*
X140562351Y59870048D01*
X140562351Y59870048D02*
X140518224Y59812021D01*
X140518224Y59812021D02*
X140491493Y59743409D01*
X140491493Y59743409D02*
X140483073Y59668799D01*
X140483073Y59668799D02*
X140493880Y59592774D01*
X140493880Y59592774D02*
X140493880Y59592774D01*
G36*
X140836369Y59943285D02*
G01*
X140905536Y59933901D01*
X140960149Y59915149D01*
X140998212Y59891995D01*
X141052135Y59841030D01*
X141086411Y59777306D01*
X141100272Y59722785D01*
X141101785Y59639767D01*
X141080882Y59560326D01*
X141038464Y59489879D01*
X141000880Y59444284D01*
X140958510Y59485351D01*
X140933409Y59511296D01*
X140919434Y59534764D01*
X140922511Y59556524D01*
X140941287Y59584356D01*
X140948638Y59595454D01*
X140963683Y59642337D01*
X140963673Y59696224D01*
X140948168Y59746675D01*
X140935716Y59765672D01*
X140898946Y59793537D01*
X140844939Y59807506D01*
X140771331Y59808405D01*
X140771289Y59808403D01*
X140705433Y59798009D01*
X140659772Y59775114D01*
X140631528Y59737439D01*
X140617920Y59682708D01*
X140616090Y59648241D01*
X140623584Y59618126D01*
X140645295Y59587240D01*
X140678926Y59547272D01*
X140638250Y59496656D01*
X140622667Y59478163D01*
X140600340Y59455065D01*
X140587183Y59446039D01*
X140581253Y59449236D01*
X140563048Y59467646D01*
X140539895Y59496973D01*
X140524830Y59519920D01*
X140493880Y59592774D01*
X140483073Y59668799D01*
X140491493Y59743409D01*
X140518224Y59812021D01*
X140562351Y59870048D01*
X140622958Y59912907D01*
X140629137Y59915801D01*
X140689409Y59934176D01*
X140761407Y59943357D01*
X140836369Y59943285D01*
G37*
X140836369Y59943285D02*
X140905536Y59933901D01*
X140960149Y59915149D01*
X140998212Y59891995D01*
X141052135Y59841030D01*
X141086411Y59777306D01*
X141100272Y59722785D01*
X141101785Y59639767D01*
X141080882Y59560326D01*
X141038464Y59489879D01*
X141000880Y59444284D01*
X140958510Y59485351D01*
X140933409Y59511296D01*
X140919434Y59534764D01*
X140922511Y59556524D01*
X140941287Y59584356D01*
X140948638Y59595454D01*
X140963683Y59642337D01*
X140963673Y59696224D01*
X140948168Y59746675D01*
X140935716Y59765672D01*
X140898946Y59793537D01*
X140844939Y59807506D01*
X140771331Y59808405D01*
X140771289Y59808403D01*
X140705433Y59798009D01*
X140659772Y59775114D01*
X140631528Y59737439D01*
X140617920Y59682708D01*
X140616090Y59648241D01*
X140623584Y59618126D01*
X140645295Y59587240D01*
X140678926Y59547272D01*
X140638250Y59496656D01*
X140622667Y59478163D01*
X140600340Y59455065D01*
X140587183Y59446039D01*
X140581253Y59449236D01*
X140563048Y59467646D01*
X140539895Y59496973D01*
X140524830Y59519920D01*
X140493880Y59592774D01*
X140483073Y59668799D01*
X140491493Y59743409D01*
X140518224Y59812021D01*
X140562351Y59870048D01*
X140622958Y59912907D01*
X140629137Y59915801D01*
X140689409Y59934176D01*
X140761407Y59943357D01*
X140836369Y59943285D01*
X141431486Y60174745D02*
X141441015Y60126405D01*
X141441015Y60126405D02*
X141455125Y60098886D01*
X141455125Y60098886D02*
X141478568Y60069936D01*
X141478568Y60069936D02*
X141530571Y60111124D01*
X141530571Y60111124D02*
X141562064Y60136518D01*
X141562064Y60136518D02*
X141577428Y60153762D01*
X141577428Y60153762D02*
X141579776Y60170898D01*
X141579776Y60170898D02*
X141572217Y60195973D01*
X141572217Y60195973D02*
X141567941Y60207743D01*
X141567941Y60207743D02*
X141561631Y60255730D01*
X141561631Y60255730D02*
X141575156Y60299676D01*
X141575156Y60299676D02*
X141605710Y60331940D01*
X141605710Y60331940D02*
X141615452Y60337181D01*
X141615452Y60337181D02*
X141641258Y60342888D01*
X141641258Y60342888D02*
X141688817Y60347294D01*
X141688817Y60347294D02*
X141754758Y60350189D01*
X141754758Y60350189D02*
X141835710Y60351369D01*
X141835710Y60351369D02*
X141847226Y60351386D01*
X141847226Y60351386D02*
X142047822Y60351386D01*
X142047822Y60351386D02*
X142047822Y60489703D01*
X142047822Y60489703D02*
X141431683Y60489703D01*
X141431683Y60489703D02*
X141431683Y60420544D01*
X141431683Y60420544D02*
X141432725Y60380667D01*
X141432725Y60380667D02*
X141437358Y60359893D01*
X141437358Y60359893D02*
X141447849Y60352211D01*
X141447849Y60352211D02*
X141457745Y60351386D01*
X141457745Y60351386D02*
X141483806Y60351386D01*
X141483806Y60351386D02*
X141457745Y60318255D01*
X141457745Y60318255D02*
X141439965Y60280265D01*
X141439965Y60280265D02*
X141431174Y60229230D01*
X141431174Y60229230D02*
X141431486Y60174745D01*
X141431486Y60174745D02*
X141431486Y60174745D01*
G36*
X142047822Y60351386D02*
G01*
X141847226Y60351386D01*
X141835710Y60351369D01*
X141754758Y60350189D01*
X141688817Y60347294D01*
X141641258Y60342888D01*
X141615452Y60337181D01*
X141605710Y60331940D01*
X141575156Y60299676D01*
X141561631Y60255730D01*
X141567941Y60207743D01*
X141572217Y60195973D01*
X141579776Y60170898D01*
X141577428Y60153762D01*
X141562064Y60136518D01*
X141530571Y60111124D01*
X141478568Y60069936D01*
X141455125Y60098886D01*
X141441015Y60126405D01*
X141431486Y60174745D01*
X141431174Y60229230D01*
X141439965Y60280265D01*
X141457745Y60318255D01*
X141483806Y60351386D01*
X141457745Y60351386D01*
X141447849Y60352211D01*
X141437358Y60359893D01*
X141432725Y60380667D01*
X141431683Y60420544D01*
X141431683Y60489703D01*
X142047822Y60489703D01*
X142047822Y60351386D01*
G37*
X142047822Y60351386D02*
X141847226Y60351386D01*
X141835710Y60351369D01*
X141754758Y60350189D01*
X141688817Y60347294D01*
X141641258Y60342888D01*
X141615452Y60337181D01*
X141605710Y60331940D01*
X141575156Y60299676D01*
X141561631Y60255730D01*
X141567941Y60207743D01*
X141572217Y60195973D01*
X141579776Y60170898D01*
X141577428Y60153762D01*
X141562064Y60136518D01*
X141530571Y60111124D01*
X141478568Y60069936D01*
X141455125Y60098886D01*
X141441015Y60126405D01*
X141431486Y60174745D01*
X141431174Y60229230D01*
X141439965Y60280265D01*
X141457745Y60318255D01*
X141483806Y60351386D01*
X141457745Y60351386D01*
X141447849Y60352211D01*
X141437358Y60359893D01*
X141432725Y60380667D01*
X141431683Y60420544D01*
X141431683Y60489703D01*
X142047822Y60489703D01*
X142047822Y60351386D01*
X140684342Y60816633D02*
X140776563Y60815445D01*
X140776563Y60815445D02*
X140846610Y60811103D01*
X140846610Y60811103D02*
X140897381Y60802442D01*
X140897381Y60802442D02*
X140931772Y60788296D01*
X140931772Y60788296D02*
X140952679Y60767500D01*
X140952679Y60767500D02*
X140963000Y60738890D01*
X140963000Y60738890D02*
X140965636Y60703465D01*
X140965636Y60703465D02*
X140962682Y60666364D01*
X140962682Y60666364D02*
X140951889Y60638182D01*
X140951889Y60638182D02*
X140930360Y60617757D01*
X140930360Y60617757D02*
X140895199Y60603921D01*
X140895199Y60603921D02*
X140843510Y60595509D01*
X140843510Y60595509D02*
X140772394Y60591357D01*
X140772394Y60591357D02*
X140684342Y60590297D01*
X140684342Y60590297D02*
X140488614Y60590297D01*
X140488614Y60590297D02*
X140488614Y60451980D01*
X140488614Y60451980D02*
X141092179Y60451980D01*
X141092179Y60451980D02*
X141092179Y60521138D01*
X141092179Y60521138D02*
X141090489Y60562830D01*
X141090489Y60562830D02*
X141084556Y60584299D01*
X141084556Y60584299D02*
X141073293Y60590297D01*
X141073293Y60590297D02*
X141063261Y60593909D01*
X141063261Y60593909D02*
X141065383Y60608286D01*
X141065383Y60608286D02*
X141079580Y60637264D01*
X141079580Y60637264D02*
X141101480Y60703681D01*
X141101480Y60703681D02*
X141099928Y60774125D01*
X141099928Y60774125D02*
X141076147Y60841623D01*
X141076147Y60841623D02*
X141057362Y60873767D01*
X141057362Y60873767D02*
X141037022Y60898285D01*
X141037022Y60898285D02*
X141011573Y60916196D01*
X141011573Y60916196D02*
X140977458Y60928521D01*
X140977458Y60928521D02*
X140931121Y60936277D01*
X140931121Y60936277D02*
X140869007Y60940484D01*
X140869007Y60940484D02*
X140787561Y60942160D01*
X140787561Y60942160D02*
X140724578Y60942376D01*
X140724578Y60942376D02*
X140488614Y60942376D01*
X140488614Y60942376D02*
X140488614Y60816633D01*
X140488614Y60816633D02*
X140684342Y60816633D01*
X140684342Y60816633D02*
X140684342Y60816633D01*
G36*
X140787561Y60942160D02*
G01*
X140869007Y60940484D01*
X140931121Y60936277D01*
X140977458Y60928521D01*
X141011573Y60916196D01*
X141037022Y60898285D01*
X141057362Y60873767D01*
X141076147Y60841623D01*
X141099928Y60774125D01*
X141101480Y60703681D01*
X141079580Y60637264D01*
X141065383Y60608286D01*
X141063261Y60593909D01*
X141073293Y60590297D01*
X141084556Y60584299D01*
X141090489Y60562830D01*
X141092179Y60521138D01*
X141092179Y60451980D01*
X140488614Y60451980D01*
X140488614Y60590297D01*
X140684342Y60590297D01*
X140772394Y60591357D01*
X140843510Y60595509D01*
X140895199Y60603921D01*
X140930360Y60617757D01*
X140951889Y60638182D01*
X140962682Y60666364D01*
X140965636Y60703465D01*
X140963000Y60738890D01*
X140952679Y60767500D01*
X140931772Y60788296D01*
X140897381Y60802442D01*
X140846610Y60811103D01*
X140776563Y60815445D01*
X140684342Y60816633D01*
X140488614Y60816633D01*
X140488614Y60942376D01*
X140724578Y60942376D01*
X140787561Y60942160D01*
G37*
X140787561Y60942160D02*
X140869007Y60940484D01*
X140931121Y60936277D01*
X140977458Y60928521D01*
X141011573Y60916196D01*
X141037022Y60898285D01*
X141057362Y60873767D01*
X141076147Y60841623D01*
X141099928Y60774125D01*
X141101480Y60703681D01*
X141079580Y60637264D01*
X141065383Y60608286D01*
X141063261Y60593909D01*
X141073293Y60590297D01*
X141084556Y60584299D01*
X141090489Y60562830D01*
X141092179Y60521138D01*
X141092179Y60451980D01*
X140488614Y60451980D01*
X140488614Y60590297D01*
X140684342Y60590297D01*
X140772394Y60591357D01*
X140843510Y60595509D01*
X140895199Y60603921D01*
X140930360Y60617757D01*
X140951889Y60638182D01*
X140962682Y60666364D01*
X140965636Y60703465D01*
X140963000Y60738890D01*
X140952679Y60767500D01*
X140931772Y60788296D01*
X140897381Y60802442D01*
X140846610Y60811103D01*
X140776563Y60815445D01*
X140684342Y60816633D01*
X140488614Y60816633D01*
X140488614Y60942376D01*
X140724578Y60942376D01*
X140787561Y60942160D01*
X140486452Y61795983D02*
X140495482Y61748366D01*
X140495482Y61748366D02*
X140514370Y61698966D01*
X140514370Y61698966D02*
X140516777Y61693688D01*
X140516777Y61693688D02*
X140536476Y61656226D01*
X140536476Y61656226D02*
X140554781Y61630283D01*
X140554781Y61630283D02*
X140566508Y61621897D01*
X140566508Y61621897D02*
X140585632Y61629883D01*
X140585632Y61629883D02*
X140613850Y61649280D01*
X140613850Y61649280D02*
X140624384Y61657890D01*
X140624384Y61657890D02*
X140665847Y61693372D01*
X140665847Y61693372D02*
X140638858Y61739115D01*
X140638858Y61739115D02*
X140620878Y61782650D01*
X140620878Y61782650D02*
X140611267Y61832950D01*
X140611267Y61832950D02*
X140610660Y61881188D01*
X140610660Y61881188D02*
X140619691Y61918533D01*
X140619691Y61918533D02*
X140625327Y61927495D01*
X140625327Y61927495D02*
X140651171Y61944563D01*
X140651171Y61944563D02*
X140680941Y61946637D01*
X140680941Y61946637D02*
X140704197Y61933866D01*
X140704197Y61933866D02*
X140708708Y61926312D01*
X140708708Y61926312D02*
X140714309Y61903675D01*
X140714309Y61903675D02*
X140720892Y61863885D01*
X140720892Y61863885D02*
X140727183Y61814834D01*
X140727183Y61814834D02*
X140728170Y61805785D01*
X140728170Y61805785D02*
X140741798Y61727004D01*
X140741798Y61727004D02*
X140764946Y61669864D01*
X140764946Y61669864D02*
X140799752Y61631970D01*
X140799752Y61631970D02*
X140848354Y61610921D01*
X140848354Y61610921D02*
X140907718Y61604365D01*
X140907718Y61604365D02*
X140975198Y61613423D01*
X140975198Y61613423D02*
X141028188Y61642836D01*
X141028188Y61642836D02*
X141066783Y61692722D01*
X141066783Y61692722D02*
X141091081Y61763200D01*
X141091081Y61763200D02*
X141100667Y61841435D01*
X141100667Y61841435D02*
X141100552Y61905234D01*
X141100552Y61905234D02*
X141091845Y61956984D01*
X141091845Y61956984D02*
X141079825Y61992327D01*
X141079825Y61992327D02*
X141058880Y62036983D01*
X141058880Y62036983D02*
X141034574Y62078253D01*
X141034574Y62078253D02*
X141023876Y62092921D01*
X141023876Y62092921D02*
X140993084Y62130643D01*
X140993084Y62130643D02*
X140947049Y62085148D01*
X140947049Y62085148D02*
X140901013Y62039653D01*
X140901013Y62039653D02*
X140935243Y61987928D01*
X140935243Y61987928D02*
X140960952Y61936048D01*
X140960952Y61936048D02*
X140974399Y61880649D01*
X140974399Y61880649D02*
X140975818Y61827395D01*
X140975818Y61827395D02*
X140965443Y61781951D01*
X140965443Y61781951D02*
X140943507Y61749984D01*
X140943507Y61749984D02*
X140924998Y61739662D01*
X140924998Y61739662D02*
X140895314Y61741211D01*
X140895314Y61741211D02*
X140872615Y61766860D01*
X140872615Y61766860D02*
X140856940Y61816540D01*
X140856940Y61816540D02*
X140849695Y61870969D01*
X140849695Y61870969D02*
X140835873Y61954736D01*
X140835873Y61954736D02*
X140809796Y62016967D01*
X140809796Y62016967D02*
X140770699Y62058493D01*
X140770699Y62058493D02*
X140717820Y62080147D01*
X140717820Y62080147D02*
X140655126Y62083147D01*
X140655126Y62083147D02*
X140589642Y62068329D01*
X140589642Y62068329D02*
X140540144Y62034546D01*
X140540144Y62034546D02*
X140506408Y61981495D01*
X140506408Y61981495D02*
X140488207Y61908874D01*
X140488207Y61908874D02*
X140484639Y61855072D01*
X140484639Y61855072D02*
X140486452Y61795983D01*
X140486452Y61795983D02*
X140486452Y61795983D01*
G36*
X141023876Y62092921D02*
G01*
X141034574Y62078253D01*
X141058880Y62036983D01*
X141079825Y61992327D01*
X141091845Y61956984D01*
X141100552Y61905234D01*
X141100667Y61841435D01*
X141091081Y61763200D01*
X141066783Y61692722D01*
X141028188Y61642836D01*
X140975198Y61613423D01*
X140907718Y61604365D01*
X140848354Y61610921D01*
X140799752Y61631970D01*
X140764946Y61669864D01*
X140741798Y61727004D01*
X140728170Y61805785D01*
X140727183Y61814834D01*
X140720892Y61863885D01*
X140714309Y61903675D01*
X140708708Y61926312D01*
X140704197Y61933866D01*
X140680941Y61946637D01*
X140651171Y61944563D01*
X140625327Y61927495D01*
X140619691Y61918533D01*
X140610660Y61881188D01*
X140611267Y61832950D01*
X140620878Y61782650D01*
X140638858Y61739115D01*
X140665847Y61693372D01*
X140624384Y61657890D01*
X140613850Y61649280D01*
X140585632Y61629883D01*
X140566508Y61621897D01*
X140554781Y61630283D01*
X140536476Y61656226D01*
X140516777Y61693688D01*
X140514370Y61698966D01*
X140495482Y61748366D01*
X140486452Y61795983D01*
X140484639Y61855072D01*
X140488207Y61908874D01*
X140506408Y61981495D01*
X140540144Y62034546D01*
X140589642Y62068329D01*
X140655126Y62083147D01*
X140717820Y62080147D01*
X140770699Y62058493D01*
X140809796Y62016967D01*
X140835873Y61954736D01*
X140849695Y61870969D01*
X140856940Y61816540D01*
X140872615Y61766860D01*
X140895314Y61741211D01*
X140924998Y61739662D01*
X140943507Y61749984D01*
X140965443Y61781951D01*
X140975818Y61827395D01*
X140974399Y61880649D01*
X140960952Y61936048D01*
X140935243Y61987928D01*
X140901013Y62039653D01*
X140947049Y62085148D01*
X140993084Y62130643D01*
X141023876Y62092921D01*
G37*
X141023876Y62092921D02*
X141034574Y62078253D01*
X141058880Y62036983D01*
X141079825Y61992327D01*
X141091845Y61956984D01*
X141100552Y61905234D01*
X141100667Y61841435D01*
X141091081Y61763200D01*
X141066783Y61692722D01*
X141028188Y61642836D01*
X140975198Y61613423D01*
X140907718Y61604365D01*
X140848354Y61610921D01*
X140799752Y61631970D01*
X140764946Y61669864D01*
X140741798Y61727004D01*
X140728170Y61805785D01*
X140727183Y61814834D01*
X140720892Y61863885D01*
X140714309Y61903675D01*
X140708708Y61926312D01*
X140704197Y61933866D01*
X140680941Y61946637D01*
X140651171Y61944563D01*
X140625327Y61927495D01*
X140619691Y61918533D01*
X140610660Y61881188D01*
X140611267Y61832950D01*
X140620878Y61782650D01*
X140638858Y61739115D01*
X140665847Y61693372D01*
X140624384Y61657890D01*
X140613850Y61649280D01*
X140585632Y61629883D01*
X140566508Y61621897D01*
X140554781Y61630283D01*
X140536476Y61656226D01*
X140516777Y61693688D01*
X140514370Y61698966D01*
X140495482Y61748366D01*
X140486452Y61795983D01*
X140484639Y61855072D01*
X140488207Y61908874D01*
X140506408Y61981495D01*
X140540144Y62034546D01*
X140589642Y62068329D01*
X140655126Y62083147D01*
X140717820Y62080147D01*
X140770699Y62058493D01*
X140809796Y62016967D01*
X140835873Y61954736D01*
X140849695Y61870969D01*
X140856940Y61816540D01*
X140872615Y61766860D01*
X140895314Y61741211D01*
X140924998Y61739662D01*
X140943507Y61749984D01*
X140965443Y61781951D01*
X140975818Y61827395D01*
X140974399Y61880649D01*
X140960952Y61936048D01*
X140935243Y61987928D01*
X140901013Y62039653D01*
X140947049Y62085148D01*
X140993084Y62130643D01*
X141023876Y62092921D01*
X140495148Y64348261D02*
X140524231Y64282479D01*
X140524231Y64282479D02*
X140572793Y64232540D01*
X140572793Y64232540D02*
X140640908Y64198374D01*
X140640908Y64198374D02*
X140728651Y64179907D01*
X140728651Y64179907D02*
X140742351Y64178583D01*
X140742351Y64178583D02*
X140838939Y64177546D01*
X140838939Y64177546D02*
X140923602Y64190993D01*
X140923602Y64190993D02*
X140992221Y64218108D01*
X140992221Y64218108D02*
X141014294Y64232627D01*
X141014294Y64232627D02*
X141061011Y64283201D01*
X141061011Y64283201D02*
X141091268Y64347609D01*
X141091268Y64347609D02*
X141103824Y64419666D01*
X141103824Y64419666D02*
X141097439Y64493185D01*
X141097439Y64493185D02*
X141077772Y64549072D01*
X141077772Y64549072D02*
X141044629Y64597132D01*
X141044629Y64597132D02*
X141001175Y64636412D01*
X141001175Y64636412D02*
X141000158Y64637092D01*
X141000158Y64637092D02*
X140973338Y64653044D01*
X140973338Y64653044D02*
X140946368Y64663410D01*
X140946368Y64663410D02*
X140912332Y64669688D01*
X140912332Y64669688D02*
X140864310Y64673373D01*
X140864310Y64673373D02*
X140824931Y64674997D01*
X140824931Y64674997D02*
X140789219Y64675672D01*
X140789219Y64675672D02*
X140789219Y64549955D01*
X140789219Y64549955D02*
X140824770Y64548726D01*
X140824770Y64548726D02*
X140872094Y64544266D01*
X140872094Y64544266D02*
X140902465Y64536397D01*
X140902465Y64536397D02*
X140924072Y64522207D01*
X140924072Y64522207D02*
X140936694Y64508917D01*
X140936694Y64508917D02*
X140963122Y64461802D01*
X140963122Y64461802D02*
X140966653Y64412505D01*
X140966653Y64412505D02*
X140947639Y64366593D01*
X140947639Y64366593D02*
X140926331Y64343638D01*
X140926331Y64343638D02*
X140904859Y64327096D01*
X140904859Y64327096D02*
X140884313Y64317421D01*
X140884313Y64317421D02*
X140857574Y64313174D01*
X140857574Y64313174D02*
X140817523Y64312920D01*
X140817523Y64312920D02*
X140780638Y64314228D01*
X140780638Y64314228D02*
X140727947Y64317043D01*
X140727947Y64317043D02*
X140693772Y64321505D01*
X140693772Y64321505D02*
X140671480Y64329548D01*
X140671480Y64329548D02*
X140654442Y64343103D01*
X140654442Y64343103D02*
X140644703Y64353845D01*
X140644703Y64353845D02*
X140619123Y64398777D01*
X140619123Y64398777D02*
X140617847Y64447249D01*
X140617847Y64447249D02*
X140632999Y64487894D01*
X140632999Y64487894D02*
X140664642Y64522567D01*
X140664642Y64522567D02*
X140716620Y64543224D01*
X140716620Y64543224D02*
X140789219Y64549955D01*
X140789219Y64549955D02*
X140789219Y64675672D01*
X140789219Y64675672D02*
X140746621Y64676479D01*
X140746621Y64676479D02*
X140688056Y64673948D01*
X140688056Y64673948D02*
X140644007Y64666362D01*
X140644007Y64666362D02*
X140609248Y64652681D01*
X140609248Y64652681D02*
X140578551Y64631865D01*
X140578551Y64631865D02*
X140569436Y64624147D01*
X140569436Y64624147D02*
X140524021Y64575889D01*
X140524021Y64575889D02*
X140497493Y64524128D01*
X140497493Y64524128D02*
X140486379Y64460828D01*
X140486379Y64460828D02*
X140485471Y64429961D01*
X140485471Y64429961D02*
X140495148Y64348261D01*
X140495148Y64348261D02*
X140495148Y64348261D01*
G36*
X140864310Y64673373D02*
G01*
X140912332Y64669688D01*
X140946368Y64663410D01*
X140973338Y64653044D01*
X141000158Y64637092D01*
X141001175Y64636412D01*
X141044629Y64597132D01*
X141077772Y64549072D01*
X141097439Y64493185D01*
X141103824Y64419666D01*
X141091268Y64347609D01*
X141061011Y64283201D01*
X141014294Y64232627D01*
X140992221Y64218108D01*
X140923602Y64190993D01*
X140838939Y64177546D01*
X140742351Y64178583D01*
X140728651Y64179907D01*
X140640908Y64198374D01*
X140572793Y64232540D01*
X140524231Y64282479D01*
X140495148Y64348261D01*
X140485471Y64429961D01*
X140485980Y64447249D01*
X140617847Y64447249D01*
X140619123Y64398777D01*
X140644703Y64353845D01*
X140654442Y64343103D01*
X140671480Y64329548D01*
X140693772Y64321505D01*
X140727947Y64317043D01*
X140780638Y64314228D01*
X140817523Y64312920D01*
X140857574Y64313174D01*
X140884313Y64317421D01*
X140904859Y64327096D01*
X140926331Y64343638D01*
X140947639Y64366593D01*
X140966653Y64412505D01*
X140963122Y64461802D01*
X140936694Y64508917D01*
X140924072Y64522207D01*
X140902465Y64536397D01*
X140872094Y64544266D01*
X140824770Y64548726D01*
X140789219Y64549955D01*
X140716620Y64543224D01*
X140664642Y64522567D01*
X140632999Y64487894D01*
X140617847Y64447249D01*
X140485980Y64447249D01*
X140486379Y64460828D01*
X140497493Y64524128D01*
X140524021Y64575889D01*
X140569436Y64624147D01*
X140578551Y64631865D01*
X140609248Y64652681D01*
X140644007Y64666362D01*
X140688056Y64673948D01*
X140746621Y64676479D01*
X140789219Y64675672D01*
X140824931Y64674997D01*
X140864310Y64673373D01*
G37*
X140864310Y64673373D02*
X140912332Y64669688D01*
X140946368Y64663410D01*
X140973338Y64653044D01*
X141000158Y64637092D01*
X141001175Y64636412D01*
X141044629Y64597132D01*
X141077772Y64549072D01*
X141097439Y64493185D01*
X141103824Y64419666D01*
X141091268Y64347609D01*
X141061011Y64283201D01*
X141014294Y64232627D01*
X140992221Y64218108D01*
X140923602Y64190993D01*
X140838939Y64177546D01*
X140742351Y64178583D01*
X140728651Y64179907D01*
X140640908Y64198374D01*
X140572793Y64232540D01*
X140524231Y64282479D01*
X140495148Y64348261D01*
X140485471Y64429961D01*
X140485980Y64447249D01*
X140617847Y64447249D01*
X140619123Y64398777D01*
X140644703Y64353845D01*
X140654442Y64343103D01*
X140671480Y64329548D01*
X140693772Y64321505D01*
X140727947Y64317043D01*
X140780638Y64314228D01*
X140817523Y64312920D01*
X140857574Y64313174D01*
X140884313Y64317421D01*
X140904859Y64327096D01*
X140926331Y64343638D01*
X140947639Y64366593D01*
X140966653Y64412505D01*
X140963122Y64461802D01*
X140936694Y64508917D01*
X140924072Y64522207D01*
X140902465Y64536397D01*
X140872094Y64544266D01*
X140824770Y64548726D01*
X140789219Y64549955D01*
X140716620Y64543224D01*
X140664642Y64522567D01*
X140632999Y64487894D01*
X140617847Y64447249D01*
X140485980Y64447249D01*
X140486379Y64460828D01*
X140497493Y64524128D01*
X140524021Y64575889D01*
X140569436Y64624147D01*
X140578551Y64631865D01*
X140609248Y64652681D01*
X140644007Y64666362D01*
X140688056Y64673948D01*
X140746621Y64676479D01*
X140789219Y64675672D01*
X140824931Y64674997D01*
X140864310Y64673373D01*
X141435417Y60771589D02*
X141448290Y60718589D01*
X141448290Y60718589D02*
X141455110Y60703269D01*
X141455110Y60703269D02*
X141472974Y60673572D01*
X141472974Y60673572D02*
X141493093Y60650780D01*
X141493093Y60650780D02*
X141518962Y60633917D01*
X141518962Y60633917D02*
X141554073Y60622002D01*
X141554073Y60622002D02*
X141601920Y60614058D01*
X141601920Y60614058D02*
X141665996Y60609106D01*
X141665996Y60609106D02*
X141749794Y60606169D01*
X141749794Y60606169D02*
X141805768Y60605053D01*
X141805768Y60605053D02*
X142047822Y60600948D01*
X142047822Y60600948D02*
X142047822Y60671068D01*
X142047822Y60671068D02*
X142046038Y60713607D01*
X142046038Y60713607D02*
X142039942Y60735524D01*
X142039942Y60735524D02*
X142029706Y60741188D01*
X142029706Y60741188D02*
X142018637Y60744179D01*
X142018637Y60744179D02*
X142020754Y60757549D01*
X142020754Y60757549D02*
X142029629Y60775767D01*
X142029629Y60775767D02*
X142043233Y60821376D01*
X142043233Y60821376D02*
X142046899Y60879993D01*
X142046899Y60879993D02*
X142040903Y60941646D01*
X142040903Y60941646D02*
X142025521Y60996362D01*
X142025521Y60996362D02*
X142023386Y61001270D01*
X142023386Y61001270D02*
X141988255Y61051277D01*
X141988255Y61051277D02*
X141939419Y61084244D01*
X141939419Y61084244D02*
X141882333Y61099413D01*
X141882333Y61099413D02*
X141861824Y61098254D01*
X141861824Y61098254D02*
X141861824Y60974492D01*
X141861824Y60974492D02*
X141889425Y60963587D01*
X141889425Y60963587D02*
X141909204Y60931255D01*
X141909204Y60931255D02*
X141919819Y60879090D01*
X141919819Y60879090D02*
X141921228Y60851213D01*
X141921228Y60851213D02*
X141917620Y60804753D01*
X141917620Y60804753D02*
X141903597Y60773871D01*
X141903597Y60773871D02*
X141896931Y60766336D01*
X141896931Y60766336D02*
X141860666Y60745924D01*
X141860666Y60745924D02*
X141827773Y60741188D01*
X141827773Y60741188D02*
X141783763Y60741188D01*
X141783763Y60741188D02*
X141783763Y60802487D01*
X141783763Y60802487D02*
X141787395Y60873744D01*
X141787395Y60873744D02*
X141798818Y60923724D01*
X141798818Y60923724D02*
X141818824Y60955304D01*
X141818824Y60955304D02*
X141827743Y60962374D01*
X141827743Y60962374D02*
X141861824Y60974492D01*
X141861824Y60974492D02*
X141861824Y61098254D01*
X141861824Y61098254D02*
X141822456Y61096029D01*
X141822456Y61096029D02*
X141765244Y61073337D01*
X141765244Y61073337D02*
X141726580Y61042376D01*
X141726580Y61042376D02*
X141709864Y61023624D01*
X141709864Y61023624D02*
X141698878Y61005267D01*
X141698878Y61005267D02*
X141692180Y60981381D01*
X141692180Y60981381D02*
X141688326Y60946043D01*
X141688326Y60946043D02*
X141685873Y60893331D01*
X141685873Y60893331D02*
X141685168Y60872423D01*
X141685168Y60872423D02*
X141680879Y60741188D01*
X141680879Y60741188D02*
X141641158Y60741380D01*
X141641158Y60741380D02*
X141599405Y60746463D01*
X141599405Y60746463D02*
X141574158Y60764838D01*
X141574158Y60764838D02*
X141558030Y60801961D01*
X141558030Y60801961D02*
X141557742Y60802957D01*
X141557742Y60802957D02*
X141551400Y60855590D01*
X141551400Y60855590D02*
X141559684Y60907094D01*
X141559684Y60907094D02*
X141579827Y60945370D01*
X141579827Y60945370D02*
X141589773Y60960728D01*
X141589773Y60960728D02*
X141588397Y60977270D01*
X141588397Y60977270D02*
X141573987Y61002725D01*
X141573987Y61002725D02*
X141563817Y61017672D01*
X141563817Y61017672D02*
X141542088Y61046909D01*
X141542088Y61046909D02*
X141525800Y61065020D01*
X141525800Y61065020D02*
X141521137Y61067926D01*
X141521137Y61067926D02*
X141497005Y61055960D01*
X141497005Y61055960D02*
X141468185Y61020604D01*
X141468185Y61020604D02*
X141458461Y61005247D01*
X141458461Y61005247D02*
X141441714Y60961099D01*
X141441714Y60961099D02*
X141432227Y60901602D01*
X141432227Y60901602D02*
X141430095Y60835513D01*
X141430095Y60835513D02*
X141435417Y60771589D01*
X141435417Y60771589D02*
X141435417Y60771589D01*
G36*
X141939419Y61084244D02*
G01*
X141988255Y61051277D01*
X142023386Y61001270D01*
X142025521Y60996362D01*
X142040903Y60941646D01*
X142046899Y60879993D01*
X142043233Y60821376D01*
X142029629Y60775767D01*
X142020754Y60757549D01*
X142018637Y60744179D01*
X142029706Y60741188D01*
X142039942Y60735524D01*
X142046038Y60713607D01*
X142047822Y60671068D01*
X142047822Y60600948D01*
X141805768Y60605053D01*
X141749794Y60606169D01*
X141665996Y60609106D01*
X141601920Y60614058D01*
X141554073Y60622002D01*
X141518962Y60633917D01*
X141493093Y60650780D01*
X141472974Y60673572D01*
X141455110Y60703269D01*
X141448290Y60718589D01*
X141435417Y60771589D01*
X141430095Y60835513D01*
X141432227Y60901602D01*
X141441714Y60961099D01*
X141458461Y61005247D01*
X141468185Y61020604D01*
X141497005Y61055960D01*
X141521137Y61067926D01*
X141525800Y61065020D01*
X141542088Y61046909D01*
X141563817Y61017672D01*
X141573987Y61002725D01*
X141588397Y60977270D01*
X141589773Y60960728D01*
X141579827Y60945370D01*
X141559684Y60907094D01*
X141551400Y60855590D01*
X141557742Y60802957D01*
X141558030Y60801961D01*
X141574158Y60764838D01*
X141599405Y60746463D01*
X141641158Y60741380D01*
X141680879Y60741188D01*
X141783763Y60741188D01*
X141827773Y60741188D01*
X141860666Y60745924D01*
X141896931Y60766336D01*
X141903597Y60773871D01*
X141917620Y60804753D01*
X141921228Y60851213D01*
X141919819Y60879090D01*
X141909204Y60931255D01*
X141889425Y60963587D01*
X141861824Y60974492D01*
X141827743Y60962374D01*
X141818824Y60955304D01*
X141798818Y60923724D01*
X141787395Y60873744D01*
X141783763Y60802487D01*
X141783763Y60741188D01*
X141680879Y60741188D01*
X141685168Y60872423D01*
X141685873Y60893331D01*
X141688326Y60946043D01*
X141692180Y60981381D01*
X141698878Y61005267D01*
X141709864Y61023624D01*
X141726580Y61042376D01*
X141765244Y61073337D01*
X141822456Y61096029D01*
X141861824Y61098254D01*
X141882333Y61099413D01*
X141939419Y61084244D01*
G37*
X141939419Y61084244D02*
X141988255Y61051277D01*
X142023386Y61001270D01*
X142025521Y60996362D01*
X142040903Y60941646D01*
X142046899Y60879993D01*
X142043233Y60821376D01*
X142029629Y60775767D01*
X142020754Y60757549D01*
X142018637Y60744179D01*
X142029706Y60741188D01*
X142039942Y60735524D01*
X142046038Y60713607D01*
X142047822Y60671068D01*
X142047822Y60600948D01*
X141805768Y60605053D01*
X141749794Y60606169D01*
X141665996Y60609106D01*
X141601920Y60614058D01*
X141554073Y60622002D01*
X141518962Y60633917D01*
X141493093Y60650780D01*
X141472974Y60673572D01*
X141455110Y60703269D01*
X141448290Y60718589D01*
X141435417Y60771589D01*
X141430095Y60835513D01*
X141432227Y60901602D01*
X141441714Y60961099D01*
X141458461Y61005247D01*
X141468185Y61020604D01*
X141497005Y61055960D01*
X141521137Y61067926D01*
X141525800Y61065020D01*
X141542088Y61046909D01*
X141563817Y61017672D01*
X141573987Y61002725D01*
X141588397Y60977270D01*
X141589773Y60960728D01*
X141579827Y60945370D01*
X141559684Y60907094D01*
X141551400Y60855590D01*
X141557742Y60802957D01*
X141558030Y60801961D01*
X141574158Y60764838D01*
X141599405Y60746463D01*
X141641158Y60741380D01*
X141680879Y60741188D01*
X141783763Y60741188D01*
X141827773Y60741188D01*
X141860666Y60745924D01*
X141896931Y60766336D01*
X141903597Y60773871D01*
X141917620Y60804753D01*
X141921228Y60851213D01*
X141919819Y60879090D01*
X141909204Y60931255D01*
X141889425Y60963587D01*
X141861824Y60974492D01*
X141827743Y60962374D01*
X141818824Y60955304D01*
X141798818Y60923724D01*
X141787395Y60873744D01*
X141783763Y60802487D01*
X141783763Y60741188D01*
X141680879Y60741188D01*
X141685168Y60872423D01*
X141685873Y60893331D01*
X141688326Y60946043D01*
X141692180Y60981381D01*
X141698878Y61005267D01*
X141709864Y61023624D01*
X141726580Y61042376D01*
X141765244Y61073337D01*
X141822456Y61096029D01*
X141861824Y61098254D01*
X141882333Y61099413D01*
X141939419Y61084244D01*
X140502614Y63166699D02*
X140508514Y63154168D01*
X140508514Y63154168D02*
X140540283Y63110799D01*
X140540283Y63110799D02*
X140586646Y63069790D01*
X140586646Y63069790D02*
X140637696Y63039168D01*
X140637696Y63039168D02*
X140661166Y63030459D01*
X140661166Y63030459D02*
X140703091Y63022512D01*
X140703091Y63022512D02*
X140753757Y63017774D01*
X140753757Y63017774D02*
X140774679Y63017199D01*
X140774679Y63017199D02*
X140840693Y63017129D01*
X140840693Y63017129D02*
X140840693Y63397083D01*
X140840693Y63397083D02*
X140875273Y63388983D01*
X140875273Y63388983D02*
X140916170Y63369104D01*
X140916170Y63369104D02*
X140951514Y63334347D01*
X140951514Y63334347D02*
X140974282Y63292998D01*
X140974282Y63292998D02*
X140979010Y63266649D01*
X140979010Y63266649D02*
X140973273Y63230916D01*
X140973273Y63230916D02*
X140958882Y63188282D01*
X140958882Y63188282D02*
X140952262Y63173799D01*
X140952262Y63173799D02*
X140925513Y63120240D01*
X140925513Y63120240D02*
X140960376Y63074533D01*
X140960376Y63074533D02*
X140983955Y63048158D01*
X140983955Y63048158D02*
X141003417Y63034124D01*
X141003417Y63034124D02*
X141009129Y63033414D01*
X141009129Y63033414D02*
X141022973Y63045951D01*
X141022973Y63045951D02*
X141044012Y63073428D01*
X141044012Y63073428D02*
X141060425Y63098366D01*
X141060425Y63098366D02*
X141089930Y63165664D01*
X141089930Y63165664D02*
X141103284Y63241110D01*
X141103284Y63241110D02*
X141099812Y63315888D01*
X141099812Y63315888D02*
X141081663Y63375495D01*
X141081663Y63375495D02*
X141042784Y63436941D01*
X141042784Y63436941D02*
X140991595Y63480608D01*
X140991595Y63480608D02*
X140925367Y63507926D01*
X140925367Y63507926D02*
X140841371Y63520322D01*
X140841371Y63520322D02*
X140802936Y63521421D01*
X140802936Y63521421D02*
X140714861Y63517022D01*
X140714861Y63517022D02*
X140712299Y63516482D01*
X140712299Y63516482D02*
X140712299Y63390582D01*
X140712299Y63390582D02*
X140720558Y63387115D01*
X140720558Y63387115D02*
X140725113Y63372863D01*
X140725113Y63372863D02*
X140727065Y63343470D01*
X140727065Y63343470D02*
X140727517Y63294575D01*
X140727517Y63294575D02*
X140727525Y63275748D01*
X140727525Y63275748D02*
X140726843Y63218467D01*
X140726843Y63218467D02*
X140724364Y63182141D01*
X140724364Y63182141D02*
X140719443Y63162604D01*
X140719443Y63162604D02*
X140711434Y63155690D01*
X140711434Y63155690D02*
X140708862Y63155445D01*
X140708862Y63155445D02*
X140688423Y63163336D01*
X140688423Y63163336D02*
X140659789Y63183085D01*
X140659789Y63183085D02*
X140649763Y63191575D01*
X140649763Y63191575D02*
X140621408Y63223094D01*
X140621408Y63223094D02*
X140610259Y63255949D01*
X140610259Y63255949D02*
X140609327Y63273651D01*
X140609327Y63273651D02*
X140620981Y63321539D01*
X140620981Y63321539D02*
X140652285Y63361699D01*
X140652285Y63361699D02*
X140697752Y63387173D01*
X140697752Y63387173D02*
X140699233Y63387625D01*
X140699233Y63387625D02*
X140712299Y63390582D01*
X140712299Y63390582D02*
X140712299Y63516482D01*
X140712299Y63516482D02*
X140645510Y63502392D01*
X140645510Y63502392D02*
X140590025Y63476038D01*
X140590025Y63476038D02*
X140550639Y63443807D01*
X140550639Y63443807D02*
X140507931Y63384217D01*
X140507931Y63384217D02*
X140485109Y63314168D01*
X140485109Y63314168D02*
X140483046Y63239661D01*
X140483046Y63239661D02*
X140502614Y63166699D01*
X140502614Y63166699D02*
X140502614Y63166699D01*
G36*
X140802936Y63521421D02*
G01*
X140841371Y63520322D01*
X140925367Y63507926D01*
X140991595Y63480608D01*
X141042784Y63436941D01*
X141081663Y63375495D01*
X141099812Y63315888D01*
X141103284Y63241110D01*
X141089930Y63165664D01*
X141060425Y63098366D01*
X141044012Y63073428D01*
X141022973Y63045951D01*
X141009129Y63033414D01*
X141003417Y63034124D01*
X140983955Y63048158D01*
X140960376Y63074533D01*
X140925513Y63120240D01*
X140952262Y63173799D01*
X140958882Y63188282D01*
X140973273Y63230916D01*
X140979010Y63266649D01*
X140974282Y63292998D01*
X140951514Y63334347D01*
X140916170Y63369104D01*
X140875273Y63388983D01*
X140840693Y63397083D01*
X140840693Y63017129D01*
X140774679Y63017199D01*
X140753757Y63017774D01*
X140703091Y63022512D01*
X140661166Y63030459D01*
X140637696Y63039168D01*
X140586646Y63069790D01*
X140540283Y63110799D01*
X140508514Y63154168D01*
X140502614Y63166699D01*
X140483046Y63239661D01*
X140483987Y63273651D01*
X140609327Y63273651D01*
X140610259Y63255949D01*
X140621408Y63223094D01*
X140649763Y63191575D01*
X140659789Y63183085D01*
X140688423Y63163336D01*
X140708862Y63155445D01*
X140711434Y63155690D01*
X140719443Y63162604D01*
X140724364Y63182141D01*
X140726843Y63218467D01*
X140727525Y63275748D01*
X140727517Y63294575D01*
X140727065Y63343470D01*
X140725113Y63372863D01*
X140720558Y63387115D01*
X140712299Y63390582D01*
X140699233Y63387625D01*
X140697752Y63387173D01*
X140652285Y63361699D01*
X140620981Y63321539D01*
X140609327Y63273651D01*
X140483987Y63273651D01*
X140485109Y63314168D01*
X140507931Y63384217D01*
X140550639Y63443807D01*
X140590025Y63476038D01*
X140645510Y63502392D01*
X140712299Y63516482D01*
X140714861Y63517022D01*
X140802936Y63521421D01*
G37*
X140802936Y63521421D02*
X140841371Y63520322D01*
X140925367Y63507926D01*
X140991595Y63480608D01*
X141042784Y63436941D01*
X141081663Y63375495D01*
X141099812Y63315888D01*
X141103284Y63241110D01*
X141089930Y63165664D01*
X141060425Y63098366D01*
X141044012Y63073428D01*
X141022973Y63045951D01*
X141009129Y63033414D01*
X141003417Y63034124D01*
X140983955Y63048158D01*
X140960376Y63074533D01*
X140925513Y63120240D01*
X140952262Y63173799D01*
X140958882Y63188282D01*
X140973273Y63230916D01*
X140979010Y63266649D01*
X140974282Y63292998D01*
X140951514Y63334347D01*
X140916170Y63369104D01*
X140875273Y63388983D01*
X140840693Y63397083D01*
X140840693Y63017129D01*
X140774679Y63017199D01*
X140753757Y63017774D01*
X140703091Y63022512D01*
X140661166Y63030459D01*
X140637696Y63039168D01*
X140586646Y63069790D01*
X140540283Y63110799D01*
X140508514Y63154168D01*
X140502614Y63166699D01*
X140483046Y63239661D01*
X140483987Y63273651D01*
X140609327Y63273651D01*
X140610259Y63255949D01*
X140621408Y63223094D01*
X140649763Y63191575D01*
X140659789Y63183085D01*
X140688423Y63163336D01*
X140708862Y63155445D01*
X140711434Y63155690D01*
X140719443Y63162604D01*
X140724364Y63182141D01*
X140726843Y63218467D01*
X140727525Y63275748D01*
X140727517Y63294575D01*
X140727065Y63343470D01*
X140725113Y63372863D01*
X140720558Y63387115D01*
X140712299Y63390582D01*
X140699233Y63387625D01*
X140697752Y63387173D01*
X140652285Y63361699D01*
X140620981Y63321539D01*
X140609327Y63273651D01*
X140483987Y63273651D01*
X140485109Y63314168D01*
X140507931Y63384217D01*
X140550639Y63443807D01*
X140590025Y63476038D01*
X140645510Y63502392D01*
X140712299Y63516482D01*
X140714861Y63517022D01*
X140802936Y63521421D01*
X136320018Y61433036D02*
X136621570Y61376188D01*
X136621570Y61376188D02*
X136794512Y60956662D01*
X136794512Y60956662D02*
X136623395Y60705016D01*
X136623395Y60705016D02*
X136575750Y60634542D01*
X136575750Y60634542D02*
X136533210Y60570837D01*
X136533210Y60570837D02*
X136497715Y60516874D01*
X136497715Y60516874D02*
X136471210Y60475627D01*
X136471210Y60475627D02*
X136455636Y60450066D01*
X136455636Y60450066D02*
X136452278Y60443105D01*
X136452278Y60443105D02*
X136460914Y60430565D01*
X136460914Y60430565D02*
X136484792Y60403769D01*
X136484792Y60403769D02*
X136520859Y60365720D01*
X136520859Y60365720D02*
X136566067Y60319421D01*
X136566067Y60319421D02*
X136617364Y60267877D01*
X136617364Y60267877D02*
X136671701Y60214091D01*
X136671701Y60214091D02*
X136726028Y60161065D01*
X136726028Y60161065D02*
X136777295Y60111805D01*
X136777295Y60111805D02*
X136822451Y60069313D01*
X136822451Y60069313D02*
X136858446Y60036593D01*
X136858446Y60036593D02*
X136882230Y60016649D01*
X136882230Y60016649D02*
X136890190Y60011881D01*
X136890190Y60011881D02*
X136904865Y60018743D01*
X136904865Y60018743D02*
X136937014Y60037980D01*
X136937014Y60037980D02*
X136983492Y60067570D01*
X136983492Y60067570D02*
X137041156Y60105490D01*
X137041156Y60105490D02*
X137106860Y60149718D01*
X137106860Y60149718D02*
X137144336Y60175346D01*
X137144336Y60175346D02*
X137212768Y60222059D01*
X137212768Y60222059D02*
X137274520Y60263568D01*
X137274520Y60263568D02*
X137326519Y60297860D01*
X137326519Y60297860D02*
X137365692Y60322920D01*
X137365692Y60322920D02*
X137388965Y60336736D01*
X137388965Y60336736D02*
X137393855Y60338812D01*
X137393855Y60338812D02*
X137407755Y60334105D01*
X137407755Y60334105D02*
X137440150Y60321277D01*
X137440150Y60321277D02*
X137486485Y60302262D01*
X137486485Y60302262D02*
X137542206Y60278997D01*
X137542206Y60278997D02*
X137602758Y60253416D01*
X137602758Y60253416D02*
X137663586Y60227455D01*
X137663586Y60227455D02*
X137720136Y60203050D01*
X137720136Y60203050D02*
X137767852Y60182137D01*
X137767852Y60182137D02*
X137802181Y60166651D01*
X137802181Y60166651D02*
X137818568Y60158528D01*
X137818568Y60158528D02*
X137819212Y60158048D01*
X137819212Y60158048D02*
X137822341Y60145293D01*
X137822341Y60145293D02*
X137829321Y60111323D01*
X137829321Y60111323D02*
X137839467Y60059660D01*
X137839467Y60059660D02*
X137852092Y59993824D01*
X137852092Y59993824D02*
X137866509Y59917336D01*
X137866509Y59917336D02*
X137874823Y59872710D01*
X137874823Y59872710D02*
X137890384Y59790979D01*
X137890384Y59790979D02*
X137905192Y59717157D01*
X137905192Y59717157D02*
X137918436Y59654979D01*
X137918436Y59654979D02*
X137929305Y59608178D01*
X137929305Y59608178D02*
X137936989Y59580491D01*
X137936989Y59580491D02*
X137939427Y59574926D01*
X137939427Y59574926D02*
X137955930Y59569474D01*
X137955930Y59569474D02*
X137993200Y59565076D01*
X137993200Y59565076D02*
X138046880Y59561728D01*
X138046880Y59561728D02*
X138112612Y59559426D01*
X138112612Y59559426D02*
X138186037Y59558168D01*
X138186037Y59558168D02*
X138262796Y59557952D01*
X138262796Y59557952D02*
X138338532Y59558773D01*
X138338532Y59558773D02*
X138408886Y59560629D01*
X138408886Y59560629D02*
X138469500Y59563518D01*
X138469500Y59563518D02*
X138516016Y59567435D01*
X138516016Y59567435D02*
X138544075Y59572378D01*
X138544075Y59572378D02*
X138549916Y59575343D01*
X138549916Y59575343D02*
X138556917Y59593066D01*
X138556917Y59593066D02*
X138566927Y59630619D01*
X138566927Y59630619D02*
X138578769Y59683036D01*
X138578769Y59683036D02*
X138591267Y59745348D01*
X138591267Y59745348D02*
X138595310Y59767100D01*
X138595310Y59767100D02*
X138614520Y59871976D01*
X138614520Y59871976D02*
X138629991Y59954820D01*
X138629991Y59954820D02*
X138642337Y60018370D01*
X138642337Y60018370D02*
X138652173Y60065363D01*
X138652173Y60065363D02*
X138660114Y60098537D01*
X138660114Y60098537D02*
X138666776Y60120629D01*
X138666776Y60120629D02*
X138672773Y60134376D01*
X138672773Y60134376D02*
X138678719Y60142516D01*
X138678719Y60142516D02*
X138679894Y60143655D01*
X138679894Y60143655D02*
X138698826Y60155023D01*
X138698826Y60155023D02*
X138735669Y60172365D01*
X138735669Y60172365D02*
X138785913Y60193950D01*
X138785913Y60193950D02*
X138845046Y60218046D01*
X138845046Y60218046D02*
X138908556Y60242921D01*
X138908556Y60242921D02*
X138971932Y60266843D01*
X138971932Y60266843D02*
X139030662Y60288081D01*
X139030662Y60288081D02*
X139080235Y60304903D01*
X139080235Y60304903D02*
X139116139Y60315578D01*
X139116139Y60315578D02*
X139133862Y60318373D01*
X139133862Y60318373D02*
X139134483Y60318140D01*
X139134483Y60318140D02*
X139148970Y60308669D01*
X139148970Y60308669D02*
X139180844Y60287182D01*
X139180844Y60287182D02*
X139226789Y60255937D01*
X139226789Y60255937D02*
X139283485Y60217193D01*
X139283485Y60217193D02*
X139347617Y60173207D01*
X139347617Y60173207D02*
X139365842Y60160681D01*
X139365842Y60160681D02*
X139431914Y60116016D01*
X139431914Y60116016D02*
X139492200Y60076712D01*
X139492200Y60076712D02*
X139543235Y60044912D01*
X139543235Y60044912D02*
X139581560Y60022755D01*
X139581560Y60022755D02*
X139603711Y60012383D01*
X139603711Y60012383D02*
X139606432Y60011881D01*
X139606432Y60011881D02*
X139620736Y60020595D01*
X139620736Y60020595D02*
X139649072Y60044675D01*
X139649072Y60044675D02*
X139688396Y60081024D01*
X139688396Y60081024D02*
X139735661Y60126547D01*
X139735661Y60126547D02*
X139787823Y60178148D01*
X139787823Y60178148D02*
X139841835Y60232733D01*
X139841835Y60232733D02*
X139894653Y60287206D01*
X139894653Y60287206D02*
X139943231Y60338471D01*
X139943231Y60338471D02*
X139984523Y60383433D01*
X139984523Y60383433D02*
X140015485Y60418996D01*
X140015485Y60418996D02*
X140033070Y60442065D01*
X140033070Y60442065D02*
X140035941Y60448446D01*
X140035941Y60448446D02*
X140029178Y60463301D01*
X140029178Y60463301D02*
X140010939Y60493714D01*
X140010939Y60493714D02*
X139984297Y60534732D01*
X139984297Y60534732D02*
X139962852Y60566291D01*
X139962852Y60566291D02*
X139923503Y60623475D01*
X139923503Y60623475D02*
X139877171Y60691194D01*
X139877171Y60691194D02*
X139830913Y60759120D01*
X139830913Y60759120D02*
X139806155Y60795639D01*
X139806155Y60795639D02*
X139722547Y60919248D01*
X139722547Y60919248D02*
X139778650Y61023009D01*
X139778650Y61023009D02*
X139803228Y61070280D01*
X139803228Y61070280D02*
X139822331Y61110477D01*
X139822331Y61110477D02*
X139833227Y61137674D01*
X139833227Y61137674D02*
X139834743Y61144598D01*
X139834743Y61144598D02*
X139823549Y61152923D01*
X139823549Y61152923D02*
X139791917Y61169346D01*
X139791917Y61169346D02*
X139742765Y61192643D01*
X139742765Y61192643D02*
X139679010Y61221586D01*
X139679010Y61221586D02*
X139603571Y61254950D01*
X139603571Y61254950D02*
X139519364Y61291509D01*
X139519364Y61291509D02*
X139429308Y61330036D01*
X139429308Y61330036D02*
X139336321Y61369306D01*
X139336321Y61369306D02*
X139243320Y61408092D01*
X139243320Y61408092D02*
X139153223Y61445170D01*
X139153223Y61445170D02*
X139068948Y61479311D01*
X139068948Y61479311D02*
X138993413Y61509292D01*
X138993413Y61509292D02*
X138929534Y61533884D01*
X138929534Y61533884D02*
X138880231Y61551864D01*
X138880231Y61551864D02*
X138848421Y61562003D01*
X138848421Y61562003D02*
X138837496Y61563634D01*
X138837496Y61563634D02*
X138823561Y61550709D01*
X138823561Y61550709D02*
X138800940Y61522411D01*
X138800940Y61522411D02*
X138774333Y61484654D01*
X138774333Y61484654D02*
X138772228Y61481485D01*
X138772228Y61481485D02*
X138694114Y61383900D01*
X138694114Y61383900D02*
X138602982Y61305214D01*
X138602982Y61305214D02*
X138501745Y61246109D01*
X138501745Y61246109D02*
X138393318Y61207268D01*
X138393318Y61207268D02*
X138280614Y61189372D01*
X138280614Y61189372D02*
X138166548Y61193103D01*
X138166548Y61193103D02*
X138054034Y61219143D01*
X138054034Y61219143D02*
X137945985Y61268175D01*
X137945985Y61268175D02*
X137922345Y61282600D01*
X137922345Y61282600D02*
X137826887Y61357631D01*
X137826887Y61357631D02*
X137750232Y61446270D01*
X137750232Y61446270D02*
X137692780Y61545451D01*
X137692780Y61545451D02*
X137654929Y61652105D01*
X137654929Y61652105D02*
X137637078Y61763164D01*
X137637078Y61763164D02*
X137639625Y61875561D01*
X137639625Y61875561D02*
X137662970Y61986227D01*
X137662970Y61986227D02*
X137707510Y62092094D01*
X137707510Y62092094D02*
X137773645Y62190095D01*
X137773645Y62190095D02*
X137800487Y62220410D01*
X137800487Y62220410D02*
X137884512Y62297562D01*
X137884512Y62297562D02*
X137972966Y62353782D01*
X137972966Y62353782D02*
X138072115Y62392347D01*
X138072115Y62392347D02*
X138170303Y62413826D01*
X138170303Y62413826D02*
X138280697Y62419128D01*
X138280697Y62419128D02*
X138391640Y62401448D01*
X138391640Y62401448D02*
X138499381Y62362581D01*
X138499381Y62362581D02*
X138600169Y62304323D01*
X138600169Y62304323D02*
X138690256Y62228469D01*
X138690256Y62228469D02*
X138765892Y62136817D01*
X138765892Y62136817D02*
X138773864Y62124772D01*
X138773864Y62124772D02*
X138799974Y62086611D01*
X138799974Y62086611D02*
X138822595Y62057601D01*
X138822595Y62057601D02*
X138837039Y62043732D01*
X138837039Y62043732D02*
X138837496Y62043531D01*
X138837496Y62043531D02*
X138853121Y62046508D01*
X138853121Y62046508D02*
X138888582Y62058311D01*
X138888582Y62058311D02*
X138940962Y62077714D01*
X138940962Y62077714D02*
X139007345Y62103488D01*
X139007345Y62103488D02*
X139084814Y62134409D01*
X139084814Y62134409D02*
X139170450Y62169249D01*
X139170450Y62169249D02*
X139261337Y62206783D01*
X139261337Y62206783D02*
X139354559Y62245783D01*
X139354559Y62245783D02*
X139447197Y62285023D01*
X139447197Y62285023D02*
X139536335Y62323276D01*
X139536335Y62323276D02*
X139619055Y62359317D01*
X139619055Y62359317D02*
X139692441Y62391917D01*
X139692441Y62391917D02*
X139753575Y62419852D01*
X139753575Y62419852D02*
X139799541Y62441895D01*
X139799541Y62441895D02*
X139827421Y62456818D01*
X139827421Y62456818D02*
X139834743Y62462828D01*
X139834743Y62462828D02*
X139829041Y62481191D01*
X139829041Y62481191D02*
X139813749Y62515552D01*
X139813749Y62515552D02*
X139791599Y62559984D01*
X139791599Y62559984D02*
X139778650Y62584417D01*
X139778650Y62584417D02*
X139722547Y62688178D01*
X139722547Y62688178D02*
X139806155Y62811787D01*
X139806155Y62811787D02*
X139848987Y62874886D01*
X139848987Y62874886D02*
X139896122Y62943970D01*
X139896122Y62943970D02*
X139940503Y63008707D01*
X139940503Y63008707D02*
X139962852Y63041134D01*
X139962852Y63041134D02*
X139993477Y63086741D01*
X139993477Y63086741D02*
X140017747Y63125360D01*
X140017747Y63125360D02*
X140032587Y63151952D01*
X140032587Y63151952D02*
X140035724Y63160590D01*
X140035724Y63160590D02*
X140027261Y63173161D01*
X140027261Y63173161D02*
X140003636Y63200984D01*
X140003636Y63200984D02*
X139967302Y63241361D01*
X139967302Y63241361D02*
X139920711Y63291595D01*
X139920711Y63291595D02*
X139866317Y63348988D01*
X139866317Y63348988D02*
X139831392Y63385286D01*
X139831392Y63385286D02*
X139768996Y63448790D01*
X139768996Y63448790D02*
X139713188Y63503673D01*
X139713188Y63503673D02*
X139666354Y63547714D01*
X139666354Y63547714D02*
X139630882Y63578695D01*
X139630882Y63578695D02*
X139609161Y63594398D01*
X139609161Y63594398D02*
X139604752Y63595905D01*
X139604752Y63595905D02*
X139587985Y63588914D01*
X139587985Y63588914D02*
X139554082Y63569594D01*
X139554082Y63569594D02*
X139506476Y63540091D01*
X139506476Y63540091D02*
X139448599Y63502545D01*
X139448599Y63502545D02*
X139383884Y63459100D01*
X139383884Y63459100D02*
X139365842Y63446745D01*
X139365842Y63446745D02*
X139300267Y63401727D01*
X139300267Y63401727D02*
X139241228Y63361340D01*
X139241228Y63361340D02*
X139192042Y63327840D01*
X139192042Y63327840D02*
X139156028Y63303486D01*
X139156028Y63303486D02*
X139136502Y63290536D01*
X139136502Y63290536D02*
X139134483Y63289285D01*
X139134483Y63289285D02*
X139118922Y63291156D01*
X139118922Y63291156D02*
X139084709Y63301087D01*
X139084709Y63301087D02*
X139036355Y63317347D01*
X139036355Y63317347D02*
X138978371Y63338205D01*
X138978371Y63338205D02*
X138915270Y63361927D01*
X138915270Y63361927D02*
X138851563Y63386784D01*
X138851563Y63386784D02*
X138791761Y63411042D01*
X138791761Y63411042D02*
X138740376Y63432971D01*
X138740376Y63432971D02*
X138701919Y63450838D01*
X138701919Y63450838D02*
X138680902Y63462913D01*
X138680902Y63462913D02*
X138679894Y63463771D01*
X138679894Y63463771D02*
X138673888Y63471154D01*
X138673888Y63471154D02*
X138667948Y63483625D01*
X138667948Y63483625D02*
X138661460Y63503920D01*
X138661460Y63503920D02*
X138653809Y63534778D01*
X138653809Y63534778D02*
X138644380Y63578934D01*
X138644380Y63578934D02*
X138632559Y63639126D01*
X138632559Y63639126D02*
X138617729Y63718093D01*
X138617729Y63718093D02*
X138599277Y63818570D01*
X138599277Y63818570D02*
X138595310Y63840325D01*
X138595310Y63840325D02*
X138582853Y63904802D01*
X138582853Y63904802D02*
X138570666Y63961011D01*
X138570666Y63961011D02*
X138559926Y64003987D01*
X138559926Y64003987D02*
X138551809Y64028760D01*
X138551809Y64028760D02*
X138549916Y64032082D01*
X138549916Y64032082D02*
X138533138Y64037556D01*
X138533138Y64037556D02*
X138495645Y64042006D01*
X138495645Y64042006D02*
X138441794Y64045428D01*
X138441794Y64045428D02*
X138375944Y64047819D01*
X138375944Y64047819D02*
X138302453Y64049177D01*
X138302453Y64049177D02*
X138225680Y64049499D01*
X138225680Y64049499D02*
X138149983Y64048781D01*
X138149983Y64048781D02*
X138079720Y64047021D01*
X138079720Y64047021D02*
X138019250Y64044216D01*
X138019250Y64044216D02*
X137972930Y64040362D01*
X137972930Y64040362D02*
X137945119Y64035457D01*
X137945119Y64035457D02*
X137939427Y64032500D01*
X137939427Y64032500D02*
X137933686Y64016037D01*
X137933686Y64016037D02*
X137924345Y63978551D01*
X137924345Y63978551D02*
X137912215Y63923775D01*
X137912215Y63923775D02*
X137898107Y63855445D01*
X137898107Y63855445D02*
X137882830Y63777294D01*
X137882830Y63777294D02*
X137874823Y63734716D01*
X137874823Y63734716D02*
X137859721Y63653929D01*
X137859721Y63653929D02*
X137846040Y63581887D01*
X137846040Y63581887D02*
X137834467Y63522111D01*
X137834467Y63522111D02*
X137825687Y63478121D01*
X137825687Y63478121D02*
X137820387Y63453439D01*
X137820387Y63453439D02*
X137819212Y63449377D01*
X137819212Y63449377D02*
X137805965Y63442511D01*
X137805965Y63442511D02*
X137774057Y63427998D01*
X137774057Y63427998D02*
X137728047Y63407771D01*
X137728047Y63407771D02*
X137672492Y63383766D01*
X137672492Y63383766D02*
X137611953Y63357918D01*
X137611953Y63357918D02*
X137550986Y63332160D01*
X137550986Y63332160D02*
X137494151Y63308427D01*
X137494151Y63308427D02*
X137446006Y63288654D01*
X137446006Y63288654D02*
X137411110Y63274776D01*
X137411110Y63274776D02*
X137394021Y63268726D01*
X137394021Y63268726D02*
X137393274Y63268614D01*
X137393274Y63268614D02*
X137379793Y63275472D01*
X137379793Y63275472D02*
X137348770Y63294698D01*
X137348770Y63294698D02*
X137303289Y63324272D01*
X137303289Y63324272D02*
X137246432Y63362173D01*
X137246432Y63362173D02*
X137181283Y63406380D01*
X137181283Y63406380D02*
X137143862Y63432079D01*
X137143862Y63432079D02*
X137075247Y63478907D01*
X137075247Y63478907D02*
X137012952Y63520499D01*
X137012952Y63520499D02*
X136960129Y63554825D01*
X136960129Y63554825D02*
X136919927Y63579857D01*
X136919927Y63579857D02*
X136895500Y63593565D01*
X136895500Y63593565D02*
X136890024Y63595544D01*
X136890024Y63595544D02*
X136877278Y63587034D01*
X136877278Y63587034D02*
X136850063Y63563507D01*
X136850063Y63563507D02*
X136811428Y63527968D01*
X136811428Y63527968D02*
X136764423Y63483423D01*
X136764423Y63483423D02*
X136712095Y63432877D01*
X136712095Y63432877D02*
X136657495Y63379336D01*
X136657495Y63379336D02*
X136603670Y63325805D01*
X136603670Y63325805D02*
X136553670Y63275289D01*
X136553670Y63275289D02*
X136510543Y63230794D01*
X136510543Y63230794D02*
X136477339Y63195325D01*
X136477339Y63195325D02*
X136457106Y63171887D01*
X136457106Y63171887D02*
X136452278Y63164046D01*
X136452278Y63164046D02*
X136459067Y63151280D01*
X136459067Y63151280D02*
X136478142Y63120744D01*
X136478142Y63120744D02*
X136507561Y63075410D01*
X136507561Y63075410D02*
X136545381Y63018244D01*
X136545381Y63018244D02*
X136589661Y62952216D01*
X136589661Y62952216D02*
X136623395Y62902410D01*
X136623395Y62902410D02*
X136794512Y62650764D01*
X136794512Y62650764D02*
X136708041Y62441001D01*
X136708041Y62441001D02*
X136621570Y62231237D01*
X136621570Y62231237D02*
X136320018Y62174389D01*
X136320018Y62174389D02*
X136018466Y62117540D01*
X136018466Y62117540D02*
X136018466Y61489885D01*
X136018466Y61489885D02*
X136320018Y61433036D01*
X136320018Y61433036D02*
X136320018Y61433036D01*
G36*
X138302453Y64049177D02*
G01*
X138375944Y64047819D01*
X138441794Y64045428D01*
X138495645Y64042006D01*
X138533138Y64037556D01*
X138549916Y64032082D01*
X138551809Y64028760D01*
X138559926Y64003987D01*
X138570666Y63961011D01*
X138582853Y63904802D01*
X138595310Y63840325D01*
X138599277Y63818570D01*
X138617729Y63718093D01*
X138632559Y63639126D01*
X138644380Y63578934D01*
X138653809Y63534778D01*
X138661460Y63503920D01*
X138667948Y63483625D01*
X138673888Y63471154D01*
X138679894Y63463771D01*
X138680902Y63462913D01*
X138701919Y63450838D01*
X138740376Y63432971D01*
X138791761Y63411042D01*
X138851563Y63386784D01*
X138915270Y63361927D01*
X138978371Y63338205D01*
X139036355Y63317347D01*
X139084709Y63301087D01*
X139118922Y63291156D01*
X139134483Y63289285D01*
X139136502Y63290536D01*
X139156028Y63303486D01*
X139192042Y63327840D01*
X139241228Y63361340D01*
X139300267Y63401727D01*
X139365842Y63446745D01*
X139383884Y63459100D01*
X139448599Y63502545D01*
X139506476Y63540091D01*
X139554082Y63569594D01*
X139587985Y63588914D01*
X139604752Y63595905D01*
X139609161Y63594398D01*
X139630882Y63578695D01*
X139666354Y63547714D01*
X139713188Y63503673D01*
X139768996Y63448790D01*
X139831392Y63385286D01*
X139866317Y63348988D01*
X139920711Y63291595D01*
X139967302Y63241361D01*
X140003636Y63200984D01*
X140027261Y63173161D01*
X140035724Y63160590D01*
X140032587Y63151952D01*
X140017747Y63125360D01*
X139993477Y63086741D01*
X139962852Y63041134D01*
X139940503Y63008707D01*
X139896122Y62943970D01*
X139848987Y62874886D01*
X139806155Y62811787D01*
X139722547Y62688178D01*
X139778650Y62584417D01*
X139791599Y62559984D01*
X139813749Y62515552D01*
X139829041Y62481191D01*
X139834743Y62462828D01*
X139827421Y62456818D01*
X139799541Y62441895D01*
X139753575Y62419852D01*
X139692441Y62391917D01*
X139619055Y62359317D01*
X139536335Y62323276D01*
X139447197Y62285023D01*
X139354559Y62245783D01*
X139261337Y62206783D01*
X139170450Y62169249D01*
X139084814Y62134409D01*
X139007345Y62103488D01*
X138940962Y62077714D01*
X138888582Y62058311D01*
X138853121Y62046508D01*
X138837496Y62043531D01*
X138837039Y62043732D01*
X138822595Y62057601D01*
X138799974Y62086611D01*
X138773864Y62124772D01*
X138765892Y62136817D01*
X138690256Y62228469D01*
X138600169Y62304323D01*
X138499381Y62362581D01*
X138391640Y62401448D01*
X138280697Y62419128D01*
X138170303Y62413826D01*
X138072115Y62392347D01*
X137972966Y62353782D01*
X137884512Y62297562D01*
X137800487Y62220410D01*
X137773645Y62190095D01*
X137707510Y62092094D01*
X137662970Y61986227D01*
X137639625Y61875561D01*
X137637078Y61763164D01*
X137654929Y61652105D01*
X137692780Y61545451D01*
X137750232Y61446270D01*
X137826887Y61357631D01*
X137922345Y61282600D01*
X137945985Y61268175D01*
X138054034Y61219143D01*
X138166548Y61193103D01*
X138280614Y61189372D01*
X138393318Y61207268D01*
X138501745Y61246109D01*
X138602982Y61305214D01*
X138694114Y61383900D01*
X138772228Y61481485D01*
X138774333Y61484654D01*
X138800940Y61522411D01*
X138823561Y61550709D01*
X138837496Y61563634D01*
X138848421Y61562003D01*
X138880231Y61551864D01*
X138929534Y61533884D01*
X138993413Y61509292D01*
X139068948Y61479311D01*
X139153223Y61445170D01*
X139243320Y61408092D01*
X139336321Y61369306D01*
X139429308Y61330036D01*
X139519364Y61291509D01*
X139603571Y61254950D01*
X139679010Y61221586D01*
X139742765Y61192643D01*
X139791917Y61169346D01*
X139823549Y61152923D01*
X139834743Y61144598D01*
X139833227Y61137674D01*
X139822331Y61110477D01*
X139803228Y61070280D01*
X139778650Y61023009D01*
X139722547Y60919248D01*
X139806155Y60795639D01*
X139830913Y60759120D01*
X139877171Y60691194D01*
X139923503Y60623475D01*
X139962852Y60566291D01*
X139984297Y60534732D01*
X140010939Y60493714D01*
X140029178Y60463301D01*
X140035941Y60448446D01*
X140033070Y60442065D01*
X140015485Y60418996D01*
X139984523Y60383433D01*
X139943231Y60338471D01*
X139894653Y60287206D01*
X139841835Y60232733D01*
X139787823Y60178148D01*
X139735661Y60126547D01*
X139688396Y60081024D01*
X139649072Y60044675D01*
X139620736Y60020595D01*
X139606432Y60011881D01*
X139603711Y60012383D01*
X139581560Y60022755D01*
X139543235Y60044912D01*
X139492200Y60076712D01*
X139431914Y60116016D01*
X139365842Y60160681D01*
X139347617Y60173207D01*
X139283485Y60217193D01*
X139226789Y60255937D01*
X139180844Y60287182D01*
X139148970Y60308669D01*
X139134483Y60318140D01*
X139133862Y60318373D01*
X139116139Y60315578D01*
X139080235Y60304903D01*
X139030662Y60288081D01*
X138971932Y60266843D01*
X138908556Y60242921D01*
X138845046Y60218046D01*
X138785913Y60193950D01*
X138735669Y60172365D01*
X138698826Y60155023D01*
X138679894Y60143655D01*
X138678719Y60142516D01*
X138672773Y60134376D01*
X138666776Y60120629D01*
X138660114Y60098537D01*
X138652173Y60065363D01*
X138642337Y60018370D01*
X138629991Y59954820D01*
X138614520Y59871976D01*
X138595310Y59767100D01*
X138591267Y59745348D01*
X138578769Y59683036D01*
X138566927Y59630619D01*
X138556917Y59593066D01*
X138549916Y59575343D01*
X138544075Y59572378D01*
X138516016Y59567435D01*
X138469500Y59563518D01*
X138408886Y59560629D01*
X138338532Y59558773D01*
X138262796Y59557952D01*
X138186037Y59558168D01*
X138112612Y59559426D01*
X138046880Y59561728D01*
X137993200Y59565076D01*
X137955930Y59569474D01*
X137939427Y59574926D01*
X137936989Y59580491D01*
X137929305Y59608178D01*
X137918436Y59654979D01*
X137905192Y59717157D01*
X137890384Y59790979D01*
X137874823Y59872710D01*
X137866509Y59917336D01*
X137852092Y59993824D01*
X137839467Y60059660D01*
X137829321Y60111323D01*
X137822341Y60145293D01*
X137819212Y60158048D01*
X137818568Y60158528D01*
X137802181Y60166651D01*
X137767852Y60182137D01*
X137720136Y60203050D01*
X137663586Y60227455D01*
X137602758Y60253416D01*
X137542206Y60278997D01*
X137486485Y60302262D01*
X137440150Y60321277D01*
X137407755Y60334105D01*
X137393855Y60338812D01*
X137388965Y60336736D01*
X137365692Y60322920D01*
X137326519Y60297860D01*
X137274520Y60263568D01*
X137212768Y60222059D01*
X137144336Y60175346D01*
X137106860Y60149718D01*
X137041156Y60105490D01*
X136983492Y60067570D01*
X136937014Y60037980D01*
X136904865Y60018743D01*
X136890190Y60011881D01*
X136882230Y60016649D01*
X136858446Y60036593D01*
X136822451Y60069313D01*
X136777295Y60111805D01*
X136726028Y60161065D01*
X136671701Y60214091D01*
X136617364Y60267877D01*
X136566067Y60319421D01*
X136520859Y60365720D01*
X136484792Y60403769D01*
X136460914Y60430565D01*
X136452278Y60443105D01*
X136455636Y60450066D01*
X136471210Y60475627D01*
X136497715Y60516874D01*
X136533210Y60570837D01*
X136575750Y60634542D01*
X136623395Y60705016D01*
X136794512Y60956662D01*
X136621570Y61376188D01*
X136320018Y61433036D01*
X136018466Y61489885D01*
X136018466Y62117540D01*
X136320018Y62174389D01*
X136621570Y62231237D01*
X136708041Y62441001D01*
X136794512Y62650764D01*
X136623395Y62902410D01*
X136589661Y62952216D01*
X136545381Y63018244D01*
X136507561Y63075410D01*
X136478142Y63120744D01*
X136459067Y63151280D01*
X136452278Y63164046D01*
X136457106Y63171887D01*
X136477339Y63195325D01*
X136510543Y63230794D01*
X136553670Y63275289D01*
X136603670Y63325805D01*
X136657495Y63379336D01*
X136712095Y63432877D01*
X136764423Y63483423D01*
X136811428Y63527968D01*
X136850063Y63563507D01*
X136877278Y63587034D01*
X136890024Y63595544D01*
X136895500Y63593565D01*
X136919927Y63579857D01*
X136960129Y63554825D01*
X137012952Y63520499D01*
X137075247Y63478907D01*
X137143862Y63432079D01*
X137181283Y63406380D01*
X137246432Y63362173D01*
X137303289Y63324272D01*
X137348770Y63294698D01*
X137379793Y63275472D01*
X137393274Y63268614D01*
X137394021Y63268726D01*
X137411110Y63274776D01*
X137446006Y63288654D01*
X137494151Y63308427D01*
X137550986Y63332160D01*
X137611953Y63357918D01*
X137672492Y63383766D01*
X137728047Y63407771D01*
X137774057Y63427998D01*
X137805965Y63442511D01*
X137819212Y63449377D01*
X137820387Y63453439D01*
X137825687Y63478121D01*
X137834467Y63522111D01*
X137846040Y63581887D01*
X137859721Y63653929D01*
X137874823Y63734716D01*
X137882830Y63777294D01*
X137898107Y63855445D01*
X137912215Y63923775D01*
X137924345Y63978551D01*
X137933686Y64016037D01*
X137939427Y64032500D01*
X137945119Y64035457D01*
X137972930Y64040362D01*
X138019250Y64044216D01*
X138079720Y64047021D01*
X138149983Y64048781D01*
X138225680Y64049499D01*
X138302453Y64049177D01*
G37*
X138302453Y64049177D02*
X138375944Y64047819D01*
X138441794Y64045428D01*
X138495645Y64042006D01*
X138533138Y64037556D01*
X138549916Y64032082D01*
X138551809Y64028760D01*
X138559926Y64003987D01*
X138570666Y63961011D01*
X138582853Y63904802D01*
X138595310Y63840325D01*
X138599277Y63818570D01*
X138617729Y63718093D01*
X138632559Y63639126D01*
X138644380Y63578934D01*
X138653809Y63534778D01*
X138661460Y63503920D01*
X138667948Y63483625D01*
X138673888Y63471154D01*
X138679894Y63463771D01*
X138680902Y63462913D01*
X138701919Y63450838D01*
X138740376Y63432971D01*
X138791761Y63411042D01*
X138851563Y63386784D01*
X138915270Y63361927D01*
X138978371Y63338205D01*
X139036355Y63317347D01*
X139084709Y63301087D01*
X139118922Y63291156D01*
X139134483Y63289285D01*
X139136502Y63290536D01*
X139156028Y63303486D01*
X139192042Y63327840D01*
X139241228Y63361340D01*
X139300267Y63401727D01*
X139365842Y63446745D01*
X139383884Y63459100D01*
X139448599Y63502545D01*
X139506476Y63540091D01*
X139554082Y63569594D01*
X139587985Y63588914D01*
X139604752Y63595905D01*
X139609161Y63594398D01*
X139630882Y63578695D01*
X139666354Y63547714D01*
X139713188Y63503673D01*
X139768996Y63448790D01*
X139831392Y63385286D01*
X139866317Y63348988D01*
X139920711Y63291595D01*
X139967302Y63241361D01*
X140003636Y63200984D01*
X140027261Y63173161D01*
X140035724Y63160590D01*
X140032587Y63151952D01*
X140017747Y63125360D01*
X139993477Y63086741D01*
X139962852Y63041134D01*
X139940503Y63008707D01*
X139896122Y62943970D01*
X139848987Y62874886D01*
X139806155Y62811787D01*
X139722547Y62688178D01*
X139778650Y62584417D01*
X139791599Y62559984D01*
X139813749Y62515552D01*
X139829041Y62481191D01*
X139834743Y62462828D01*
X139827421Y62456818D01*
X139799541Y62441895D01*
X139753575Y62419852D01*
X139692441Y62391917D01*
X139619055Y62359317D01*
X139536335Y62323276D01*
X139447197Y62285023D01*
X139354559Y62245783D01*
X139261337Y62206783D01*
X139170450Y62169249D01*
X139084814Y62134409D01*
X139007345Y62103488D01*
X138940962Y62077714D01*
X138888582Y62058311D01*
X138853121Y62046508D01*
X138837496Y62043531D01*
X138837039Y62043732D01*
X138822595Y62057601D01*
X138799974Y62086611D01*
X138773864Y62124772D01*
X138765892Y62136817D01*
X138690256Y62228469D01*
X138600169Y62304323D01*
X138499381Y62362581D01*
X138391640Y62401448D01*
X138280697Y62419128D01*
X138170303Y62413826D01*
X138072115Y62392347D01*
X137972966Y62353782D01*
X137884512Y62297562D01*
X137800487Y62220410D01*
X137773645Y62190095D01*
X137707510Y62092094D01*
X137662970Y61986227D01*
X137639625Y61875561D01*
X137637078Y61763164D01*
X137654929Y61652105D01*
X137692780Y61545451D01*
X137750232Y61446270D01*
X137826887Y61357631D01*
X137922345Y61282600D01*
X137945985Y61268175D01*
X138054034Y61219143D01*
X138166548Y61193103D01*
X138280614Y61189372D01*
X138393318Y61207268D01*
X138501745Y61246109D01*
X138602982Y61305214D01*
X138694114Y61383900D01*
X138772228Y61481485D01*
X138774333Y61484654D01*
X138800940Y61522411D01*
X138823561Y61550709D01*
X138837496Y61563634D01*
X138848421Y61562003D01*
X138880231Y61551864D01*
X138929534Y61533884D01*
X138993413Y61509292D01*
X139068948Y61479311D01*
X139153223Y61445170D01*
X139243320Y61408092D01*
X139336321Y61369306D01*
X139429308Y61330036D01*
X139519364Y61291509D01*
X139603571Y61254950D01*
X139679010Y61221586D01*
X139742765Y61192643D01*
X139791917Y61169346D01*
X139823549Y61152923D01*
X139834743Y61144598D01*
X139833227Y61137674D01*
X139822331Y61110477D01*
X139803228Y61070280D01*
X139778650Y61023009D01*
X139722547Y60919248D01*
X139806155Y60795639D01*
X139830913Y60759120D01*
X139877171Y60691194D01*
X139923503Y60623475D01*
X139962852Y60566291D01*
X139984297Y60534732D01*
X140010939Y60493714D01*
X140029178Y60463301D01*
X140035941Y60448446D01*
X140033070Y60442065D01*
X140015485Y60418996D01*
X139984523Y60383433D01*
X139943231Y60338471D01*
X139894653Y60287206D01*
X139841835Y60232733D01*
X139787823Y60178148D01*
X139735661Y60126547D01*
X139688396Y60081024D01*
X139649072Y60044675D01*
X139620736Y60020595D01*
X139606432Y60011881D01*
X139603711Y60012383D01*
X139581560Y60022755D01*
X139543235Y60044912D01*
X139492200Y60076712D01*
X139431914Y60116016D01*
X139365842Y60160681D01*
X139347617Y60173207D01*
X139283485Y60217193D01*
X139226789Y60255937D01*
X139180844Y60287182D01*
X139148970Y60308669D01*
X139134483Y60318140D01*
X139133862Y60318373D01*
X139116139Y60315578D01*
X139080235Y60304903D01*
X139030662Y60288081D01*
X138971932Y60266843D01*
X138908556Y60242921D01*
X138845046Y60218046D01*
X138785913Y60193950D01*
X138735669Y60172365D01*
X138698826Y60155023D01*
X138679894Y60143655D01*
X138678719Y60142516D01*
X138672773Y60134376D01*
X138666776Y60120629D01*
X138660114Y60098537D01*
X138652173Y60065363D01*
X138642337Y60018370D01*
X138629991Y59954820D01*
X138614520Y59871976D01*
X138595310Y59767100D01*
X138591267Y59745348D01*
X138578769Y59683036D01*
X138566927Y59630619D01*
X138556917Y59593066D01*
X138549916Y59575343D01*
X138544075Y59572378D01*
X138516016Y59567435D01*
X138469500Y59563518D01*
X138408886Y59560629D01*
X138338532Y59558773D01*
X138262796Y59557952D01*
X138186037Y59558168D01*
X138112612Y59559426D01*
X138046880Y59561728D01*
X137993200Y59565076D01*
X137955930Y59569474D01*
X137939427Y59574926D01*
X137936989Y59580491D01*
X137929305Y59608178D01*
X137918436Y59654979D01*
X137905192Y59717157D01*
X137890384Y59790979D01*
X137874823Y59872710D01*
X137866509Y59917336D01*
X137852092Y59993824D01*
X137839467Y60059660D01*
X137829321Y60111323D01*
X137822341Y60145293D01*
X137819212Y60158048D01*
X137818568Y60158528D01*
X137802181Y60166651D01*
X137767852Y60182137D01*
X137720136Y60203050D01*
X137663586Y60227455D01*
X137602758Y60253416D01*
X137542206Y60278997D01*
X137486485Y60302262D01*
X137440150Y60321277D01*
X137407755Y60334105D01*
X137393855Y60338812D01*
X137388965Y60336736D01*
X137365692Y60322920D01*
X137326519Y60297860D01*
X137274520Y60263568D01*
X137212768Y60222059D01*
X137144336Y60175346D01*
X137106860Y60149718D01*
X137041156Y60105490D01*
X136983492Y60067570D01*
X136937014Y60037980D01*
X136904865Y60018743D01*
X136890190Y60011881D01*
X136882230Y60016649D01*
X136858446Y60036593D01*
X136822451Y60069313D01*
X136777295Y60111805D01*
X136726028Y60161065D01*
X136671701Y60214091D01*
X136617364Y60267877D01*
X136566067Y60319421D01*
X136520859Y60365720D01*
X136484792Y60403769D01*
X136460914Y60430565D01*
X136452278Y60443105D01*
X136455636Y60450066D01*
X136471210Y60475627D01*
X136497715Y60516874D01*
X136533210Y60570837D01*
X136575750Y60634542D01*
X136623395Y60705016D01*
X136794512Y60956662D01*
X136621570Y61376188D01*
X136320018Y61433036D01*
X136018466Y61489885D01*
X136018466Y62117540D01*
X136320018Y62174389D01*
X136621570Y62231237D01*
X136708041Y62441001D01*
X136794512Y62650764D01*
X136623395Y62902410D01*
X136589661Y62952216D01*
X136545381Y63018244D01*
X136507561Y63075410D01*
X136478142Y63120744D01*
X136459067Y63151280D01*
X136452278Y63164046D01*
X136457106Y63171887D01*
X136477339Y63195325D01*
X136510543Y63230794D01*
X136553670Y63275289D01*
X136603670Y63325805D01*
X136657495Y63379336D01*
X136712095Y63432877D01*
X136764423Y63483423D01*
X136811428Y63527968D01*
X136850063Y63563507D01*
X136877278Y63587034D01*
X136890024Y63595544D01*
X136895500Y63593565D01*
X136919927Y63579857D01*
X136960129Y63554825D01*
X137012952Y63520499D01*
X137075247Y63478907D01*
X137143862Y63432079D01*
X137181283Y63406380D01*
X137246432Y63362173D01*
X137303289Y63324272D01*
X137348770Y63294698D01*
X137379793Y63275472D01*
X137393274Y63268614D01*
X137394021Y63268726D01*
X137411110Y63274776D01*
X137446006Y63288654D01*
X137494151Y63308427D01*
X137550986Y63332160D01*
X137611953Y63357918D01*
X137672492Y63383766D01*
X137728047Y63407771D01*
X137774057Y63427998D01*
X137805965Y63442511D01*
X137819212Y63449377D01*
X137820387Y63453439D01*
X137825687Y63478121D01*
X137834467Y63522111D01*
X137846040Y63581887D01*
X137859721Y63653929D01*
X137874823Y63734716D01*
X137882830Y63777294D01*
X137898107Y63855445D01*
X137912215Y63923775D01*
X137924345Y63978551D01*
X137933686Y64016037D01*
X137939427Y64032500D01*
X137945119Y64035457D01*
X137972930Y64040362D01*
X138019250Y64044216D01*
X138079720Y64047021D01*
X138149983Y64048781D01*
X138225680Y64049499D01*
X138302453Y64049177D01*
X141436555Y63194210D02*
X141452339Y63135055D01*
X141452339Y63135055D02*
X141480948Y63090023D01*
X141480948Y63090023D02*
X141518419Y63058246D01*
X141518419Y63058246D02*
X141534411Y63048366D01*
X141534411Y63048366D02*
X141551163Y63041073D01*
X141551163Y63041073D02*
X141572592Y63035974D01*
X141572592Y63035974D02*
X141602616Y63032679D01*
X141602616Y63032679D02*
X141645154Y63030797D01*
X141645154Y63030797D02*
X141704122Y63029937D01*
X141704122Y63029937D02*
X141783440Y63029707D01*
X141783440Y63029707D02*
X141804484Y63029703D01*
X141804484Y63029703D02*
X142047822Y63029703D01*
X142047822Y63029703D02*
X142047822Y63090059D01*
X142047822Y63090059D02*
X142045126Y63128557D01*
X142045126Y63128557D02*
X142038295Y63157023D01*
X142038295Y63157023D02*
X142034083Y63164155D01*
X142034083Y63164155D02*
X142026813Y63183652D01*
X142026813Y63183652D02*
X142034083Y63203566D01*
X142034083Y63203566D02*
X142043160Y63236353D01*
X142043160Y63236353D02*
X142046813Y63283978D01*
X142046813Y63283978D02*
X142045228Y63336764D01*
X142045228Y63336764D02*
X142038589Y63385036D01*
X142038589Y63385036D02*
X142030072Y63413218D01*
X142030072Y63413218D02*
X141995063Y63467753D01*
X141995063Y63467753D02*
X141946479Y63501835D01*
X141946479Y63501835D02*
X141881882Y63517157D01*
X141881882Y63517157D02*
X141880223Y63517299D01*
X141880223Y63517299D02*
X141851566Y63515955D01*
X141851566Y63515955D02*
X141851566Y63394356D01*
X141851566Y63394356D02*
X141884161Y63383726D01*
X141884161Y63383726D02*
X141902505Y63366410D01*
X141902505Y63366410D02*
X141916379Y63331652D01*
X141916379Y63331652D02*
X141921917Y63285773D01*
X141921917Y63285773D02*
X141919191Y63238988D01*
X141919191Y63238988D02*
X141908274Y63201514D01*
X141908274Y63201514D02*
X141901269Y63191015D01*
X141901269Y63191015D02*
X141868904Y63172668D01*
X141868904Y63172668D02*
X141832111Y63168020D01*
X141832111Y63168020D02*
X141783763Y63168020D01*
X141783763Y63168020D02*
X141783763Y63237582D01*
X141783763Y63237582D02*
X141788850Y63303667D01*
X141788850Y63303667D02*
X141803263Y63353764D01*
X141803263Y63353764D02*
X141825729Y63384929D01*
X141825729Y63384929D02*
X141851566Y63394356D01*
X141851566Y63394356D02*
X141851566Y63515955D01*
X141851566Y63515955D02*
X141809647Y63513987D01*
X141809647Y63513987D02*
X141753845Y63490710D01*
X141753845Y63490710D02*
X141711647Y63446948D01*
X141711647Y63446948D02*
X141707808Y63440899D01*
X141707808Y63440899D02*
X141695309Y63414907D01*
X141695309Y63414907D02*
X141687740Y63382735D01*
X141687740Y63382735D02*
X141684061Y63337760D01*
X141684061Y63337760D02*
X141683216Y63284331D01*
X141683216Y63284331D02*
X141683169Y63168020D01*
X141683169Y63168020D02*
X141634411Y63168020D01*
X141634411Y63168020D02*
X141596581Y63172953D01*
X141596581Y63172953D02*
X141571236Y63185543D01*
X141571236Y63185543D02*
X141569887Y63187017D01*
X141569887Y63187017D02*
X141558800Y63215034D01*
X141558800Y63215034D02*
X141554503Y63257326D01*
X141554503Y63257326D02*
X141556615Y63304064D01*
X141556615Y63304064D02*
X141564756Y63345418D01*
X141564756Y63345418D02*
X141576965Y63369957D01*
X141576965Y63369957D02*
X141586746Y63383253D01*
X141586746Y63383253D02*
X141588613Y63397294D01*
X141588613Y63397294D02*
X141580600Y63416671D01*
X141580600Y63416671D02*
X141560739Y63445976D01*
X141560739Y63445976D02*
X141527063Y63489803D01*
X141527063Y63489803D02*
X141523909Y63493825D01*
X141523909Y63493825D02*
X141512236Y63491764D01*
X141512236Y63491764D02*
X141492822Y63474568D01*
X141492822Y63474568D02*
X141471248Y63448433D01*
X141471248Y63448433D02*
X141453096Y63419552D01*
X141453096Y63419552D02*
X141448809Y63410478D01*
X141448809Y63410478D02*
X141440256Y63377380D01*
X141440256Y63377380D02*
X141434155Y63328880D01*
X141434155Y63328880D02*
X141431708Y63274695D01*
X141431708Y63274695D02*
X141431703Y63272161D01*
X141431703Y63272161D02*
X141436555Y63194210D01*
X141436555Y63194210D02*
X141436555Y63194210D01*
G36*
X141881882Y63517157D02*
G01*
X141946479Y63501835D01*
X141995063Y63467753D01*
X142030072Y63413218D01*
X142038589Y63385036D01*
X142045228Y63336764D01*
X142046813Y63283978D01*
X142043160Y63236353D01*
X142034083Y63203566D01*
X142026813Y63183652D01*
X142034083Y63164155D01*
X142038295Y63157023D01*
X142045126Y63128557D01*
X142047822Y63090059D01*
X142047822Y63029703D01*
X141804484Y63029703D01*
X141783440Y63029707D01*
X141704122Y63029937D01*
X141645154Y63030797D01*
X141602616Y63032679D01*
X141572592Y63035974D01*
X141551163Y63041073D01*
X141534411Y63048366D01*
X141518419Y63058246D01*
X141480948Y63090023D01*
X141452339Y63135055D01*
X141436555Y63194210D01*
X141431703Y63272161D01*
X141431708Y63274695D01*
X141434155Y63328880D01*
X141440256Y63377380D01*
X141448809Y63410478D01*
X141453096Y63419552D01*
X141471248Y63448433D01*
X141492822Y63474568D01*
X141512236Y63491764D01*
X141523909Y63493825D01*
X141527063Y63489803D01*
X141560739Y63445976D01*
X141580600Y63416671D01*
X141588613Y63397294D01*
X141586746Y63383253D01*
X141576965Y63369957D01*
X141564756Y63345418D01*
X141556615Y63304064D01*
X141554503Y63257326D01*
X141558800Y63215034D01*
X141569887Y63187017D01*
X141571236Y63185543D01*
X141596581Y63172953D01*
X141634411Y63168020D01*
X141683169Y63168020D01*
X141783763Y63168020D01*
X141832111Y63168020D01*
X141868904Y63172668D01*
X141901269Y63191015D01*
X141908274Y63201514D01*
X141919191Y63238988D01*
X141921917Y63285773D01*
X141916379Y63331652D01*
X141902505Y63366410D01*
X141884161Y63383726D01*
X141851566Y63394356D01*
X141825729Y63384929D01*
X141803263Y63353764D01*
X141788850Y63303667D01*
X141783763Y63237582D01*
X141783763Y63168020D01*
X141683169Y63168020D01*
X141683216Y63284331D01*
X141684061Y63337760D01*
X141687740Y63382735D01*
X141695309Y63414907D01*
X141707808Y63440899D01*
X141711647Y63446948D01*
X141753845Y63490710D01*
X141809647Y63513987D01*
X141851566Y63515955D01*
X141880223Y63517299D01*
X141881882Y63517157D01*
G37*
X141881882Y63517157D02*
X141946479Y63501835D01*
X141995063Y63467753D01*
X142030072Y63413218D01*
X142038589Y63385036D01*
X142045228Y63336764D01*
X142046813Y63283978D01*
X142043160Y63236353D01*
X142034083Y63203566D01*
X142026813Y63183652D01*
X142034083Y63164155D01*
X142038295Y63157023D01*
X142045126Y63128557D01*
X142047822Y63090059D01*
X142047822Y63029703D01*
X141804484Y63029703D01*
X141783440Y63029707D01*
X141704122Y63029937D01*
X141645154Y63030797D01*
X141602616Y63032679D01*
X141572592Y63035974D01*
X141551163Y63041073D01*
X141534411Y63048366D01*
X141518419Y63058246D01*
X141480948Y63090023D01*
X141452339Y63135055D01*
X141436555Y63194210D01*
X141431703Y63272161D01*
X141431708Y63274695D01*
X141434155Y63328880D01*
X141440256Y63377380D01*
X141448809Y63410478D01*
X141453096Y63419552D01*
X141471248Y63448433D01*
X141492822Y63474568D01*
X141512236Y63491764D01*
X141523909Y63493825D01*
X141527063Y63489803D01*
X141560739Y63445976D01*
X141580600Y63416671D01*
X141588613Y63397294D01*
X141586746Y63383253D01*
X141576965Y63369957D01*
X141564756Y63345418D01*
X141556615Y63304064D01*
X141554503Y63257326D01*
X141558800Y63215034D01*
X141569887Y63187017D01*
X141571236Y63185543D01*
X141596581Y63172953D01*
X141634411Y63168020D01*
X141683169Y63168020D01*
X141783763Y63168020D01*
X141832111Y63168020D01*
X141868904Y63172668D01*
X141901269Y63191015D01*
X141908274Y63201514D01*
X141919191Y63238988D01*
X141921917Y63285773D01*
X141916379Y63331652D01*
X141902505Y63366410D01*
X141884161Y63383726D01*
X141851566Y63394356D01*
X141825729Y63384929D01*
X141803263Y63353764D01*
X141788850Y63303667D01*
X141783763Y63237582D01*
X141783763Y63168020D01*
X141683169Y63168020D01*
X141683216Y63284331D01*
X141684061Y63337760D01*
X141687740Y63382735D01*
X141695309Y63414907D01*
X141707808Y63440899D01*
X141711647Y63446948D01*
X141753845Y63490710D01*
X141809647Y63513987D01*
X141851566Y63515955D01*
X141880223Y63517299D01*
X141881882Y63517157D01*
X141434237Y61528476D02*
X141437971Y61478745D01*
X141437971Y61478745D02*
X141827773Y61348709D01*
X141827773Y61348709D02*
X141758614Y61328322D01*
X141758614Y61328322D02*
X141715874Y61316054D01*
X141715874Y61316054D02*
X141658115Y61299915D01*
X141658115Y61299915D02*
X141594625Y61282488D01*
X141594625Y61282488D02*
X141560570Y61273274D01*
X141560570Y61273274D02*
X141431683Y61238612D01*
X141431683Y61238612D02*
X141431683Y61095609D01*
X141431683Y61095609D02*
X141566857Y61138354D01*
X141566857Y61138354D02*
X141633342Y61159404D01*
X141633342Y61159404D02*
X141713539Y61184833D01*
X141713539Y61184833D02*
X141797193Y61211390D01*
X141797193Y61211390D02*
X141871782Y61235098D01*
X141871782Y61235098D02*
X142041535Y61289098D01*
X142041535Y61289098D02*
X142045328Y61347402D01*
X142045328Y61347402D02*
X142049122Y61405705D01*
X142049122Y61405705D02*
X141944734Y61437321D01*
X141944734Y61437321D02*
X141879889Y61456818D01*
X141879889Y61456818D02*
X141808400Y61478096D01*
X141808400Y61478096D02*
X141745263Y61496692D01*
X141745263Y61496692D02*
X141742750Y61497426D01*
X141742750Y61497426D02*
X141699969Y61511316D01*
X141699969Y61511316D02*
X141670779Y61523571D01*
X141670779Y61523571D02*
X141659741Y61532154D01*
X141659741Y61532154D02*
X141661018Y61533918D01*
X141661018Y61533918D02*
X141678130Y61540109D01*
X141678130Y61540109D02*
X141714787Y61551872D01*
X141714787Y61551872D02*
X141766378Y61567775D01*
X141766378Y61567775D02*
X141828294Y61586386D01*
X141828294Y61586386D02*
X141862352Y61596457D01*
X141862352Y61596457D02*
X142047822Y61650993D01*
X142047822Y61650993D02*
X142047822Y61766736D01*
X142047822Y61766736D02*
X141755471Y61859263D01*
X141755471Y61859263D02*
X141673462Y61885256D01*
X141673462Y61885256D02*
X141598987Y61908934D01*
X141598987Y61908934D02*
X141535544Y61929180D01*
X141535544Y61929180D02*
X141486632Y61944874D01*
X141486632Y61944874D02*
X141455749Y61954898D01*
X141455749Y61954898D02*
X141446726Y61957945D01*
X141446726Y61957945D02*
X141437487Y61955533D01*
X141437487Y61955533D02*
X141433441Y61936592D01*
X141433441Y61936592D02*
X141433846Y61897177D01*
X141433846Y61897177D02*
X141434152Y61891007D01*
X141434152Y61891007D02*
X141437971Y61817914D01*
X141437971Y61817914D02*
X141614010Y61770043D01*
X141614010Y61770043D02*
X141678211Y61752447D01*
X141678211Y61752447D02*
X141734649Y61736723D01*
X141734649Y61736723D02*
X141778422Y61724254D01*
X141778422Y61724254D02*
X141804630Y61716426D01*
X141804630Y61716426D02*
X141808903Y61714980D01*
X141808903Y61714980D02*
X141803990Y61708986D01*
X141803990Y61708986D02*
X141778532Y61696899D01*
X141778532Y61696899D02*
X141735997Y61680107D01*
X141735997Y61680107D02*
X141679850Y61659997D01*
X141679850Y61659997D02*
X141629130Y61642997D01*
X141629130Y61642997D02*
X141430504Y61578206D01*
X141430504Y61578206D02*
X141434237Y61528476D01*
X141434237Y61528476D02*
X141434237Y61528476D01*
G36*
X141455749Y61954898D02*
G01*
X141486632Y61944874D01*
X141535544Y61929180D01*
X141598987Y61908934D01*
X141673462Y61885256D01*
X141755471Y61859263D01*
X142047822Y61766736D01*
X142047822Y61650993D01*
X141862352Y61596457D01*
X141828294Y61586386D01*
X141766378Y61567775D01*
X141714787Y61551872D01*
X141678130Y61540109D01*
X141661018Y61533918D01*
X141659741Y61532154D01*
X141670779Y61523571D01*
X141699969Y61511316D01*
X141742750Y61497426D01*
X141745263Y61496692D01*
X141808400Y61478096D01*
X141879889Y61456818D01*
X141944734Y61437321D01*
X142049122Y61405705D01*
X142045328Y61347402D01*
X142041535Y61289098D01*
X141871782Y61235098D01*
X141797193Y61211390D01*
X141713539Y61184833D01*
X141633342Y61159404D01*
X141566857Y61138354D01*
X141431683Y61095609D01*
X141431683Y61238612D01*
X141560570Y61273274D01*
X141594625Y61282488D01*
X141658115Y61299915D01*
X141715874Y61316054D01*
X141758614Y61328322D01*
X141827773Y61348709D01*
X141437971Y61478745D01*
X141434237Y61528476D01*
X141430504Y61578206D01*
X141629130Y61642997D01*
X141679850Y61659997D01*
X141735997Y61680107D01*
X141778532Y61696899D01*
X141803990Y61708986D01*
X141808903Y61714980D01*
X141804630Y61716426D01*
X141778422Y61724254D01*
X141734649Y61736723D01*
X141678211Y61752447D01*
X141614010Y61770043D01*
X141437971Y61817914D01*
X141434152Y61891007D01*
X141433846Y61897177D01*
X141433441Y61936592D01*
X141437487Y61955533D01*
X141446726Y61957945D01*
X141455749Y61954898D01*
G37*
X141455749Y61954898D02*
X141486632Y61944874D01*
X141535544Y61929180D01*
X141598987Y61908934D01*
X141673462Y61885256D01*
X141755471Y61859263D01*
X142047822Y61766736D01*
X142047822Y61650993D01*
X141862352Y61596457D01*
X141828294Y61586386D01*
X141766378Y61567775D01*
X141714787Y61551872D01*
X141678130Y61540109D01*
X141661018Y61533918D01*
X141659741Y61532154D01*
X141670779Y61523571D01*
X141699969Y61511316D01*
X141742750Y61497426D01*
X141745263Y61496692D01*
X141808400Y61478096D01*
X141879889Y61456818D01*
X141944734Y61437321D01*
X142049122Y61405705D01*
X142045328Y61347402D01*
X142041535Y61289098D01*
X141871782Y61235098D01*
X141797193Y61211390D01*
X141713539Y61184833D01*
X141633342Y61159404D01*
X141566857Y61138354D01*
X141431683Y61095609D01*
X141431683Y61238612D01*
X141560570Y61273274D01*
X141594625Y61282488D01*
X141658115Y61299915D01*
X141715874Y61316054D01*
X141758614Y61328322D01*
X141827773Y61348709D01*
X141437971Y61478745D01*
X141434237Y61528476D01*
X141430504Y61578206D01*
X141629130Y61642997D01*
X141679850Y61659997D01*
X141735997Y61680107D01*
X141778532Y61696899D01*
X141803990Y61708986D01*
X141808903Y61714980D01*
X141804630Y61716426D01*
X141778422Y61724254D01*
X141734649Y61736723D01*
X141678211Y61752447D01*
X141614010Y61770043D01*
X141437971Y61817914D01*
X141434152Y61891007D01*
X141433846Y61897177D01*
X141433441Y61936592D01*
X141437487Y61955533D01*
X141446726Y61957945D01*
X141455749Y61954898D01*
X141434970Y59777419D02*
X141450597Y59717315D01*
X141450597Y59717315D02*
X141482848Y59666979D01*
X141482848Y59666979D02*
X141506940Y59642607D01*
X141506940Y59642607D02*
X141563895Y59602655D01*
X141563895Y59602655D02*
X141629965Y59579758D01*
X141629965Y59579758D02*
X141711182Y59571892D01*
X141711182Y59571892D02*
X141717748Y59571852D01*
X141717748Y59571852D02*
X141783763Y59571782D01*
X141783763Y59571782D02*
X141783763Y59951736D01*
X141783763Y59951736D02*
X141818342Y59943637D01*
X141818342Y59943637D02*
X141849659Y59929013D01*
X141849659Y59929013D02*
X141882291Y59903419D01*
X141882291Y59903419D02*
X141887500Y59898065D01*
X141887500Y59898065D02*
X141915694Y59852057D01*
X141915694Y59852057D02*
X141920475Y59799590D01*
X141920475Y59799590D02*
X141901926Y59739197D01*
X141901926Y59739197D02*
X141896931Y59728960D01*
X141896931Y59728960D02*
X141881745Y59697561D01*
X141881745Y59697561D02*
X141873094Y59676530D01*
X141873094Y59676530D02*
X141872293Y59672861D01*
X141872293Y59672861D02*
X141880063Y59660052D01*
X141880063Y59660052D02*
X141899072Y59635622D01*
X141899072Y59635622D02*
X141909460Y59623221D01*
X141909460Y59623221D02*
X141933321Y59597524D01*
X141933321Y59597524D02*
X141949077Y59589085D01*
X141949077Y59589085D02*
X141963571Y59594942D01*
X141963571Y59594942D02*
X141967534Y59598072D01*
X141967534Y59598072D02*
X141984879Y59619275D01*
X141984879Y59619275D02*
X142005959Y59654262D01*
X142005959Y59654262D02*
X142018265Y59678663D01*
X142018265Y59678663D02*
X142039946Y59747928D01*
X142039946Y59747928D02*
X142046971Y59824612D01*
X142046971Y59824612D02*
X142038647Y59897235D01*
X142038647Y59897235D02*
X142032686Y59917574D01*
X142032686Y59917574D02*
X141998952Y59980524D01*
X141998952Y59980524D02*
X141947045Y60027185D01*
X141947045Y60027185D02*
X141876459Y60057827D01*
X141876459Y60057827D02*
X141786692Y60072718D01*
X141786692Y60072718D02*
X141739753Y60074353D01*
X141739753Y60074353D02*
X141671413Y60069579D01*
X141671413Y60069579D02*
X141671413Y59949010D01*
X141671413Y59949010D02*
X141676465Y59937348D01*
X141676465Y59937348D02*
X141680429Y59906002D01*
X141680429Y59906002D02*
X141682768Y59860429D01*
X141682768Y59860429D02*
X141683169Y59829554D01*
X141683169Y59829554D02*
X141682783Y59774019D01*
X141682783Y59774019D02*
X141680975Y59738967D01*
X141680975Y59738967D02*
X141676773Y59719738D01*
X141676773Y59719738D02*
X141669203Y59711670D01*
X141669203Y59711670D02*
X141658218Y59710099D01*
X141658218Y59710099D02*
X141624381Y59720879D01*
X141624381Y59720879D02*
X141590940Y59748020D01*
X141590940Y59748020D02*
X141565272Y59783723D01*
X141565272Y59783723D02*
X141554772Y59819440D01*
X141554772Y59819440D02*
X141564086Y59867952D01*
X141564086Y59867952D02*
X141591013Y59909947D01*
X141591013Y59909947D02*
X141629827Y59939064D01*
X141629827Y59939064D02*
X141671413Y59949010D01*
X141671413Y59949010D02*
X141671413Y60069579D01*
X141671413Y60069579D02*
X141640236Y60067401D01*
X141640236Y60067401D02*
X141560949Y60045945D01*
X141560949Y60045945D02*
X141501263Y60009530D01*
X141501263Y60009530D02*
X141460549Y59957703D01*
X141460549Y59957703D02*
X141438179Y59890010D01*
X141438179Y59890010D02*
X141433871Y59853338D01*
X141433871Y59853338D02*
X141434970Y59777419D01*
X141434970Y59777419D02*
X141434970Y59777419D01*
G36*
X141786692Y60072718D02*
G01*
X141876459Y60057827D01*
X141947045Y60027185D01*
X141998952Y59980524D01*
X142032686Y59917574D01*
X142038647Y59897235D01*
X142046971Y59824612D01*
X142039946Y59747928D01*
X142018265Y59678663D01*
X142005959Y59654262D01*
X141984879Y59619275D01*
X141967534Y59598072D01*
X141963571Y59594942D01*
X141949077Y59589085D01*
X141933321Y59597524D01*
X141909460Y59623221D01*
X141899072Y59635622D01*
X141880063Y59660052D01*
X141872293Y59672861D01*
X141873094Y59676530D01*
X141881745Y59697561D01*
X141896931Y59728960D01*
X141901926Y59739197D01*
X141920475Y59799590D01*
X141915694Y59852057D01*
X141887500Y59898065D01*
X141882291Y59903419D01*
X141849659Y59929013D01*
X141818342Y59943637D01*
X141783763Y59951736D01*
X141783763Y59571782D01*
X141717748Y59571852D01*
X141711182Y59571892D01*
X141629965Y59579758D01*
X141563895Y59602655D01*
X141506940Y59642607D01*
X141482848Y59666979D01*
X141450597Y59717315D01*
X141434970Y59777419D01*
X141434362Y59819440D01*
X141554772Y59819440D01*
X141565272Y59783723D01*
X141590940Y59748020D01*
X141624381Y59720879D01*
X141658218Y59710099D01*
X141669203Y59711670D01*
X141676773Y59719738D01*
X141680975Y59738967D01*
X141682783Y59774019D01*
X141683169Y59829554D01*
X141682768Y59860429D01*
X141680429Y59906002D01*
X141676465Y59937348D01*
X141671413Y59949010D01*
X141629827Y59939064D01*
X141591013Y59909947D01*
X141564086Y59867952D01*
X141554772Y59819440D01*
X141434362Y59819440D01*
X141433871Y59853338D01*
X141438179Y59890010D01*
X141460549Y59957703D01*
X141501263Y60009530D01*
X141560949Y60045945D01*
X141640236Y60067401D01*
X141671413Y60069579D01*
X141739753Y60074353D01*
X141786692Y60072718D01*
G37*
X141786692Y60072718D02*
X141876459Y60057827D01*
X141947045Y60027185D01*
X141998952Y59980524D01*
X142032686Y59917574D01*
X142038647Y59897235D01*
X142046971Y59824612D01*
X142039946Y59747928D01*
X142018265Y59678663D01*
X142005959Y59654262D01*
X141984879Y59619275D01*
X141967534Y59598072D01*
X141963571Y59594942D01*
X141949077Y59589085D01*
X141933321Y59597524D01*
X141909460Y59623221D01*
X141899072Y59635622D01*
X141880063Y59660052D01*
X141872293Y59672861D01*
X141873094Y59676530D01*
X141881745Y59697561D01*
X141896931Y59728960D01*
X141901926Y59739197D01*
X141920475Y59799590D01*
X141915694Y59852057D01*
X141887500Y59898065D01*
X141882291Y59903419D01*
X141849659Y59929013D01*
X141818342Y59943637D01*
X141783763Y59951736D01*
X141783763Y59571782D01*
X141717748Y59571852D01*
X141711182Y59571892D01*
X141629965Y59579758D01*
X141563895Y59602655D01*
X141506940Y59642607D01*
X141482848Y59666979D01*
X141450597Y59717315D01*
X141434970Y59777419D01*
X141434362Y59819440D01*
X141554772Y59819440D01*
X141565272Y59783723D01*
X141590940Y59748020D01*
X141624381Y59720879D01*
X141658218Y59710099D01*
X141669203Y59711670D01*
X141676773Y59719738D01*
X141680975Y59738967D01*
X141682783Y59774019D01*
X141683169Y59829554D01*
X141682768Y59860429D01*
X141680429Y59906002D01*
X141676465Y59937348D01*
X141671413Y59949010D01*
X141629827Y59939064D01*
X141591013Y59909947D01*
X141564086Y59867952D01*
X141554772Y59819440D01*
X141434362Y59819440D01*
X141433871Y59853338D01*
X141438179Y59890010D01*
X141460549Y59957703D01*
X141501263Y60009530D01*
X141560949Y60045945D01*
X141640236Y60067401D01*
X141671413Y60069579D01*
X141739753Y60074353D01*
X141786692Y60072718D01*
%TD*%
M02*
