%TF.GenerationSoftware,KiCad,Pcbnew,6.0.2+dfsg-1*%
%TF.CreationDate,2022-09-10T17:36:14-07:00*%
%TF.ProjectId,OpenHasp-1Gang,4f70656e-4861-4737-902d-3147616e672e,rev?*%
%TF.SameCoordinates,Original*%
%TF.FileFunction,Soldermask,Bot*%
%TF.FilePolarity,Negative*%
%FSLAX46Y46*%
G04 Gerber Fmt 4.6, Leading zero omitted, Abs format (unit mm)*
G04 Created by KiCad (PCBNEW 6.0.2+dfsg-1) date 2022-09-10 17:36:14*
%MOMM*%
%LPD*%
G01*
G04 APERTURE LIST*
%ADD10C,0.900000*%
%ADD11C,5.100000*%
%ADD12C,0.750000*%
%ADD13O,1.100000X1.700000*%
%ADD14O,1.100000X2.200000*%
G04 APERTURE END LIST*
D10*
%TO.C,H1*%
X85500000Y29875000D03*
X86825825Y29325825D03*
X83625000Y28000000D03*
X84174175Y29325825D03*
D11*
X85500000Y28000000D03*
D10*
X85500000Y26125000D03*
X87375000Y28000000D03*
X84174175Y26674175D03*
X86825825Y26674175D03*
%TD*%
%TO.C,H2*%
X145625000Y67500000D03*
X147500000Y65625000D03*
X146174175Y66174175D03*
X148825825Y66174175D03*
X147500000Y69375000D03*
D11*
X147500000Y67500000D03*
D10*
X149375000Y67500000D03*
X146174175Y68825825D03*
X148825825Y68825825D03*
%TD*%
%TO.C,H3*%
X86855825Y68855825D03*
X83655000Y67530000D03*
X86855825Y66204175D03*
D11*
X85530000Y67530000D03*
D10*
X87405000Y67530000D03*
X84204175Y68855825D03*
X85530000Y65655000D03*
X84204175Y66204175D03*
X85530000Y69405000D03*
%TD*%
%TO.C,H4*%
X147500000Y29875000D03*
D11*
X147500000Y28000000D03*
D10*
X146174175Y26674175D03*
X149375000Y28000000D03*
X147500000Y26125000D03*
X148825825Y26674175D03*
X148825825Y29325825D03*
X145625000Y28000000D03*
X146174175Y29325825D03*
%TD*%
D12*
%TO.C,J5*%
X109565000Y31905000D03*
X103785000Y31905000D03*
D13*
X110995000Y28225000D03*
D14*
X110995000Y32405000D03*
X102355000Y32405000D03*
D13*
X102355000Y28225000D03*
%TD*%
M02*
