%TF.GenerationSoftware,KiCad,Pcbnew,6.0.2+dfsg-1*%
%TF.CreationDate,2022-09-10T17:36:14-07:00*%
%TF.ProjectId,OpenHasp-1Gang,4f70656e-4861-4737-902d-3147616e672e,rev?*%
%TF.SameCoordinates,Original*%
%TF.FileFunction,Soldermask,Top*%
%TF.FilePolarity,Negative*%
%FSLAX46Y46*%
G04 Gerber Fmt 4.6, Leading zero omitted, Abs format (unit mm)*
G04 Created by KiCad (PCBNEW 6.0.2+dfsg-1) date 2022-09-10 17:36:14*
%MOMM*%
%LPD*%
G01*
G04 APERTURE LIST*
G04 Aperture macros list*
%AMRoundRect*
0 Rectangle with rounded corners*
0 $1 Rounding radius*
0 $2 $3 $4 $5 $6 $7 $8 $9 X,Y pos of 4 corners*
0 Add a 4 corners polygon primitive as box body*
4,1,4,$2,$3,$4,$5,$6,$7,$8,$9,$2,$3,0*
0 Add four circle primitives for the rounded corners*
1,1,$1+$1,$2,$3*
1,1,$1+$1,$4,$5*
1,1,$1+$1,$6,$7*
1,1,$1+$1,$8,$9*
0 Add four rect primitives between the rounded corners*
20,1,$1+$1,$2,$3,$4,$5,0*
20,1,$1+$1,$4,$5,$6,$7,0*
20,1,$1+$1,$6,$7,$8,$9,0*
20,1,$1+$1,$8,$9,$2,$3,0*%
G04 Aperture macros list end*
%ADD10RoundRect,0.275000X0.250000X-0.225000X0.250000X0.225000X-0.250000X0.225000X-0.250000X-0.225000X0*%
%ADD11RoundRect,0.050000X0.650000X-0.150000X0.650000X0.150000X-0.650000X0.150000X-0.650000X-0.150000X0*%
%ADD12RoundRect,0.050000X1.100000X-0.900000X1.100000X0.900000X-1.100000X0.900000X-1.100000X-0.900000X0*%
%ADD13C,0.900000*%
%ADD14C,5.100000*%
%ADD15RoundRect,0.200000X0.150000X-0.587500X0.150000X0.587500X-0.150000X0.587500X-0.150000X-0.587500X0*%
%ADD16RoundRect,0.250000X-0.200000X-0.275000X0.200000X-0.275000X0.200000X0.275000X-0.200000X0.275000X0*%
%ADD17RoundRect,0.200000X0.587500X0.150000X-0.587500X0.150000X-0.587500X-0.150000X0.587500X-0.150000X0*%
%ADD18RoundRect,0.250000X0.200000X0.275000X-0.200000X0.275000X-0.200000X-0.275000X0.200000X-0.275000X0*%
%ADD19RoundRect,0.275000X0.225000X0.250000X-0.225000X0.250000X-0.225000X-0.250000X0.225000X-0.250000X0*%
%ADD20RoundRect,0.112500X0.337500X0.062500X-0.337500X0.062500X-0.337500X-0.062500X0.337500X-0.062500X0*%
%ADD21RoundRect,0.112500X0.062500X0.337500X-0.062500X0.337500X-0.062500X-0.337500X0.062500X-0.337500X0*%
%ADD22RoundRect,0.050000X1.675000X1.675000X-1.675000X1.675000X-1.675000X-1.675000X1.675000X-1.675000X0*%
%ADD23RoundRect,0.250000X0.275000X-0.200000X0.275000X0.200000X-0.275000X0.200000X-0.275000X-0.200000X0*%
%ADD24RoundRect,0.275000X-0.225000X-0.250000X0.225000X-0.250000X0.225000X0.250000X-0.225000X0.250000X0*%
%ADD25RoundRect,0.300000X-0.425000X0.450000X-0.425000X-0.450000X0.425000X-0.450000X0.425000X0.450000X0*%
%ADD26RoundRect,0.050000X-1.000000X-0.450000X1.000000X-0.450000X1.000000X0.450000X-1.000000X0.450000X0*%
%ADD27RoundRect,0.050000X0.450000X-1.000000X0.450000X1.000000X-0.450000X1.000000X-0.450000X-1.000000X0*%
%ADD28RoundRect,0.050000X-2.500000X-2.500000X2.500000X-2.500000X2.500000X2.500000X-2.500000X2.500000X0*%
%ADD29RoundRect,0.293750X0.243750X0.456250X-0.243750X0.456250X-0.243750X-0.456250X0.243750X-0.456250X0*%
%ADD30C,0.750000*%
%ADD31RoundRect,0.050000X-0.150000X-0.575000X0.150000X-0.575000X0.150000X0.575000X-0.150000X0.575000X0*%
%ADD32O,1.100000X1.700000*%
%ADD33O,1.100000X2.200000*%
%ADD34RoundRect,0.050000X0.900000X-1.250000X0.900000X1.250000X-0.900000X1.250000X-0.900000X-1.250000X0*%
%ADD35RoundRect,0.300000X0.425000X-0.450000X0.425000X0.450000X-0.425000X0.450000X-0.425000X-0.450000X0*%
%ADD36RoundRect,0.200000X0.512500X0.150000X-0.512500X0.150000X-0.512500X-0.150000X0.512500X-0.150000X0*%
%ADD37RoundRect,0.300000X1.500000X-0.250000X1.500000X0.250000X-1.500000X0.250000X-1.500000X-0.250000X0*%
%ADD38RoundRect,0.300001X1.449999X-0.499999X1.449999X0.499999X-1.449999X0.499999X-1.449999X-0.499999X0*%
G04 APERTURE END LIST*
D10*
%TO.C,C7*%
X113230000Y26257000D03*
X113230000Y27807000D03*
%TD*%
D11*
%TO.C,FPC2*%
X141100000Y58740000D03*
X141100000Y59240000D03*
X141100000Y59740000D03*
X141100000Y60240000D03*
X141100000Y60740000D03*
X141100000Y61240000D03*
D12*
X144350000Y56840000D03*
X144350000Y63140000D03*
%TD*%
D13*
%TO.C,H1*%
X85500000Y29875000D03*
X86825825Y29325825D03*
X83625000Y28000000D03*
X84174175Y29325825D03*
D14*
X85500000Y28000000D03*
D13*
X85500000Y26125000D03*
X87375000Y28000000D03*
X84174175Y26674175D03*
X86825825Y26674175D03*
%TD*%
%TO.C,H2*%
X145625000Y67500000D03*
X147500000Y65625000D03*
X146174175Y66174175D03*
X148825825Y66174175D03*
X147500000Y69375000D03*
D14*
X147500000Y67500000D03*
D13*
X149375000Y67500000D03*
X146174175Y68825825D03*
X148825825Y68825825D03*
%TD*%
%TO.C,H3*%
X86855825Y68855825D03*
X83655000Y67530000D03*
X86855825Y66204175D03*
D14*
X85530000Y67530000D03*
D13*
X87405000Y67530000D03*
X84204175Y68855825D03*
X85530000Y65655000D03*
X84204175Y66204175D03*
X85530000Y69405000D03*
%TD*%
D15*
%TO.C,Q3*%
X115328000Y36508500D03*
X117228000Y36508500D03*
X116278000Y38383500D03*
%TD*%
D16*
%TO.C,R12*%
X114945000Y61830000D03*
X116595000Y61830000D03*
%TD*%
D17*
%TO.C,Q1*%
X86481500Y31924000D03*
X86481500Y33824000D03*
X84606500Y32874000D03*
%TD*%
D18*
%TO.C,R5*%
X97037000Y27794000D03*
X95387000Y27794000D03*
%TD*%
D13*
%TO.C,H4*%
X147500000Y29875000D03*
D14*
X147500000Y28000000D03*
D13*
X146174175Y26674175D03*
X149375000Y28000000D03*
X147500000Y26125000D03*
X148825825Y26674175D03*
X148825825Y29325825D03*
X145625000Y28000000D03*
X146174175Y29325825D03*
%TD*%
D19*
%TO.C,C6*%
X92025000Y57870000D03*
X90475000Y57870000D03*
%TD*%
D10*
%TO.C,C2*%
X119457500Y34005000D03*
X119457500Y35555000D03*
%TD*%
D20*
%TO.C,U1*%
X96376000Y33406000D03*
X96376000Y33906000D03*
X96376000Y34406000D03*
X96376000Y34906000D03*
X96376000Y35406000D03*
X96376000Y35906000D03*
X96376000Y36406000D03*
D21*
X95426000Y37356000D03*
X94926000Y37356000D03*
X94426000Y37356000D03*
X93926000Y37356000D03*
X93426000Y37356000D03*
X92926000Y37356000D03*
X92426000Y37356000D03*
D20*
X91476000Y36406000D03*
X91476000Y35906000D03*
X91476000Y35406000D03*
X91476000Y34906000D03*
X91476000Y34406000D03*
X91476000Y33906000D03*
X91476000Y33406000D03*
D21*
X92426000Y32456000D03*
X92926000Y32456000D03*
X93426000Y32456000D03*
X93926000Y32456000D03*
X94426000Y32456000D03*
X94926000Y32456000D03*
X95426000Y32456000D03*
D22*
X93926000Y34906000D03*
%TD*%
D18*
%TO.C,R6*%
X97037000Y26016000D03*
X95387000Y26016000D03*
%TD*%
D23*
%TO.C,R2*%
X121612000Y34045000D03*
X121612000Y35695000D03*
%TD*%
D18*
%TO.C,R1*%
X97291000Y39478000D03*
X95641000Y39478000D03*
%TD*%
D24*
%TO.C,C10*%
X98244000Y37192000D03*
X99794000Y37192000D03*
%TD*%
D19*
%TO.C,C8*%
X92085000Y55930000D03*
X90535000Y55930000D03*
%TD*%
D25*
%TO.C,C5*%
X113230000Y33208000D03*
X113230000Y30508000D03*
%TD*%
D24*
%TO.C,C1*%
X98993000Y39478000D03*
X100543000Y39478000D03*
%TD*%
D16*
%TO.C,R24*%
X103515000Y36430000D03*
X105165000Y36430000D03*
%TD*%
%TO.C,R18*%
X111643000Y36430000D03*
X113293000Y36430000D03*
%TD*%
D18*
%TO.C,R25*%
X109038000Y36430000D03*
X107388000Y36430000D03*
%TD*%
D11*
%TO.C,FPC1*%
X122150000Y61250000D03*
X122150000Y60750000D03*
X122150000Y60250000D03*
X122150000Y59750000D03*
X122150000Y59250000D03*
X122150000Y58750000D03*
X122150000Y58250000D03*
X122150000Y57750000D03*
X122150000Y57250000D03*
X122150000Y56750000D03*
X122150000Y56250000D03*
X122150000Y55750000D03*
X122150000Y55250000D03*
X122150000Y54750000D03*
X122150000Y54250000D03*
X122150000Y53750000D03*
X122150000Y53250000D03*
X122150000Y52750000D03*
X122150000Y52250000D03*
X122150000Y51750000D03*
X122150000Y51250000D03*
X122150000Y50750000D03*
X122150000Y50250000D03*
X122150000Y49750000D03*
X122150000Y49250000D03*
X122150000Y48750000D03*
X122150000Y48250000D03*
X122150000Y47750000D03*
X122150000Y47250000D03*
X122150000Y46750000D03*
X122150000Y46250000D03*
X122150000Y45750000D03*
X122150000Y45250000D03*
X122150000Y44750000D03*
X122150000Y44250000D03*
X122150000Y43750000D03*
X122150000Y43250000D03*
X122150000Y42750000D03*
X122150000Y42250000D03*
X122150000Y41750000D03*
D12*
X125400000Y63150000D03*
X125400000Y39850000D03*
%TD*%
D26*
%TO.C,U4*%
X95010000Y61703000D03*
X95010000Y60433000D03*
X95010000Y59163000D03*
X95010000Y57893000D03*
X95010000Y56623000D03*
X95010000Y55353000D03*
X95010000Y54083000D03*
X95010000Y52813000D03*
X95010000Y51543000D03*
X95010000Y50273000D03*
X95010000Y49003000D03*
X95010000Y47733000D03*
X95010000Y46463000D03*
X95010000Y45193000D03*
D27*
X97795000Y44193000D03*
X99065000Y44193000D03*
X100335000Y44193000D03*
X101605000Y44193000D03*
X102875000Y44193000D03*
X104145000Y44193000D03*
X105415000Y44193000D03*
X106685000Y44193000D03*
X107955000Y44193000D03*
X109225000Y44193000D03*
D26*
X112010000Y45193000D03*
X112010000Y46463000D03*
X112010000Y47733000D03*
X112010000Y49003000D03*
X112010000Y50273000D03*
X112010000Y51543000D03*
X112010000Y52813000D03*
X112010000Y54083000D03*
X112010000Y55353000D03*
X112010000Y56623000D03*
X112010000Y57893000D03*
X112010000Y59163000D03*
X112010000Y60433000D03*
X112010000Y61703000D03*
D28*
X102510000Y54203000D03*
%TD*%
D16*
%TO.C,R3*%
X114945000Y58274000D03*
X116595000Y58274000D03*
%TD*%
%TO.C,R10*%
X91577000Y30588000D03*
X93227000Y30588000D03*
%TD*%
%TO.C,R4*%
X114945000Y56242000D03*
X116595000Y56242000D03*
%TD*%
D15*
%TO.C,Q2*%
X91452000Y26427000D03*
X93352000Y26427000D03*
X92402000Y28302000D03*
%TD*%
D29*
%TO.C,F1*%
X118993500Y31350000D03*
X117118500Y31350000D03*
%TD*%
D30*
%TO.C,J5*%
X109565000Y31905000D03*
X103785000Y31905000D03*
D31*
X103325000Y32970000D03*
X104125000Y32970000D03*
X105425000Y32970000D03*
X106425000Y32970000D03*
X106925000Y32970000D03*
X107925000Y32970000D03*
X109225000Y32970000D03*
X110025000Y32970000D03*
X109725000Y32970000D03*
X108925000Y32970000D03*
X108425000Y32970000D03*
X107425000Y32970000D03*
X105925000Y32970000D03*
X104925000Y32970000D03*
X104425000Y32970000D03*
X103625000Y32970000D03*
D32*
X110995000Y28225000D03*
D33*
X110995000Y32405000D03*
X102355000Y32405000D03*
D32*
X102355000Y28225000D03*
%TD*%
D16*
%TO.C,R19*%
X118075000Y45320000D03*
X119725000Y45320000D03*
%TD*%
D34*
%TO.C,D1*%
X123390000Y26810000D03*
X123390000Y30810000D03*
%TD*%
D35*
%TO.C,C4*%
X127708000Y26444000D03*
X127708000Y29144000D03*
%TD*%
D36*
%TO.C,U3*%
X119701500Y26844000D03*
X119701500Y27794000D03*
X119701500Y28744000D03*
X117426500Y28744000D03*
X117426500Y26844000D03*
%TD*%
D18*
%TO.C,R23*%
X116595000Y50146000D03*
X114945000Y50146000D03*
%TD*%
D16*
%TO.C,R20*%
X118135000Y43650000D03*
X119785000Y43650000D03*
%TD*%
%TO.C,R21*%
X118135000Y41900000D03*
X119785000Y41900000D03*
%TD*%
D18*
%TO.C,R8*%
X86052000Y35922000D03*
X84402000Y35922000D03*
%TD*%
D16*
%TO.C,R11*%
X114945000Y60052000D03*
X116595000Y60052000D03*
%TD*%
%TO.C,R7*%
X114945000Y54210000D03*
X116595000Y54210000D03*
%TD*%
D37*
%TO.C,J2*%
X139844000Y44098000D03*
X139844000Y46098000D03*
X139844000Y48098000D03*
X139844000Y50098000D03*
D38*
X145594000Y41748000D03*
X145594000Y52448000D03*
%TD*%
G36*
X147044102Y40949001D02*
G01*
X147044102Y40947001D01*
X147042618Y40946016D01*
X147042610Y40946015D01*
X147042362Y40946000D01*
X144145638Y40946000D01*
X144143906Y40947000D01*
X144143906Y40949000D01*
X144145638Y40950000D01*
X147042370Y40950001D01*
X147044102Y40949001D01*
G37*
G36*
X147044094Y42549000D02*
G01*
X147044094Y42547000D01*
X147042362Y42546000D01*
X144145630Y42545999D01*
X144143898Y42546999D01*
X144143898Y42548999D01*
X144145382Y42549984D01*
X144145390Y42549985D01*
X144145638Y42550000D01*
X147042362Y42550000D01*
X147044094Y42549000D01*
G37*
G36*
X147044102Y51649001D02*
G01*
X147044102Y51647001D01*
X147042618Y51646016D01*
X147042610Y51646015D01*
X147042362Y51646000D01*
X144145638Y51646000D01*
X144143906Y51647000D01*
X144143906Y51649000D01*
X144145638Y51650000D01*
X147042370Y51650001D01*
X147044102Y51649001D01*
G37*
G36*
X147044094Y53249000D02*
G01*
X147044094Y53247000D01*
X147042362Y53246000D01*
X144145630Y53245999D01*
X144143898Y53246999D01*
X144143898Y53248999D01*
X144145382Y53249984D01*
X144145390Y53249985D01*
X144145638Y53250000D01*
X147042362Y53250000D01*
X147044094Y53249000D01*
G37*
M02*
