%TF.GenerationSoftware,KiCad,Pcbnew,5.1.9+dfsg1-1*%
%TF.CreationDate,2022-04-02T16:18:38-07:00*%
%TF.ProjectId,Openhasp-Relays,4f70656e-6861-4737-902d-52656c617973,rev?*%
%TF.SameCoordinates,Original*%
%TF.FileFunction,Soldermask,Top*%
%TF.FilePolarity,Negative*%
%FSLAX46Y46*%
G04 Gerber Fmt 4.6, Leading zero omitted, Abs format (unit mm)*
G04 Created by KiCad (PCBNEW 5.1.9+dfsg1-1) date 2022-04-02 16:18:38*
%MOMM*%
%LPD*%
G01*
G04 APERTURE LIST*
%ADD10R,1.500000X1.500000*%
%ADD11C,1.500000*%
%ADD12O,1.400000X1.400000*%
%ADD13C,1.400000*%
%ADD14O,2.200000X2.200000*%
%ADD15R,2.200000X2.200000*%
%ADD16O,1.700000X1.700000*%
%ADD17R,1.700000X1.700000*%
%ADD18C,0.700000*%
%ADD19C,4.400000*%
%ADD20O,1.600000X1.600000*%
%ADD21R,1.600000X1.600000*%
%ADD22C,2.780000*%
%ADD23R,2.780000X2.780000*%
%ADD24C,2.300000*%
%ADD25R,2.000000X2.300000*%
%ADD26R,2.300000X2.300000*%
G04 APERTURE END LIST*
D10*
%TO.C,Q2*%
X111900000Y-116400000D03*
D11*
X111900000Y-121480000D03*
X111900000Y-118940000D03*
%TD*%
D10*
%TO.C,Q1*%
X98950000Y-117000000D03*
D11*
X98950000Y-122080000D03*
X98950000Y-119540000D03*
%TD*%
D12*
%TO.C,R4*%
X113040000Y-113050000D03*
D13*
X110500000Y-113050000D03*
%TD*%
D12*
%TO.C,R3*%
X100540000Y-113000000D03*
D13*
X98000000Y-113000000D03*
%TD*%
D12*
%TO.C,R2*%
X114660000Y-124000000D03*
D13*
X117200000Y-124000000D03*
%TD*%
D12*
%TO.C,R1*%
X111890000Y-124050000D03*
D13*
X109350000Y-124050000D03*
%TD*%
D14*
%TO.C,D2*%
X125500000Y-112340000D03*
D15*
X125500000Y-122500000D03*
%TD*%
D14*
%TO.C,D1*%
X98500000Y-97340000D03*
D15*
X98500000Y-107500000D03*
%TD*%
D16*
%TO.C,J2*%
X120200000Y-127500000D03*
X117660000Y-127500000D03*
X115120000Y-127500000D03*
X112580000Y-127500000D03*
X110040000Y-127500000D03*
D17*
X107500000Y-127500000D03*
%TD*%
D18*
%TO.C,H4*%
X100666726Y-86833274D03*
X99500000Y-86350000D03*
X98333274Y-86833274D03*
X97850000Y-88000000D03*
X98333274Y-89166726D03*
X99500000Y-89650000D03*
X100666726Y-89166726D03*
X101150000Y-88000000D03*
D19*
X99500000Y-88000000D03*
%TD*%
D18*
%TO.C,H3*%
X157166726Y-86833274D03*
X156000000Y-86350000D03*
X154833274Y-86833274D03*
X154350000Y-88000000D03*
X154833274Y-89166726D03*
X156000000Y-89650000D03*
X157166726Y-89166726D03*
X157650000Y-88000000D03*
D19*
X156000000Y-88000000D03*
%TD*%
D18*
%TO.C,H2*%
X100666726Y-125333274D03*
X99500000Y-124850000D03*
X98333274Y-125333274D03*
X97850000Y-126500000D03*
X98333274Y-127666726D03*
X99500000Y-128150000D03*
X100666726Y-127666726D03*
X101150000Y-126500000D03*
D19*
X99500000Y-126500000D03*
%TD*%
D18*
%TO.C,H1*%
X157166726Y-125333274D03*
X156000000Y-124850000D03*
X154833274Y-125333274D03*
X154350000Y-126500000D03*
X154833274Y-127666726D03*
X156000000Y-128150000D03*
X157166726Y-127666726D03*
X157650000Y-126500000D03*
D19*
X156000000Y-126500000D03*
%TD*%
D20*
%TO.C,U2*%
X117000000Y-113380000D03*
X119540000Y-121000000D03*
X119540000Y-113380000D03*
D21*
X117000000Y-121000000D03*
%TD*%
D20*
%TO.C,U1*%
X104500000Y-113380000D03*
X107040000Y-121000000D03*
X107040000Y-113380000D03*
D21*
X104500000Y-121000000D03*
%TD*%
D22*
%TO.C,J1*%
X155500000Y-99260000D03*
X155500000Y-104340000D03*
X155500000Y-109420000D03*
D23*
X155500000Y-114500000D03*
%TD*%
D24*
%TO.C,PS1*%
X129800000Y-120900000D03*
X135000000Y-91500000D03*
D25*
X140000000Y-91500000D03*
D24*
X145200000Y-120900000D03*
%TD*%
%TO.C,K2*%
X117380000Y-108500000D03*
X117380000Y-93260000D03*
X125000000Y-90720000D03*
X125000000Y-98340000D03*
D26*
X125000000Y-108500000D03*
%TD*%
D24*
%TO.C,K1*%
X104880000Y-108500000D03*
X104880000Y-93260000D03*
X112500000Y-90720000D03*
X112500000Y-98340000D03*
D26*
X112500000Y-108500000D03*
%TD*%
M02*
