M48
; DRILL file {KiCad 5.1.9+dfsg1-1} date Sat Apr  2 16:18:45 2022
; FORMAT={-:-/ absolute / inch / decimal}
; #@! TF.CreationDate,2022-04-02T16:18:45-07:00
; #@! TF.GenerationSoftware,Kicad,Pcbnew,5.1.9+dfsg1-1
; #@! TF.FileFunction,Plated,1,2,PTH
FMAT,2
INCH
T1C0.0157
T2C0.0276
T3C0.0315
T4C0.0394
T5C0.0433
T6C0.0512
T7C0.0701
T8C0.0866
%
G90
G05
T1
X3.8524Y-3.4646
X3.8524Y-4.9803
X3.8714Y-3.4186
X3.8714Y-3.5105
X3.8714Y-4.9344
X3.8714Y-5.0262
X3.9173Y-3.3996
X3.9173Y-3.5295
X3.9173Y-4.9154
X3.9173Y-5.0453
X3.9633Y-3.4186
X3.9633Y-3.5105
X3.9633Y-4.9344
X3.9633Y-5.0262
X3.9823Y-3.4646
X3.9823Y-4.9803
X6.0768Y-3.4646
X6.0768Y-4.9803
X6.0958Y-3.4186
X6.0958Y-3.5105
X6.0958Y-4.9344
X6.0958Y-5.0262
X6.1417Y-3.3996
X6.1417Y-3.5295
X6.1417Y-4.9154
X6.1417Y-5.0453
X6.1877Y-3.4186
X6.1877Y-3.5105
X6.1877Y-4.9344
X6.1877Y-5.0262
X6.2067Y-3.4646
X6.2067Y-4.9803
T2
X3.8583Y-4.4488
X3.9583Y-4.4488
X4.3051Y-4.8839
X4.3504Y-4.4508
X4.4051Y-4.8839
X4.4504Y-4.4508
X4.5142Y-4.8819
X4.6142Y-4.8819
T3
X3.8957Y-4.6063
X3.8957Y-4.7063
X3.8957Y-4.8063
X4.1142Y-4.4638
X4.1142Y-4.7638
X4.2142Y-4.4638
X4.2142Y-4.7638
X4.4055Y-4.5827
X4.4055Y-4.6827
X4.4055Y-4.7827
X4.6063Y-4.4638
X4.6063Y-4.7638
X4.7063Y-4.4638
X4.7063Y-4.7638
T4
X4.2323Y-5.0197
X4.3323Y-5.0197
X4.4323Y-5.0197
X4.5323Y-5.0197
X4.6323Y-5.0197
X4.7323Y-5.0197
X5.1102Y-4.7598
X5.315Y-3.6024
X5.5118Y-3.6024
X5.7165Y-4.7598
T5
X3.878Y-3.8323
X3.878Y-4.2323
X4.9409Y-4.4228
X4.9409Y-4.8228
T6
X4.1291Y-3.6717
X4.1291Y-4.2717
X4.4291Y-3.5717
X4.4291Y-3.8717
X4.4291Y-4.2717
X4.6213Y-3.6717
X4.6213Y-4.2717
X4.9213Y-3.5717
X4.9213Y-3.8717
X4.9213Y-4.2717
T7
X6.122Y-3.9079
X6.122Y-4.1079
X6.122Y-4.3079
X6.122Y-4.5079
T8
X3.9173Y-3.4646
X3.9173Y-4.9803
X6.1417Y-3.4646
X6.1417Y-4.9803
T0
M30
